<?xml version="1.0" standalone="no"?>
<!DOCTYPE svg PUBLIC "-//W3C//DTD SVG 1.1//EN" "http://www.w3.org/Graphics/SVG/1.1/DTD/svg11.dtd" >
<svg>
<metadata>
Created by FontForge 20090914 at Fri May 24 07:37:44 2019
 By www-data
EuroUkraine is a CopyRight (c) 1993, KoleSoft Co. All rights reserved
</metadata>
<defs>
<font id="EuroUkrPSMT" horiz-adv-x="689" >
  <font-face 
    font-family="EuroUkr"
    font-weight="400"
    font-stretch="normal"
    units-per-em="1000"
    panose-1="0 0 0 0 0 0 0 0 0 0"
    ascent="800"
    descent="-200"
    x-height="525"
    cap-height="750"
    bbox="-334.998 -234.002 1260 969"
    underline-thickness="50"
    underline-position="-75"
    unicode-range="U+0020-U+2122"
  />
<missing-glyph horiz-adv-x="969" 
d="M60 0v969h849v-969h-849zM849 60v849h-729v-849h729z" />
    <glyph glyph-name=".notdef" horiz-adv-x="969" 
d="M60 0v969h849v-969h-849zM849 60v849h-729v-849h729z" />
    <glyph glyph-name="space" unicode=" " horiz-adv-x="346" 
 />
    <glyph glyph-name="exclam" unicode="!" horiz-adv-x="270" 
d="M92 102h90v-102h-90v102zM92 750h90l-4 -266l-2 -119v-74l-2 -84h-74l-4 385l-2 125z" />
    <glyph glyph-name="quotedbl" unicode="&#x22;" horiz-adv-x="355" 
d="M117 504h-39l-27 135v111h94v-111zM277 504h-41l-27 135v111h94v-111z" />
    <glyph glyph-name="numbersign" unicode="#" 
d="M424 465h-123l-28 -162h123zM273 750h77l-36 -205h124l35 205h80l-35 -205h91v-80h-107l-27 -162h101v-80h-117l-39 -223h-76l37 223h-123l-39 -223h-76l37 223h-100v80h115l28 162h-106v80h119z" />
    <glyph glyph-name="dollar" unicode="$" 
d="M313 750l-0.00195312 70.001h64v-70c67.333 0 119.5 -3.66699 156.5 -11s64.833 -25 83.5 -53s28 -71 28 -129v-18h-86v22c0 52 -10.167 84.833 -30.5 98.5s-70.833 20.5 -151.5 20.5v-264c72.667 0 128.667 -4.66699 168 -14c37.333 -7.33301 66.166 -26.333 86.499 -57
s30.5 -78.667 30.5 -144c0 -83.333 -25.333 -140 -76 -170c-41.333 -20.667 -101.333 -31 -180 -31h-29v-86h-64v86c-58 0 -104.667 2 -140 6s-65.666 16.333 -90.999 37c-35.333 30.667 -53 93.667 -53 189h86v-14c0 -6 -0.666992 -12.333 -2 -19
c0 -28 1.33301 -48.833 4 -62.5s8.66699 -25.167 18 -34.5c14 -15.333 32.333 -24.333 55 -27l123 -7v278c-51.333 0 -94.166 2 -128.499 6s-63.833 14.333 -88.5 31c-40.667 27.333 -61 80.666 -61 159.999c0 77.333 19 132 57 164c21.333 17.333 48.833 28.833 82.5 34.5
s79.834 8.5 138.501 8.5zM312.998 680.001h-44.5c-13.667 0 -26.5 -0.666992 -38.5 -2c-20 0 -38.667 -3.33301 -56 -10c-35.333 -16 -53 -55 -53 -117c0 -40.667 5.5 -70 16.5 -88s28.833 -31 53.5 -39c8 -2 19.333 -4.16699 34 -6.5s29 -3.5 43 -3.5l45 2v264z
M376.998 346.001v-277.999l53 2l41 2c22 2 37.667 5.33301 47 10c38.667 14.667 58 55.667 58 123c0 60 -12.333 99 -37 117c-10 7.33301 -29 13.166 -57 17.499s-63 6.5 -105 6.5z" />
    <glyph glyph-name="percent" unicode="%" horiz-adv-x="885" 
d="M660 750h70l-509 -756h-67zM180 701l-30 -1l-32 -3c-7.33301 -0.666992 -14.666 -3.66699 -21.999 -9c-9.33301 -8 -14 -29 -14 -63v-129c0 -34 9.66699 -54 29 -60c9.33301 -4 33.666 -6 72.999 -6c48.667 0 77.667 5.66699 87 17c10.667 10.667 16 33 16 67v117
c0 30 -5.83301 49.167 -17.5 57.5s-35.167 12.5 -70.5 12.5h-19zM180 756c56 0 94.333 -5.33398 115 -16.001c34 -16 51 -55.667 51 -119v-70v-37c0 -32 -3.16699 -57.167 -9.5 -75.5s-19.5 -34.166 -39.5 -47.499c-10 -5.33301 -24 -9.33301 -42 -12s-42.333 -4 -73 -4
c-53.333 0 -89.333 4.66699 -108 14c-35.333 14.667 -53 54.334 -53 119.001v111c0 65.333 17 105.666 51 120.999c21.333 10.667 57.333 16 108 16zM695 319.999l-30.999 -2.00195c-14 0 -25 -1 -33 -3c-7.33301 -0.666992 -14 -4 -20 -10
c-4 -2.66699 -7.5 -9.16699 -10.5 -19.5s-4.5 -24.166 -4.5 -41.499v-123c0 -37.333 10.333 -60 31 -68c6 -1.33301 13.833 -2.33301 23.5 -3s25.834 -1 48.501 -1h30c11.333 0 22.166 0.833008 32.499 2.5s18.833 5.83398 25.5 12.501c10.667 12.667 16 35.667 16 69v109
c0 17.333 -1.5 31.333 -4.5 42s-7.33301 18.167 -13 22.5s-13.334 7.5 -23.001 9.5s-21.5 3 -35.5 3zM695.001 374.997c52 0 90.666 -5.33203 115.999 -15.999c33.333 -18 50 -58.333 50 -121v-105c0 -32.667 -3.16699 -58.667 -9.5 -78s-19.666 -34.333 -39.999 -45
s-58.5 -16 -114.5 -16c-51.333 0 -87 4 -107 12c-16 8 -29 21 -39 39c-4.66699 10 -8.16699 21.667 -10.5 35s-3.5 29 -3.5 47v111c0 65.333 17 105.666 51 120.999c23.333 10.667 59 16 107 16z" />
    <glyph glyph-name="ampersand" unicode="&#x26;" horiz-adv-x="787" 
d="M592 520l-86.0029 -0.00195312v15c0 5.33301 -0.666992 12 -2 20c0 46 -4 77 -12 93c-11.333 22.667 -51 34 -119 34c-46 0 -79.333 -5.33301 -100 -16c-27.333 -14 -41 -42.667 -41 -86c0 -23.333 2.5 -41.166 7.5 -53.499s18.833 -28.166 41.5 -47.499l297 -250l1 27
l1 31l-1 25l-1 18h78l1 -28l1 -36c0 -42 -2.66699 -75.333 -8 -100l135 -107l-45 -59l-111 92c-18 -42 -53.333 -70 -106 -84c-6.66699 -2 -16.167 -4 -28.5 -6s-25.833 -3.66699 -40.5 -5l-99 -3h-48c-67.333 0 -117.666 7.33301 -150.999 22
c-62 27.333 -93 99.333 -93 216c0 73.333 11.667 123 35 149c10 11.333 21.333 19.333 34 24l85 27c-26.667 20 -45 40.333 -55 61c-9.33301 22 -14 50.333 -14 85c0 77.333 23 127 69 149c32.667 19.333 85.334 29 158.001 29c90.667 0 151.334 -18.333 182.001 -55
c23.333 -32.667 35 -77 35 -133v-48zM269.997 384.998c-49.333 -11.333 -81.334 -23.666 -96.001 -36.999c-10 -9.33301 -16.833 -23 -20.5 -41s-5.5 -43.667 -5.5 -77c0 -52 4 -87.833 12 -107.5s23.667 -33.834 47 -42.501c10 -3.33301 24.333 -6.5 43 -9.5
s40.667 -4.5 66 -4.5l59 2c57.333 0 96.333 3.33301 117 10c38.667 12 62.334 33.667 71.001 65z" />
    <glyph glyph-name="quotesingle" unicode="'" horiz-adv-x="201" 
d="M61 750h89.001v-127c0 -38 -7.33301 -62.167 -22 -72.5s-40.334 -15.5 -77.001 -15.5v45c18.667 0 31.5 4.16699 38.5 12.5s10.5 26.833 10.5 55.5h-39v102z" />
    <glyph glyph-name="parenleft" unicode="(" horiz-adv-x="313" 
d="M250 -150c-40 0 -72.501 3.66895 -97.501 11.002s-45.833 23 -62.5 47c-23.333 34.667 -35 86.667 -35 156v461c0 99.333 15.833 162.666 47.5 189.999s80.834 41 147.501 41v-74c-33.333 0 -56 -4 -68 -12c-28.667 -20.667 -43 -62.334 -43 -125.001v-482
c0 -92.667 27.333 -139 82 -139h29v-74z" />
    <glyph glyph-name="parenright" unicode=")" horiz-adv-x="313" 
d="M61 756l19.002 -0.000976562c63.333 0 110.333 -19.667 141 -59c12.667 -15.333 22 -39.666 28 -72.999c3.33301 -15.333 5.33301 -30 6 -44s1 -33 1 -57v-443c0 -128 -36.667 -202.333 -110 -223c-7.33301 -2 -14.833 -3.66699 -22.5 -5s-16.834 -2 -27.501 -2h-35v74
c11.333 0 19 0.666992 23 2c58.667 0 88 54 88 162v463c0 42.667 -7.33301 75.167 -22 97.5s-35.334 33.5 -62.001 33.5h-27v74z" />
    <glyph glyph-name="asterisk" unicode="*" 
d="M318 750h55v-162l152 57l20 -55l-154 -57l91 -131l-43 -33l-93 135l-100 -135l-47 31l98 133l-152 57l19 55l154 -57v162z" />
    <glyph glyph-name="plus" unicode="+" horiz-adv-x="584" 
d="M49 320h205v205h76v-205h203v-74h-203v-205h-76v205h-205v74z" />
    <glyph glyph-name="comma" unicode="," horiz-adv-x="346" 
d="M121 102h88v-116c0 -38 -5.33301 -63.333 -16 -76c-10 -15.333 -34 -23 -72 -23h-12v23v22c20 2 33.167 8.5 39.5 19.5s9.5 27.167 9.5 48.5h-37v102z" />
    <glyph glyph-name="hyphen" unicode="-" horiz-adv-x="262" 
d="M260 311v-75h-260v75h260z" />
    <glyph glyph-name="period" unicode="." horiz-adv-x="346" 
d="M199 102v-102h-90v102h90z" />
    <glyph glyph-name="slash" unicode="/" horiz-adv-x="727" 
d="M605 750h94l-580 -863h-92z" />
    <glyph glyph-name="zero" unicode="0" 
d="M344 682c-89.333 0 -146.003 -5.99902 -170.003 -17.999c-18 -7.33301 -33.667 -23.333 -47 -48c-5.33301 -11.333 -9.66602 -26.833 -12.999 -46.5s-5 -42.834 -5 -69.501v-252c0 -88.667 21 -142.667 63 -162c12 -5.33301 32.333 -10 61 -14l105 -4
c59.333 0 104.333 2 135 6s53.334 13.333 68.001 28c24.667 24.667 37 76.667 37 156v232c0 90 -16.333 145.333 -49 166c-17.333 12 -35.666 19 -54.999 21s-37.333 3.33301 -54 4s-42 1 -76 1zM341.997 -5.99902c-69.333 0 -123.333 3.83203 -162 11.499
s-70 22.167 -94 43.5c-18.667 18.667 -33.5 46 -44.5 82s-16.5 80.333 -16.5 133v220c0 43.333 4.16699 83 12.5 119s22.5 66 42.5 90c36 42 124 63 264 63c61.333 0 112 -3.16699 152 -9.5s70.667 -18.166 92 -35.499c25.333 -17.333 44 -44.333 56 -81
c6 -18.667 10.833 -40.167 14.5 -64.5s5.5 -51.5 5.5 -81.5v-218c0 -59.333 -7.16699 -108.833 -21.5 -148.5s-35.833 -68.5 -64.5 -86.5c-26 -15.333 -58.5 -25.333 -97.5 -30s-85.167 -7 -138.5 -7z" />
    <glyph glyph-name="one" unicode="1" 
d="M447 750v-750h-84v686l-193 -211l-53 50l207 225h123z" />
    <glyph glyph-name="two" unicode="2" 
d="M119 293c4 3.33301 10 7.66602 18 12.999s17 10.666 27 15.999c6 2.66699 13.5 5.5 22.5 8.5s19.833 5.83301 32.5 8.5l58 9l57 6l56 5l51 7c14 2 26.667 5.66699 38 11c17.333 8 30 21.333 38 40c3.33301 10 6.16602 23.167 8.49902 39.5s3.5 34.166 3.5 53.499
c0 77.333 -11 126 -33 146c-18.667 17.333 -66.667 26 -144 26c-83.333 0 -136.333 -6.66699 -159 -20c-15.333 -6.66699 -25.666 -20.667 -30.999 -42c-4 -20 -6 -49.667 -6 -89v-39h-84v59c0 50.667 5.16699 88.834 15.5 114.501s28.833 45.5 55.5 59.5
c44.667 20.667 115 31 211 31c54 0 99.167 -5 135.5 -15s63.833 -26 82.5 -48c14.667 -17.333 25.167 -40.166 31.5 -68.499s9.5 -65.166 9.5 -110.499c0 -26 -1 -47.667 -3 -65s-5 -34 -9 -50c-6 -25.333 -19.667 -47.5 -41 -66.5s-47.333 -31.333 -78 -37
s-72.667 -11.167 -126 -16.5s-92 -10.5 -116 -15.5s-43.333 -15.5 -58 -31.5c-17.333 -16 -26 -44 -26 -84v-74h455v-74h-539v154c0 32 4.16699 59.667 12.5 83s19.833 42 34.5 56z" />
    <glyph glyph-name="three" unicode="3" 
d="M57 242l85.999 -0.00195312v-27c0 -11.333 -0.666992 -21.666 -2 -30.999c0 -29.333 2.66699 -51.333 8 -66c4 -14 13.667 -25.333 29 -34c14 -6 31.667 -10.667 53 -14l95 -2h29c8 0 16 -0.666992 24 -2c30 0 54 1.66699 72 5s32.333 8.33301 43 15
c24.667 16.667 37 57.667 37 123c0 40 -4.16699 69.833 -12.5 89.5s-24.166 32.834 -47.499 39.501c-2 0.666992 -8.33301 2 -19 4c-22 4 -43.667 6 -65 6l-112 -2v76h104c32 0 58.667 2 80 6c38 10 57 51.667 57 125c0 54.667 -10 89.667 -30 105
c-18 16 -73.333 24 -166 24l-90 -5c-13.333 0 -26.333 -4.33301 -39 -13c-14.667 -8 -25 -22 -31 -42c-5.33301 -21.333 -8 -55.333 -8 -102h-86c0 56.667 4 100.167 12 130.5s23.667 53.166 47 68.499c32.667 24.667 101 37 205 37c35.333 0 65.333 -0.666992 90 -2
s45.334 -4 62.001 -8c35.333 -7.33301 61.666 -21 78.999 -41c27.333 -32.667 41 -80 41 -142c0 -54 -6.66699 -93.333 -20 -118c-18 -34 -53 -54 -105 -60c52 -2 88 -16.667 108 -44s30 -68 30 -122c0 -48 -3.66699 -86.667 -11 -116c-6 -29.333 -22.333 -54 -49 -74
c-17.333 -13.333 -44 -23 -80 -29c-34 -4 -81 -6 -141 -6c-101.333 0 -168.333 9.66699 -201 29c-31.333 16.667 -51 38 -59 64c-2 8 -4.66699 23.833 -8 47.5s-6.33301 47.834 -9 72.501v35z" />
    <glyph glyph-name="four" unicode="4" 
d="M100 246h351v449zM406 750h131v-504h109v-76h-109v-170h-86v170h-422v101z" />
    <glyph glyph-name="five" unicode="5" 
d="M166 451c18.667 25.333 43.333 41.9951 74 49.9951c15.333 3.33301 33.5 6.33301 54.5 9s43.833 4 68.5 4c48.667 0 91.667 -5.16699 129 -15.5s65.333 -26.833 84 -49.5c30 -34 45 -90.667 45 -170v-23c0 -55.333 -3.33301 -100.333 -10 -135
c-4 -30.667 -16.333 -56.667 -37 -78c-18 -20 -46 -33.667 -84 -41c-38.667 -5.33301 -84.667 -8 -138 -8h-24c-40 0 -76.167 1.83301 -108.5 5.5s-59.666 12.334 -81.999 26.001s-39.5 36 -51.5 67s-18 71.833 -18 122.5h86v-12v-8
c-1.33301 -3.33301 -2 -5.66602 -2 -6.99902c0 -13.333 0.666992 -23.666 2 -30.999s3.83301 -17 7.5 -29s12.5 -24 26.5 -36c12 -9.33301 30.667 -16 56 -20l100 -4c8 0 13.667 -0.666992 17 -2c34 0 63 2.33301 87 7s42 13 54 25c14 12 23.333 30.333 28 55
c2 12.667 3.66699 27 5 43s2 34.667 2 56v18c0 64 -8.33301 106.667 -25 128c-12.667 16 -27.834 25.833 -45.501 29.5s-34 6.33398 -49 8.00098s-32.5 2.5 -52.5 2.5h-56c-40 0 -72.333 -4.16699 -97 -12.5s-40 -27.166 -46 -56.499h-86v381h512v-74h-426v-225z" />
    <glyph glyph-name="six" unicode="6" 
d="M605 561h-83.998c0 12.667 -0.333008 24 -1 34s-2.33398 21 -5.00098 33s-9.66699 22 -21 30c-8.66699 7.33301 -22 13 -40 17c-8 1.33301 -16.833 2.66602 -26.5 3.99902s-20.167 2 -31.5 2l-66 1l-103 -6c-16 -2 -31.667 -10 -47 -24c-20 -18 -30 -51.667 -30 -101
v-156h4c10.667 28 33.667 46.333 69 55s76.333 13 123 13c61.333 0 110.5 -3.83301 147.5 -11.5s63.833 -20.167 80.5 -37.5c32.667 -32.667 49 -101 49 -205c0 -45.333 -6 -83.166 -18 -113.499s-29.333 -53 -52 -68s-50.334 -24.333 -83.001 -28s-76 -5.5 -130 -5.5h-31
c-78.667 0 -136.667 13 -174 39c-46 31.333 -69 94 -69 188v332c0 74 19 126 57 156c22 19.333 50.833 32 86.5 38s83.167 9 142.5 9h29c84.667 0 142.667 -13.667 174 -41c33.333 -26 50 -77.333 50 -154zM152.002 238c0 -34.667 2 -63.5 6 -86.5s14.333 -41.5 31 -55.5
l14 -8.5c4 -2.33301 9 -4.5 15 -6.5l30 -9l35 -4h19c6 0 12.667 -0.666992 20 -2l22 2l37 1l53 3c6 0.666992 13 1.5 21 2.5s17.167 3.16699 27.5 6.5s19.5 8.33301 27.5 15c18 13.333 27 46.333 27 99v55c0 56.667 -7.66699 93 -23 109c-18 20 -71 30 -159 30h-19
c-83.333 0 -136 -10.667 -158 -32c-8.66699 -8 -15.5 -20.167 -20.5 -36.5s-7.5 -36.5 -7.5 -60.5z" />
    <glyph glyph-name="seven" unicode="7" 
d="M63 680v70h546v-107l-363 -643h-101l394 680h-476z" />
    <glyph glyph-name="eight" unicode="8" 
d="M342 350c-80.667 0 -132.667 -7.33301 -156 -22c-25.333 -17.333 -38 -59 -38 -125c0 -34 2.5 -59.5 7.5 -76.5s15.167 -29.833 30.5 -38.5c21.333 -13.333 85 -20 191 -20c38.667 0 65.667 1.66699 81 5c15.333 2 29.333 7.66699 42 17c26 14 39 53 39 117
c0 58 -8.33301 95.667 -25 113c-22 20 -79.333 30 -172 30zM496 391c56 -10 91.335 -29.666 106.002 -58.999c7.33301 -16 13 -34.167 17 -54.5s6 -44.5 6 -72.5c0 -58 -7.5 -102 -22.5 -132s-41.167 -51 -78.5 -63c-38.667 -10.667 -91.667 -16 -159 -16h-37
c-63.333 0 -112.333 3 -147 9s-62.834 24.167 -84.501 54.5s-32.5 78.166 -32.5 143.499c0 42 2 74.167 6 96.5s15.333 41.166 34 56.499s49 27 91 35c-50.667 8.66699 -84.334 27.334 -101.001 56.001c-13.333 25.333 -20 64 -20 116c0 67.333 13 116 39 146
c22 25.333 60.667 40.333 116 45l117 4c60 0 101 -1.33301 123 -4c52 -8 88.333 -23.667 109 -47c24.667 -28 37 -75.333 37 -142c0 -61.333 -7.66699 -103 -23 -125c-19.333 -25.333 -51.333 -41 -96 -47zM344.002 682.001c-65.333 0 -111.666 -3.99805 -138.999 -11.998
c-17.333 -6 -29.666 -17 -36.999 -33c-5.33301 -14 -8 -39.333 -8 -76c0 -31.333 2 -56 6 -74s13 -32 27 -42c23.333 -14 71.666 -21 144.999 -21c79.333 0 131.333 6.5 156 19.5s37 52.167 37 117.5c0 33.333 -2.66699 56.666 -8 69.999c-4 14 -13 25 -27 33
c-9.33301 5.33301 -26.333 9.66602 -51 12.999s-58.334 5 -101.001 5z" />
    <glyph glyph-name="nine" unicode="9" 
d="M627 188c0 -28 -2.83398 -52.833 -8.50098 -74.5s-13.834 -39.834 -24.501 -54.501c-20 -27.333 -50.333 -45 -91 -53s-101.667 -12 -183 -12c-88.667 0 -149.667 8 -183 24c-25.333 12 -44.666 31 -57.999 57c-10.667 25.333 -16 64 -16 116h83v-29l4 -27
c2 -14 5.5 -25 10.5 -33s12.833 -14 23.5 -18c8 -4 19.333 -7.66699 34 -11l53 -3h28c8.66699 0 17 -0.666992 25 -2h26.5c8.33301 0 15.833 -0.666992 22.5 -2c22.667 0 42.334 1 59.001 3s30.334 4.33301 41.001 7c23.333 6 40.666 19 51.999 39
c10.667 21.333 16 54 16 98v146c-13.333 -28 -37 -46.333 -71 -55s-78 -13 -132 -13c-28.667 0 -54.167 0.666992 -76.5 2s-42.5 4 -60.5 8c-35.333 8 -64 22.333 -86 43c-30 32 -45 91 -45 177c0 95.333 17.5 158.333 52.5 189s108.167 46 219.5 46
c71.333 0 125.5 -4.16699 162.5 -12.5s66.167 -27.5 87.5 -57.5c10.667 -15.333 19.167 -34.166 25.5 -56.499s9.5 -48.5 9.5 -78.5v-363zM349.999 682c-92.667 0 -148 -8.66895 -166 -26.002c-12 -12 -20 -28 -24 -48l-4 -83c0 -15.333 0.333008 -29.666 1 -42.999
s2.5 -28 5.5 -44s9.5 -30 19.5 -42c20.667 -20.667 74 -31 160 -31c26 0 49.833 0.666992 71.5 2s41.167 2.83301 58.5 4.5s33.333 9.83398 48 24.501c14 19.333 21 53.333 21 102v23c0 30 -2 55.667 -6 77s-11 38 -21 50c-12 14 -26.5 22.5 -43.5 25.5
s-34.667 5.16699 -53 6.5s-40.833 2 -67.5 2z" />
    <glyph glyph-name="colon" unicode=":" horiz-adv-x="346" 
d="M199 102v-102h-90v102h90zM199 525v-101h-90v101h90z" />
    <glyph glyph-name="semicolon" unicode=";" horiz-adv-x="346" 
d="M121 525h88v-103h-88v103zM121 102h88v-120c0 -22 -1.83301 -39.5 -5.5 -52.5s-10.167 -22.833 -19.5 -29.5c-15.333 -8.66699 -40.333 -13 -75 -13v45c32.667 0 49 18.667 49 56v12h-37v102z" />
    <glyph glyph-name="less" unicode="&#x3c;" horiz-adv-x="584" 
d="M49 277l484 207v-80l-394 -162l394 -162v-80l-484 207v70z" />
    <glyph glyph-name="equal" unicode="=" horiz-adv-x="584" 
d="M49 398h484v-74h-484v74zM49 244h484v-76h-484v76z" />
    <glyph glyph-name="greater" unicode="&#x3e;" horiz-adv-x="584" 
d="M533 277v-70l-484 -207v80l392 162l-392 162v80z" />
    <glyph glyph-name="question" unicode="?" horiz-adv-x="584" 
d="M299 213l-86.0029 0.000976562v39c0 32 5.66699 56.667 17 74c8 14 18.333 25.333 31 34s26.334 16 41.001 22l59 23c25.333 9.33301 43.833 17.833 55.5 25.5s19.5 20.167 23.5 37.5c2 8.66699 3.66699 19.834 5 33.501s2 30.834 2 51.501c0 38 -3.16699 65.5 -9.5 82.5
s-20.166 29.5 -41.499 37.5c-9.33301 3.33301 -22.666 5.66602 -39.999 6.99902s-38.333 2 -63 2c-19.333 0 -36.833 -0.666992 -52.5 -2s-29.334 -2.83301 -41.001 -4.5s-22.834 -6.83398 -33.501 -15.501c-20.667 -14.667 -31 -54.334 -31 -119.001l2 -27h-80v59
c1.33301 30 5 55.333 11 76c10 32.667 25.667 57.334 47 74.001c30 22 91.333 33 184 33c46 0 82.333 -3 109 -9s49 -16 67 -30c34.667 -28.667 52 -83.334 52 -164.001c0 -56 -4.66699 -97 -14 -123s-26.666 -47.667 -51.999 -65l-34 -19l-50 -19
c-19.333 -6.66699 -33.666 -12.667 -42.999 -18c-14 -6 -22.833 -13.833 -26.5 -23.5s-7.16699 -24.167 -10.5 -43.5zM210.997 102.001h90v-102h-90v102z" />
    <glyph glyph-name="at" unicode="@" horiz-adv-x="990" 
d="M563 498c-14.667 6.66699 -30.999 10.001 -48.999 10.001c-39.333 0 -73 -19.333 -101 -58c-14 -20 -24.833 -40 -32.5 -60s-11.5 -40.667 -11.5 -62c0 -26.667 7.66699 -49 23 -67s35 -30 59 -36c5.33301 -1.33301 9.66602 -2 12.999 -2c17.333 0 35.333 8.33301 54 25
c23.333 19.333 41.833 47.666 55.5 84.999s20.5 69 20.5 95c0 36 -10.333 59.333 -31 70zM434.001 166.001c-39.333 0 -72.6699 16.333 -100.003 49c-12 14.667 -21.5 31.667 -28.5 51s-10.5 39.333 -10.5 60c0 56 22.333 111.667 67 167c42 51.333 92 77 150 77
c24 0 47 -7.66699 69 -23c22 -14 36 -32.333 42 -55h4l18 57h70l-86 -274l-3 -10l-3 -9c0 -19.333 15.667 -29 47 -29c34 -2.66699 64.167 11.333 90.5 42s44.833 74.334 55.5 131.001c1.33301 6.66699 2.33301 14 3 22s1 15.667 1 23c0 40.667 -10.333 76.667 -31 108
c-27.333 43.333 -66.666 77 -117.999 101c-25.333 11.333 -51.333 20.333 -78 27s-53.667 10 -81 10c-56 0 -109.667 -15 -161 -45s-93.333 -72.167 -126 -126.5s-49 -110.166 -49 -167.499c0 -82 30.667 -151.333 92 -208c30.667 -28 65.334 -49.5 104.001 -64.5
s80 -22.5 124 -22.5l12 2c40 0 90.667 9.66699 152 29l26 -57c-36.667 -12.667 -69.167 -22 -97.5 -28s-56.5 -9 -84.5 -9c-36.667 0 -70.167 2.83301 -100.5 8.5s-61.5 15.5 -93.5 29.5c-62 26.667 -112.833 67.5 -152.5 122.5s-59.5 118.167 -59.5 189.5l2 8
c0 56.667 12.167 110.167 36.5 160.5s56.666 93.666 96.999 129.999s84.5 64.333 132.5 84s95.333 29.5 142 29.5c30.667 0 61.334 -3.33301 92.001 -10s62 -16.334 94 -29.001c61.333 -24 111.333 -62 150 -114c31.333 -41.333 47 -91 47 -149v-17
c-1.33301 -8.66699 -2 -15 -2 -19c-8.66699 -71.333 -34 -131 -76 -179c-21.333 -24 -44 -42.167 -68 -54.5s-50.333 -18.5 -79 -18.5c-13.333 0 -25.333 0.5 -36 1.5s-23 4.83301 -37 11.5c-19.333 10 -30.666 27 -33.999 51c-16.667 -20.667 -35.167 -36.5 -55.5 -47.5
s-43.5 -16.5 -69.5 -16.5z" />
    <glyph glyph-name="A" unicode="A" horiz-adv-x="686" 
d="M176 229h332l-168 451zM279 750h119l282 -750h-88l-61 158h-379l-58 -158h-88z" />
    <glyph glyph-name="B" unicode="B" horiz-adv-x="693" 
d="M145 348v-274h287c38 0 65.833 6.5 83.5 19.5s28 28.167 31 45.5s4.5 40 4.5 68c0 94 -36 141 -108 141h-298zM398 676h-253v-254h257c48 0 81.167 9.66699 99.5 29s27.5 59 27.5 119c0 36 -7 62 -21 78c-10 10.667 -23 18 -39 22s-39.667 6 -71 6zM455 750
c57.333 0 98 -15.334 122 -46.001c12.667 -15.333 22.167 -34 28.5 -56s9.5 -48 9.5 -78s-1.5 -54.167 -4.5 -72.5s-8.5 -34.5 -16.5 -48.5c-14.667 -24 -39 -42.667 -73 -56c52 -10 84.333 -31.667 97 -65s19 -79.666 19 -138.999c0 -56 -14.333 -102 -43 -138
c-26 -34 -69 -51 -129 -51h-404v750h394z" />
    <glyph glyph-name="C" unicode="C" horiz-adv-x="664" 
d="M547 516v28.999c0 56 -10.333 92.833 -31 110.5s-59.334 26.5 -116.001 26.5h-17c-28 0 -53.833 -0.833008 -77.5 -2.5s-48.5 -4.16699 -74.5 -7.5s-49 -15 -69 -35c-22 -26 -33 -62.667 -33 -110v-246c0 -94.667 14.333 -155 43 -181
c9.33301 -9.33301 19.666 -16.333 30.999 -21l37 -9l47 -4l51 2h50h32c12 1.33301 20.333 2 25 2c39.333 4 68 14 86 30c14.667 13.333 23.334 36 26.001 68l2 86h84v-43c0 -78 -15 -132.667 -45 -164c-32 -35.333 -96 -53 -192 -53h-54h-84
c-35.333 0 -63.833 3.5 -85.5 10.5s-47.5 22.5 -77.5 46.5c-16 16 -30 39.833 -42 71.5s-18 65.834 -18 102.501v295c0 72 14.833 125.5 44.5 160.5s67 56.333 112 64s102.833 11.5 173.5 11.5h54c16.667 0 31.334 -0.666992 44.001 -2c42 -4 75.667 -16.333 101 -37
c39.333 -32 59 -92.667 59 -182v-19h-86z" />
    <glyph glyph-name="D" unicode="D" horiz-adv-x="734" 
d="M422 74c70 0 117.5 17.5 142.5 52.5s37.5 98.833 37.5 191.5v166c0 50 -12.167 94.5 -36.5 133.5s-64.5 58.5 -120.5 58.5h-297v-602h274zM451 0l-388 -0.000976562v750h367c104 0 177.333 -36.333 220 -109c24 -44 36 -105.333 36 -184v-160
c0 -135.333 -38 -224.666 -114 -267.999c-30.667 -19.333 -71 -29 -121 -29z" />
    <glyph glyph-name="E" unicode="E" horiz-adv-x="561" 
d="M41 0v750h482v-74h-398v-256h381v-70h-381v-276h398v-74h-482z" />
    <glyph glyph-name="F" unicode="F" horiz-adv-x="549" 
d="M64 0v750h461v-74h-377v-264h368v-70h-368v-342h-84z" />
    <glyph glyph-name="G" unicode="G" horiz-adv-x="695" 
d="M662 209c0 -82.667 -19.334 -139.997 -58.001 -171.997c-25.333 -19.333 -54.666 -31.333 -87.999 -36c-16.667 -2 -37.667 -3.66699 -63 -5s-55.333 -2 -90 -2h-60c-96.667 0 -163 17.667 -199 53c-40.667 39.333 -61 108.333 -61 207v246
c0 89.333 19.667 155.666 59 198.999c36 38 89.333 57 160 57h203c60.667 0 108.334 -14.333 143.001 -43s52 -70.334 52 -125.001v-57h-84v32c0 44 -7 73 -21 87c-9.33301 10 -23.333 17.667 -42 23c-10 2 -21.333 3.83301 -34 5.5s-23 2.5 -31 2.5l-73 1
c-9.33301 0 -24 -0.333008 -44 -1s-35 -1 -45 -1c-27.333 0 -50.5 -1.83301 -69.5 -5.5s-35.167 -11.167 -48.5 -22.5c-26 -20 -39 -70 -39 -150v-272c0 -63.333 15 -106.666 45 -129.999c14.667 -10.667 34.667 -19.334 60 -26.001c9.33301 -1.33301 22.166 -3 38.499 -5
s29.833 -3 40.5 -3l46 2h23.5c7.66699 0 14.167 -0.666992 19.5 -2c14 0 28.5 0.666992 43.5 2s29.5 3 43.5 5c24.667 4 44 11.667 58 23c20.667 15.333 31 51.666 31 108.999v94h-240v76h324v-166z" />
    <glyph glyph-name="H" unicode="H" horiz-adv-x="750" 
d="M70 750h86v-330h440v330h84v-750h-84v346h-440v-346h-86v750z" />
    <glyph glyph-name="I" unicode="I" horiz-adv-x="229" 
d="M72 750h84v-750h-84v750z" />
    <glyph glyph-name="J" unicode="J" horiz-adv-x="564" 
d="M408 750l84.002 -0.00292969v-568c0 -68 -17.667 -115.667 -53 -143c-17.333 -15.333 -43 -26.666 -77 -33.999s-75.333 -11 -124 -11c-43.333 0 -79.833 5.33301 -109.5 16s-52.834 26.334 -69.501 47.001c-20 23.333 -30 59.666 -30 108.999v107h84v-58
c0 -21.333 0.333008 -37.666 1 -48.999s2 -24 4 -38s9 -26.667 21 -38c8.66699 -7.33301 21.5 -13.166 38.5 -17.499s37.833 -6.5 62.5 -6.5l53 5c23.333 0 40.333 1.66699 51 5c13.333 2 25.5 8.33301 36.5 19s18.167 22 21.5 34s5.16602 23.333 5.49902 34s0.5 19 0.5 25
v562z" />
    <glyph glyph-name="K" unicode="K" horiz-adv-x="678" 
d="M72 750h84v-328h74l307 328h111l-343 -363l384 -387h-115l-344 348h-74v-348h-84v750z" />
    <glyph glyph-name="L" unicode="L" horiz-adv-x="559" 
d="M74 750h86v-676h381v-74h-467v750z" />
    <glyph glyph-name="M" unicode="M" horiz-adv-x="965" 
d="M68 0v750h149l265 -643l266 643h147v-750h-84v686l-286 -686h-84l-285 686l-2 -686h-86z" />
    <glyph glyph-name="N" unicode="N" horiz-adv-x="783" 
d="M66 750h141l420 -686l2 686h86v-750h-139l-422 680l-2 -680h-86v750z" />
    <glyph glyph-name="O" unicode="O" horiz-adv-x="672" 
d="M332 682l-30.999 -0.000976562c-46 0 -80.333 -3.16699 -103 -9.5s-40.334 -20.166 -53.001 -41.499c-7.33301 -14.667 -12.5 -31 -15.5 -49s-4.5 -42 -4.5 -72v-274c0 -52.667 8.33301 -93.667 25 -123c9.33301 -17.333 24.333 -29.166 45 -35.499
s51.334 -9.5 92.001 -9.5h49c58 0 99.167 2.16699 123.5 6.5s43.166 15.166 56.499 32.499c19.333 26.667 29 67.667 29 123v288c0 54.667 -7.33301 93.5 -22 116.5s-42.667 37.5 -84 43.5c-10.667 1.33301 -25.5 2.33301 -44.5 3s-36.167 1 -51.5 1h-11zM334.001 755.999
c62.667 0 115.503 -3.66699 158.503 -11s75.5 -27 97.5 -59c9.33301 -8 17.333 -25.333 24 -52c10 -38.667 15 -87.334 15 -146.001v-258c0 -40.667 -2.83301 -72.834 -8.5 -96.501s-15.834 -46.167 -30.501 -67.5c-17.333 -29.333 -45.833 -48.666 -85.5 -57.999
s-82.834 -14 -129.501 -14h-86c-44.667 0 -83 4 -115 12s-60 23.667 -84 47c-32.667 36.667 -49 96.334 -49 179.001v266c0 86.667 12.333 148.667 37 186c23.333 32 54.666 52 93.999 60s93.333 12 162 12z" />
    <glyph glyph-name="P" unicode="P" horiz-adv-x="660" 
d="M143 291v-291.001h-84v750h380c36.667 0 67.667 -6 93 -18s44 -29.333 56 -52c20.667 -36 31 -89.333 31 -160c0 -79.333 -15 -136.666 -45 -171.999c-29.333 -38 -78 -57 -146 -57h-285zM143 366.999h240c64 0 104.333 9.33301 121 28c12 14 20 30 24 48
c2 9.33301 3.66699 19.5 5 30.5s2 23.833 2 38.5c0 58.667 -5.66699 99 -17 121c-16.667 28.667 -52.667 43 -108 43h-267v-309z" />
    <glyph glyph-name="Q" unicode="Q" horiz-adv-x="736" 
d="M340 268l39.001 58.0029l217 -142c4 11.333 6 32.666 6 63.999v275c0 47.333 -8.66699 84 -26 110c-8.66699 12 -21.334 22 -38.001 30s-32.667 13 -48 15l-54 3l-77 1c-63.333 0 -107.333 -2.66699 -132 -8c-28 -4.66699 -50.333 -19.334 -67 -44.001
s-25 -63.334 -25 -116.001v-250c0 -84 13 -138.667 39 -164c13.333 -11.333 31 -19.333 53 -24c9.33301 -2 22.5 -3.83301 39.5 -5.5s32.5 -2.5 46.5 -2.5h52h30.5c9.66699 0 18.5 -0.666992 26.5 -2c18.667 0 35.5 0.833008 50.5 2.5s30.833 4.16699 47.5 7.5
c24 5.33301 42 18.333 54 39zM699.001 33.0029l-56.001 36.999c-27.333 -31.333 -61.666 -52.333 -102.999 -63c-18.667 -4.66699 -41.667 -8 -69 -10s-57.333 -3 -90 -3h-49c-108 0 -181 17.667 -219 53c-25.333 25.333 -42.666 59.333 -51.999 102
c-4 22.667 -7.33301 47.834 -10 75.501s-4 58.167 -4 91.5l2 59v42v28c-1.33301 10.667 -2 18 -2 22c0 50 4 92.5 12 127.5s23 65.5 45 91.5c38.667 46.667 120.667 70 246 70h35c34.667 0 64.167 -0.666992 88.5 -2s46.166 -4.33301 65.499 -9c38.667 -8 70 -25.333 94 -52
c36.667 -40 55 -105.667 55 -197v-207c0 -74 -6 -126 -18 -156l64 -41z" />
    <glyph glyph-name="R" unicode="R" horiz-adv-x="701" 
d="M430 676h-276v-301h266c54 0 92.333 11.667 115 35c18.667 20.667 28 56.667 28 108v25c0 49.333 -6.66699 82 -20 98c-20 23.333 -57.667 35 -113 35zM428 750c82.667 0 141.333 -18.333 176 -55c29.333 -31.333 44 -87.333 44 -168
c0 -66 -10.167 -112.833 -30.5 -140.5s-53.5 -44.5 -99.5 -50.5c36.667 -6 66 -21 88 -45s33 -54 33 -90v-201h-86v164c0 48 -9 82.5 -27 103.5s-52.667 31.5 -104 31.5h-270v-299h-84v750h360z" />
    <glyph glyph-name="S" unicode="S" horiz-adv-x="629" 
d="M314 756c108 0 179.664 -14.1689 214.997 -42.502s53 -77.5 53 -147.5v-21h-84c0 28.667 -2 51.334 -6 68.001s-9.66699 29 -17 37c-10.667 13.333 -27.5 22 -50.5 26s-59.833 6 -110.5 6h-21c-74 0 -123 -10 -147 -30c-16.667 -13.333 -25 -45.666 -25 -96.999
c0 -60 14.333 -98 43 -114c13.333 -6.66699 30 -12 50 -16l64 -5h64l67 -4c16 0 32.333 -1.66699 49 -5c15.333 -2 24 -3.33301 26 -4c8 -3.33301 13.667 -5.33301 17 -6c12.667 -3.33301 25.334 -9.33301 38.001 -18c24 -16 39.333 -38.333 46 -67
c4.66699 -22 8 -39.667 10 -53s3 -30 3 -50c0 -92 -21.667 -153.333 -65 -184c-24 -15.333 -54.667 -25 -92 -29s-84.666 -6 -141.999 -6h-31c-86 0 -146.667 14.333 -182 43c-17.333 13.333 -30.833 32.833 -40.5 58.5s-14.5 56.834 -14.5 93.501l2 45h86
c0 -7.33301 -0.666992 -13 -2 -17c0 -14.667 0.666992 -28.834 2 -42.501s3.5 -27.834 6.5 -42.501s10.833 -28 23.5 -40s34 -19.333 64 -22l82 -2h30.5c9.66699 0 18.5 -0.666992 26.5 -2c59.333 0 100.833 8.33301 124.5 25s35.5 55.334 35.5 116.001v12
c0 46 -8.66699 77.667 -26 95c-8 8 -23.333 15 -46 21s-51 9 -85 9l-92 3c-21.333 0 -37.666 0.666992 -48.999 2s-30.666 4.83301 -57.999 10.5s-50 15.667 -68 30s-31.333 33.5 -40 57.5c-3.33301 11.333 -6.33301 24.5 -9 39.5s-4 31.167 -4 48.5c0 40 4.33301 75 13 105
s23.167 54 43.5 72s48.166 30 83.499 36c17.333 2.66699 36.833 4.66699 58.5 6s48.5 2 80.5 2z" />
    <glyph glyph-name="T" unicode="T" horiz-adv-x="578" 
d="M246 0v676h-242v74h570v-74h-242v-676h-86z" />
    <glyph glyph-name="U" unicode="U" horiz-adv-x="736" 
d="M369 68c10.667 0 18.001 -0.666992 22.001 -2c39.333 0 73 2.66699 101 8c26 4 45 12.667 57 26c12.667 12 21 28.5 25 49.5s6 48.5 6 82.5v518h86v-537c0 -80 -20.333 -137.333 -61 -172c-26.667 -20.667 -60.667 -34 -102 -40c-20.667 -2 -43.334 -3.66699 -68.001 -5
s-52.334 -2 -83.001 -2h-17h-14h-12c-14 0 -27 0.333008 -39 1s-23.333 2 -34 4c-29.333 3.33301 -57.666 12.333 -84.999 27s-47.333 38 -60 70s-19 67.667 -19 107v547h84v-545c0 -58.667 11.667 -95.667 35 -111c14 -10 34 -17 60 -21l97 -7z" />
    <glyph glyph-name="V" unicode="V" horiz-adv-x="643" 
d="M383 0h-121l-268 750h90l236 -686h4l235 686h89z" />
    <glyph glyph-name="W" unicode="W" horiz-adv-x="1123" 
d="M232 0l-230 750h86l205 -686l203 686h125l201 -686l211 686h88l-236 -750h-129l-195 674l-2 2l-200 -676h-127z" />
    <glyph glyph-name="X" unicode="X" horiz-adv-x="652" 
d="M16 750h101l213 -322l211 322h100l-241 -363l258 -387h-99l-229 344l-232 -344h-104l268 387z" />
    <glyph glyph-name="Y" unicode="Y" horiz-adv-x="633" 
d="M268 0v313l-274 437h98l222 -352l223 352h102l-285 -437v-313h-86z" />
    <glyph glyph-name="Z" unicode="Z" horiz-adv-x="637" 
d="M39 750h563v-78l-107 -136l-101 -127l-133 -169l-132 -166h482v-74h-586v74l471 602h-457v74z" />
    <glyph glyph-name="bracketleft" unicode="[" horiz-adv-x="311" 
d="M55 756h193v-74h-109v-758h109v-74h-193v906z" />
    <glyph glyph-name="backslash" unicode="\" horiz-adv-x="277" 
d="M223 0l-35 112l-93 281l-79 240l-39 117h78l248 -750h-80z" />
    <glyph glyph-name="bracketright" unicode="]" horiz-adv-x="311" 
d="M61 756h195v-906h-195v74h109v758h-109v74z" />
    <glyph glyph-name="asciicircum" unicode="^" horiz-adv-x="584" 
d="M256 750h70l207 -490h-80l-162 392l-162 -392h-80z" />
    <glyph glyph-name="underscore" unicode="_" horiz-adv-x="500" 
d="M0 -76h500v-74h-500v74z" />
    <glyph glyph-name="grave" unicode="`" horiz-adv-x="338" 
d="M236 588l-162 101l41 53l147 -113z" />
    <glyph glyph-name="a" unicode="a" horiz-adv-x="570" 
d="M424 53l-2 2.00098c-12.667 -24 -33 -40.667 -61 -50c-12 -3.33301 -26.5 -6 -43.5 -8s-36.167 -3 -57.5 -3c-40 0 -73.167 2.33301 -99.5 7s-47.833 13 -64.5 25c-32.667 23.333 -49 65.333 -49 126l2 14c0 44 8.16699 76.833 24.5 98.5s40.166 35.834 71.499 42.501
c14.667 3.33301 32 5.66602 52 6.99902s42.333 2 67 2h13c27.333 0 54 -2.33301 80 -7c36.667 -10 57 -25 61 -45h6v93c0 27.333 -3.33301 47.666 -10 60.999c-13.333 32.667 -57 49 -131 49h-17c-36.667 0 -65.167 -5.16699 -85.5 -15.5s-32.166 -30.5 -35.499 -60.5l1 -14
h-82c0 58.667 16.333 101 49 127c28 18 84 27 168 27c90.667 0 150.167 -14 178.5 -42s42.5 -73 42.5 -135v-354h-78v53zM148 229.001c-8.66699 -12 -13.001 -26.333 -13.001 -43s-2 -30 -6 -40c2.66699 -24 7.83398 -42.667 15.501 -56s20.5 -22 38.5 -26
c8.66699 -1.33301 21.834 -2.83301 39.501 -4.5s32.167 -2.5 43.5 -2.5c73.333 0 120 13 140 39c10.667 17.333 16 40 16 68c0 38 -14 62.667 -42 74c-15.333 5.33301 -31.833 9.33301 -49.5 12s-39.834 4 -66.501 4c-34 0 -59.5 -1.16699 -76.5 -3.5
s-30.167 -9.5 -39.5 -21.5z" />
    <glyph glyph-name="b" unicode="b" horiz-adv-x="574" 
d="M146 457c14 29.333 34.3301 48.665 60.9971 57.998c12.667 4 28.334 7.66699 47.001 11s37.667 5 57 5c76.667 0 131.334 -17.333 164.001 -52c20 -23.333 33 -53.333 39 -90s9 -81.667 9 -135c0 -27.333 -1 -50.666 -3 -69.999s-5 -39.666 -9 -60.999
c-6 -34 -20.667 -62.667 -44 -86c-15.333 -15.333 -36.166 -26.333 -62.499 -33s-58.833 -10 -97.5 -10c-81.333 0 -134.333 23 -159 69l-2 -2v-61h-80v750h80v-293zM298.997 466.999c-65.333 0 -107.668 -13.667 -127.001 -41c-7.33301 -11.333 -13.5 -28.333 -18.5 -51
s-7.5 -50 -7.5 -82c0.666992 -2 1.66699 -10 3 -24s2 -28 2 -42s0.666992 -27.333 2 -40s3.33301 -26.667 6 -42s9.66699 -31.666 21 -48.999c16 -26 53 -39 111 -39c11.333 0 22.5 0.5 33.5 1.5s24.333 3.16699 40 6.5s30.334 11.833 44.001 25.5s22.5 35.667 26.5 66
s6 66.166 6 107.499c0 40.667 -2.16699 75 -6.5 103s-10.5 47.667 -18.5 59c-16 27.333 -55 41 -117 41z" />
    <glyph glyph-name="c" unicode="c" horiz-adv-x="547" 
d="M416 354v11.0039c0 40 -8.33301 67.333 -25 82c-18.667 13.333 -54 20 -106 20h-19c-28.667 0 -50.5 -1.83301 -65.5 -5.5s-29.167 -12.167 -42.5 -25.5c-8 -8.66699 -14.833 -23.834 -20.5 -45.501s-8.5 -48.167 -8.5 -79.5l2 -41v-27v-18
c-1.33301 -8 -2 -13.333 -2 -16c0 -60 11 -101 33 -123c19.333 -18 60.333 -27 123 -27h12h35c14 2 23.667 3.33301 29 4c18 3.33301 32.333 9.66602 43 18.999c14.667 13.333 22 43.333 22 90v17h78v-23c0 -58 -14.333 -101 -43 -129c-33.333 -30 -94.666 -45 -183.999 -45
c-44.667 0 -81 3.66699 -109 11c-26.667 6 -50 18.667 -70 38c-20.667 22 -34 47.667 -40 77c-2.66699 17.333 -4.83398 37.166 -6.50098 59.499s-2.5 48.5 -2.5 78.5c0 64.667 3 112.167 9 142.5s16.667 54.666 32 72.999s33.833 31.833 55.5 40.5s43.5 14 65.5 16l78 3
c72.667 0 124.667 -11.667 156 -35c34 -26 51 -73.333 51 -142h-80z" />
    <glyph glyph-name="d" unicode="d" horiz-adv-x="574" 
d="M426 750h78.0029v-750h-78v66c-26 -48 -82 -72 -168 -72c-36.667 0 -67.334 3.5 -92.001 10.5s-45.334 18.5 -62.001 34.5c-24 24 -39.167 53.667 -45.5 89s-9.5 77.333 -9.5 126v12c0 4.66699 -0.666992 9.66699 -2 15c0 97.333 16.667 163.333 50 198
s85.666 52 156.999 52c93.333 0 150 -24 170 -72zM275.003 467l-34 -1.00195c-10 0 -20.333 -1.16699 -31 -3.5s-20.5 -6.16602 -29.5 -11.499s-17.167 -13 -24.5 -23c-16.667 -25.333 -25 -78.666 -25 -159.999c0 -9.33301 -0.666992 -16 -2 -20
c0 -36.667 2.33301 -68 7 -94s13.334 -46.5 26.001 -61.5s27.667 -24.5 45 -28.5l76 -7c57.333 0 95 13 113 39c13.333 19.333 21.666 42 24.999 68s5 58 5 96c0 78.667 -8.66699 132 -26 160c-20 31.333 -61.667 47 -125 47z" />
    <glyph glyph-name="e" unicode="e" horiz-adv-x="564" 
d="M430 309c0 68.667 -8.66699 112.667 -26 132c-14 17.333 -50.333 26 -109 26h-16c-30.667 0 -55.667 -2.66699 -75 -8c-18 -2.66699 -32.667 -10.334 -44 -23.001c-8 -10.667 -14.5 -26.667 -19.5 -48s-7.5 -47.666 -7.5 -78.999h297zM512 336v-41.0029v-51h-379v-31v-8
c0 -38.667 2.66699 -67.667 8 -87c4 -18 15.667 -33.333 35 -46c12 -5.33301 24.667 -9 38 -11l81 -4h11c27.333 0 49.666 1.33301 66.999 4s31.5 9.5 42.5 20.5s16.5 36.5 16.5 76.5h80c0 -60.667 -13.667 -103 -41 -127c-19.333 -15.333 -43.666 -25.666 -72.999 -30.999
c-28 -4 -63.667 -6 -107 -6c-100.667 0 -165.834 18.333 -195.501 55s-44.5 109.667 -44.5 219c0 55.333 4.33301 100.333 13 135s21.834 60.834 39.501 78.501s42.667 30.334 75 38.001s68.5 11.5 108.5 11.5c81.333 0 138 -13 170 -39c36.667 -31.333 55 -83.333 55 -156z
" />
    <glyph glyph-name="f" unicode="f" horiz-adv-x="303" 
d="M305 754l0.000976562 -65l-49 2c-30.667 0 -52.334 -3.66699 -65.001 -11c-16.667 -12.667 -25 -37 -25 -73v-82h141v-64h-141v-461h-78v461h-80v64h80v77c0 56.667 13 96.5 39 119.5s65 34.5 117 34.5h33.5c10.333 0 19.5 -0.666992 27.5 -2z" />
    <glyph glyph-name="g" unicode="g" horiz-adv-x="572" 
d="M133 287l0.00195312 -28.002v-19c-1.33301 -8 -2 -13.667 -2 -17c0 -29.333 2.16699 -54.833 6.5 -76.5s10.666 -38.167 18.999 -49.5s18.5 -19.666 30.5 -24.999c11.333 -4 26.666 -7 45.999 -9c8.66699 0 16.834 -0.666992 24.501 -2s14.167 -2.66602 19.5 -3.99902
c54 0 92.667 12 116 36s35 73.667 35 149v20c0 66.667 -4.33301 112.5 -13 137.5s-24.334 42.5 -47.001 52.5s-53.667 15 -93 15c-54 0 -91.667 -11 -113 -33c-12 -14 -19.833 -32.5 -23.5 -55.5s-5.5 -53.5 -5.5 -91.5zM428.002 524.998h79.999v-582
c0 -60.667 -17.667 -104.667 -53 -132c-35.333 -30 -95.333 -45 -180 -45c-78.667 0 -134 13 -166 39c-14.667 12.667 -25.834 28.5 -33.501 47.5s-11.5 42.167 -11.5 69.5l2 15h79c0 -41.333 9.66699 -69.666 29 -84.999c16.667 -14.667 52.334 -22 107.001 -22
c56.667 0 94.667 8 114 24c23.333 16 35 49 35 99l-2 111c-18 -46.667 -74 -70 -168 -70c-29.333 0 -59.333 4 -90 12s-54 21.667 -70 41c-17.333 23.333 -30 52 -38 86c-4 21.333 -6.83301 40.666 -8.5 57.999s-2.5 38.333 -2.5 63c0 36 0.5 62.167 1.5 78.5
s3.83301 35.833 8.5 58.5c8.66699 42 22.334 71.667 41.001 89c34 34 88 51 162 51c48 0 83.333 -5.66699 106 -17c22.667 -10 42 -29 58 -57v68z" />
    <glyph glyph-name="h" unicode="h" horiz-adv-x="580" 
d="M146 316l-0.00195312 -316.001h-78v750h78v-289c22 46.667 77.667 70 167 70c38.667 0 70.334 -3.33301 95.001 -10s44.334 -17 59.001 -31c28.667 -27.333 43 -73.333 43 -138v-352h-78v355c0 44 -9.66699 73.667 -29 89s-54 23 -104 23c-56.667 0 -97 -11 -121 -33
c-21.333 -23.333 -32 -62.666 -32 -117.999z" />
    <glyph glyph-name="i" unicode="i" horiz-adv-x="215" 
d="M66 750h80v-88h-80v88zM66 525h80v-525h-80v525z" />
    <glyph glyph-name="j" unicode="j" horiz-adv-x="209" 
d="M66 750h80v-88h-80v88zM-6 -205v60h14c38.667 0 58 24.333 58 73v17v580h80v-588c0 -64.667 -13.667 -106.667 -41 -126c-16.667 -13.333 -40 -20 -70 -20c-12 0 -25.667 1.33301 -41 4z" />
    <glyph glyph-name="k" unicode="k" horiz-adv-x="486" 
d="M66 750h80v-434h32l189 209h98l-225 -242l266 -283h-104l-224 252h-32v-252h-80v750z" />
    <glyph glyph-name="l" unicode="l" horiz-adv-x="215" 
d="M66 750h80v-750h-80v750z" />
    <glyph glyph-name="m" unicode="m" horiz-adv-x="920" 
d="M145 443c26.667 58.667 83.667 88 171 88c44 0 81.333 -7.16699 112 -21.5s49.334 -36.5 56.001 -66.5c14.667 28.667 37.167 50.5 67.5 65.5s69.166 22.5 116.499 22.5c72 0 121 -15.5 147 -46.5s39 -76.5 39 -136.5v-348h-81v338c0 34 -3.16699 60 -9.5 78
s-17.5 31 -33.5 39s-39.333 12 -70 12c-52 0 -92 -8.66699 -120 -26s-42 -54.333 -42 -111v-330h-78v348c0 48 -7.16699 79.833 -21.5 95.5s-46.833 23.5 -97.5 23.5c-104 0 -156 -51.333 -156 -154v-313h-81v525h81v-82z" />
    <glyph glyph-name="n" unicode="n" horiz-adv-x="580" 
d="M146 461c22 46.667 74.333 69.999 157 69.999c76 0 129.5 -13.167 160.5 -39.5s46.5 -71.166 46.5 -134.499v-357h-78v355c0 44 -9.5 73.667 -28.5 89s-51.833 23 -98.5 23c-32 0 -57 -2 -75 -6c-17.333 -2.66699 -34 -11.667 -50 -27c-22.667 -20.667 -34 -61 -34 -121
v-313h-78v525h78v-64z" />
    <glyph glyph-name="o" unicode="o" horiz-adv-x="570" 
d="M283 467l-24.999 -0.000976562c-48 0 -80.667 -9.66699 -98 -29c-8 -8.66699 -14.833 -26.334 -20.5 -53.001s-8.5 -59.334 -8.5 -98.001l2 -23v-12c0 -5.33301 -0.666992 -10.666 -2 -15.999c0 -16 0.666992 -32 2 -48s2.83301 -32.167 4.5 -48.5
s7.16699 -31.5 16.5 -45.5c16.667 -24.667 61 -37 133 -37c65.333 0 105.666 9.66699 120.999 29c18.667 22 28 68.333 28 139v39v16v13v11v44c-2 10.667 -3.33301 18.334 -4 23.001c0 13.333 -1.83301 25.333 -5.5 36s-9.16699 20.334 -16.5 29.001
c-10 12.667 -26 21 -48 25s-48.333 6 -79 6zM270.001 530.999c56.667 0 98.665 -2.66797 125.998 -8.00098c30.667 -4.66699 55 -17 73 -37c21.333 -21.333 34.833 -51 40.5 -89s8.5 -85 8.5 -141c0 -55.333 -3.16699 -100.833 -9.5 -136.5s-21.5 -64.5 -45.5 -86.5
c-19.333 -17.333 -44.833 -28.166 -76.5 -32.499s-69.5 -6.5 -113.5 -6.5s-81.667 4 -113 12s-56 25 -74 51c-23.333 34.667 -35 97 -35 187c0 56.667 2 103 6 139s14.333 65.333 31 88c18.667 23.333 42.334 39 71.001 47c14.667 3.33301 31.334 6.33301 50.001 9
s39 4 61 4z" />
    <glyph glyph-name="p" unicode="p" horiz-adv-x="572" 
d="M145 -229l-81.0029 0.000976562v754h81v-64l1 -4c10 23.333 29.5 41.5 58.5 54.5s62.5 19.5 100.5 19.5c18.667 0 35.834 -0.666992 51.501 -2s30.834 -4.33301 45.501 -9c28 -8 49.667 -20 65 -36c24.667 -27.333 39.834 -59.833 45.501 -97.5s8.5 -85.167 8.5 -142.5
c0 -96.667 -17.333 -164.334 -52 -203.001c-28 -31.333 -81.333 -47 -160 -47c-19.333 0 -37 1 -53 3s-31.667 5.66699 -47 11c-29.333 9.33301 -50.333 27 -63 53zM292.997 57.001c58 0 96.832 11.999 116.499 35.999s29.5 77.667 29.5 161c0 98.667 -9.66699 158 -29 178
c-20 23.333 -57.667 35 -113 35c-65.333 0 -107.666 -13 -126.999 -39c-8 -11.333 -14.5 -28.166 -19.5 -50.499s-7.5 -49.833 -7.5 -82.5l2 -37c0 -76 8.33301 -126.333 25 -151c22 -33.333 63 -50 123 -50z" />
    <glyph glyph-name="q" unicode="q" horiz-adv-x="574" 
d="M428 59c-22 -43.333 -74.332 -64.998 -156.999 -64.998c-40.667 0 -73.834 3 -99.501 9s-48.167 18.667 -67.5 38c-21.333 23.333 -35.5 55.666 -42.5 96.999s-10.5 85.666 -10.5 132.999c0 51.333 3.5 93.833 10.5 127.5s21.5 61.5 43.5 83.5
c16 16 38.5 28.167 67.5 36.5s61.833 12.5 98.5 12.5c76.667 0 129 -24 157 -72v4l2 62h78v-754h-80v288zM283.001 57.002c62.667 0 103.667 16.665 123 49.998c13.333 23.333 20 63.333 20 120v72c0 62.667 -8.66699 105.667 -26 129c-18 26 -61 39 -129 39
c-54 0 -90.333 -11.667 -109 -35c-9.33301 -14.667 -17 -40 -23 -76c-4 -34 -6 -67.333 -6 -100l2 -58c0 -23.333 1.83301 -43.666 5.5 -60.999s10.167 -31.666 19.5 -42.999c20.667 -24.667 61.667 -37 123 -37z" />
    <glyph glyph-name="r" unicode="r" horiz-adv-x="441" 
d="M131 459c17.333 29.333 37.665 48.334 60.998 57.001c11.333 4 25 7.5 41 10.5s31.333 4.5 46 4.5c61.333 0 103 -17.333 125 -52c16 -26 24 -65.333 24 -118v-17h-74c0 48.667 -4 80 -12 94c-12 19.333 -39.333 29 -82 29c-19.333 0 -36.666 -2.5 -51.999 -7.5
s-28.666 -12.5 -39.999 -22.5c-20.667 -18.667 -31 -56.334 -31 -113.001v-324h-80v525h78z" />
    <glyph glyph-name="s" unicode="s" horiz-adv-x="537" 
d="M484 389l-82 0.00195312c0 31.333 -5 50.666 -15 57.999c-14.667 9.33301 -46 14 -94 14h-33c-56 0 -92.667 -5.33301 -110 -16c-12.667 -7.33301 -19 -28 -19 -62c0 -28.667 5.33301 -48.334 16 -59.001c9.33301 -8 26 -13.667 50 -17l46 -2l50 -2
c78.667 0 132.5 -11.5 161.5 -34.5s43.5 -63.167 43.5 -120.5c0 -47.333 -10 -82 -30 -104s-45.667 -35.833 -77 -41.5s-70.666 -8.5 -117.999 -8.5c-66 0 -120.5 7.5 -163.5 22.5s-64.5 48.5 -64.5 100.5v49h82v-20l5 -48c2 -6 7.33301 -12 16 -18
c10 -5.33301 24.333 -9.33301 43 -12l53 -5h57c39.333 0 68.333 5.33301 87 16s28 32.667 28 66c0 32 -6 54.667 -18 68c-6.66699 7.33301 -17.834 12 -33.501 14s-40.834 3 -75.501 3c-28.667 0 -54 0.833008 -76 2.5s-44.667 4.33398 -68 8.00098s-44.833 16 -64.5 37
s-29.5 56.833 -29.5 107.5c0 45.333 9.5 78.333 28.5 99s40.5 33.667 64.5 39c9.33301 2 25.5 3.83301 48.5 5.5s45.5 2.5 67.5 2.5c20.667 0 39.834 -0.333008 57.501 -1s37.5 -2.33398 59.5 -5.00098s41.667 -9.66699 59 -21c32 -20.667 48 -59 48 -115z" />
    <glyph glyph-name="t" unicode="t" horiz-adv-x="365" 
d="M63 158v303h-69v64h69v127h80v-127h203v-64h-203v-322c0 -34 4.33301 -55.167 13 -63.5s27.667 -14.5 57 -18.5c40 0 64 11.667 72 35c4 12 6 30 6 54v40h74v-26c0 -54 -9 -93.667 -27 -119c-22 -31.333 -64.333 -47 -127 -47c-57.333 0 -96.333 10.333 -117 31
s-31 65 -31 133z" />
    <glyph glyph-name="u" unicode="u" horiz-adv-x="570" 
d="M420 70l-1.99902 -2c-12 -27.333 -33.333 -47 -64 -59c-30 -10 -65.333 -15 -106 -15c-63.333 0 -109.833 14.667 -139.5 44s-44.5 74 -44.5 134v353h81v-345c0 -50 8 -83 24 -99s48.333 -24 97 -24c29.333 0 54.666 2.66699 75.999 8c20 4 37 14.333 51 31
c18 20 27 56.333 27 109v320h80v-525h-80v70z" />
    <glyph glyph-name="v" unicode="v" horiz-adv-x="453" 
d="M457 525l-176 -525h-111l-174 525h80l149 -466l146 466h86z" />
    <glyph glyph-name="w" unicode="w" horiz-adv-x="754" 
d="M604 -2l-116 2l-111 469l-115 -469h-117l-141 525h80l119 -470l117 470h114l113 -470h4l119 470h82z" />
    <glyph glyph-name="x" unicode="x" horiz-adv-x="453" 
d="M16 525h88l123 -193l119 193h92l-168 -252l187 -273h-94l-136 211l-137 -211h-94l190 273z" />
    <glyph glyph-name="y" unicode="y" horiz-adv-x="438" 
d="M213 0l-26.998 -0.000976562l-101 279l-36 103c-18.667 52.667 -36.334 100.334 -53.001 143.001h80l162 -468l121 468h82l-78 -285l-10 -43.5c-2 -8.33301 -6.33301 -23.833 -13 -46.5l-30 -115l-37 -131c-12 -41.333 -31.333 -74.333 -58 -99s-59.334 -37 -98.001 -37
l-22 2l-19 1v61c10 -2 19 -3 27 -3c17.333 0 33 5.33301 47 16c17.333 14.667 30.333 37.667 39 69z" />
    <glyph glyph-name="z" unicode="z" horiz-adv-x="453" 
d="M51 525h379v-74l-313 -388l313 1v-64h-407v72l315 389h-287v64z" />
    <glyph glyph-name="braceleft" unicode="{" horiz-adv-x="334" 
d="M291 756l-0.000976562 -74h-41c-26 0 -39 -19 -39 -57v-170c0 -64 -24 -114.667 -72 -152c48 -38 72 -89.667 72 -155v-168c0 -37.333 13 -56 39 -56h41v-74h-86c-20 0 -38.333 12.667 -55 38s-25 51 -25 77v170c0 44 -6.16699 76.167 -18.5 96.5
s-32.166 31.833 -59.499 34.5v76c32 3.33301 53 16 63 38s15 52.333 15 91v168c0 26 8 52 24 78s36.667 39 62 39h80z" />
    <glyph glyph-name="bar" unicode="|" horiz-adv-x="260" 
d="M168 750v-750h-76v750h76z" />
    <glyph glyph-name="braceright" unicode="}" horiz-adv-x="334" 
d="M43 -150l0.000976562 73.9951h12h8c3.33301 1.33301 5.66602 2 6.99902 2h26c18 0 27 20 27 60v80v26v17c-1.33301 6.66699 -2 11.334 -2 14.001c0 14 0.666992 27.333 2 40s3.33301 26.667 6 42s9.66699 31.833 21 49.5s27 33.834 47 48.501
c-28 18.667 -47.667 43 -59 73c-4.66699 14.667 -8.66699 31.167 -12 49.5s-5 37.166 -5 56.499l2 67v62c0 40 -7.66699 63 -23 69l-6 1l-10 1h-41v74h82c18.667 0 35.667 -10.667 51 -32s25 -42 29 -62l2 -53v-70v-20v-14c-1.33301 -6 -2 -10.333 -2 -13l3 -48
c0 -9.33301 0.5 -16.666 1.5 -21.999s4 -14.666 9 -27.999s12.5 -25.333 22.5 -36c10 -9.33301 24.667 -15.333 44 -18v-74c-29.333 -2.66699 -50 -15.667 -62 -39c-5.33301 -12 -9.33301 -24.5 -12 -37.5s-4 -29.167 -4 -48.5v-88v-74c0 -21.333 -2 -37.666 -6 -48.999
c-8 -27.333 -20.667 -47.666 -38 -60.999c-14.667 -12.667 -28.667 -19 -42 -19h-78z" />
    <glyph glyph-name="asciitilde" unicode="~" horiz-adv-x="584" 
d="M49 215c0 25.333 2.83301 47.666 8.5 66.999s14.167 37 25.5 53c20 29.333 47.667 44 83 44c30.667 0 58.667 -9.66699 84 -29l104 -63c26.667 -15.333 47.334 -23 62.001 -23c31.333 0 47 22.667 47 68v18h70c0 -22.667 -2.16699 -42.167 -6.5 -58.5
s-12.5 -33.833 -24.5 -52.5c-22 -34 -51.333 -51 -88 -51c-30.667 0 -61.334 10.333 -92.001 31l-99 62c-6.66699 6.66699 -14.667 12.334 -24 17.001s-18.333 7.66699 -27 9c-19.333 0 -33 -9.83301 -41 -29.5s-12 -40.5 -12 -62.5h-70z" />
    <glyph glyph-name="nonbreakingspace" unicode="&#xa0;" horiz-adv-x="500" 
 />
    <glyph glyph-name="exclamdown" unicode="&#xa1;" horiz-adv-x="270" 
d="M88 525h88v-103h-88v103zM96 318h72l4 -205l2 -195l2 -145h-88l6 405z" />
    <glyph glyph-name="exclamdown" unicode="&#x40e;" horiz-adv-x="270" 
d="M88 525h88v-103h-88v103zM96 318h72l4 -205l2 -195l2 -145h-88l6 405z" />
    <glyph glyph-name="cent" unicode="&#xa2;" 
d="M299 613l0.000976562 75.001h66v-75c30.667 0 58 -3.66699 82 -11c22 -5.33301 41.667 -16 59 -32c27.333 -24.667 41 -68.667 41 -132h-80v23c0 27.333 -5.33301 47.333 -16 60c-6.66699 8.66699 -17.167 15.5 -31.5 20.5s-32.5 7.5 -54.5 7.5v-408c46.667 0 78 9 94 27
c13.333 15.333 20 44.666 20 87.999v17h80c0 -77.333 -15 -130.666 -45 -159.999c-30.667 -24.667 -80.334 -37 -149.001 -37v-82h-66v82c-66 0 -114.333 15.667 -145 47c-13.333 13.333 -25 32 -35 56c-3.33301 10 -6.5 21.167 -9.5 33.5s-5.5 26.166 -7.5 41.499l-4 90
c0 88.667 9.66699 150.334 29 185.001c16 31.333 39.167 53.166 69.5 65.499s64.5 18.5 102.5 18.5zM299.001 549.001c-45.333 0 -77.332 -13.6689 -95.999 -41.002c-7.33301 -12.667 -12.666 -32.667 -15.999 -60c0 -21.333 -0.333008 -41.666 -1 -60.999
s-1.33398 -37.666 -2.00098 -54.999c0 -86 11 -140 33 -162c17.333 -15.333 44.666 -25 81.999 -29v408z" />
    <glyph glyph-name="cent" unicode="&#x45e;" 
d="M299 613l0.000976562 75.001h66v-75c30.667 0 58 -3.66699 82 -11c22 -5.33301 41.667 -16 59 -32c27.333 -24.667 41 -68.667 41 -132h-80v23c0 27.333 -5.33301 47.333 -16 60c-6.66699 8.66699 -17.167 15.5 -31.5 20.5s-32.5 7.5 -54.5 7.5v-408c46.667 0 78 9 94 27
c13.333 15.333 20 44.666 20 87.999v17h80c0 -77.333 -15 -130.666 -45 -159.999c-30.667 -24.667 -80.334 -37 -149.001 -37v-82h-66v82c-66 0 -114.333 15.667 -145 47c-13.333 13.333 -25 32 -35 56c-3.33301 10 -6.5 21.167 -9.5 33.5s-5.5 26.166 -7.5 41.499l-4 90
c0 88.667 9.66699 150.334 29 185.001c16 31.333 39.167 53.166 69.5 65.499s64.5 18.5 102.5 18.5zM299.001 549.001c-45.333 0 -77.332 -13.6689 -95.999 -41.002c-7.33301 -12.667 -12.666 -32.667 -15.999 -60c0 -21.333 -0.333008 -41.666 -1 -60.999
s-1.33398 -37.666 -2.00098 -54.999c0 -86 11 -140 33 -162c17.333 -15.333 44.666 -25 81.999 -29v408z" />
    <glyph glyph-name="sterling" unicode="&#xa3;" 
d="M639 525l-80.001 0.00292969v18c0 55.333 -8 91.666 -24 108.999c-10.667 11.333 -25.334 19 -44.001 23c-2.66699 0.666992 -13.167 2 -31.5 4s-36.833 3 -55.5 3l-56 -1c-19.333 0 -36.666 -2 -51.999 -6c-14 -2 -26.667 -7.66699 -38 -17
c-19.333 -14 -29 -58.333 -29 -133v-162h212v-70h-212v-80v-22c0 -59.333 -21 -101 -63 -125l2 -3l484 9v-72h-582v64c29.333 2.66699 48.833 17.167 58.5 43.5s14.5 58.166 14.5 95.499v90h-92v70h92v174c0 83.333 16.667 140.666 50 171.999
c19.333 18 40.333 29.5 63 34.5s42.5 8.33301 59.5 10s37.5 2.5 61.5 2.5c54.667 0 99.334 -3.66699 134.001 -11c37.333 -6 65 -18 83 -36c30 -28 45 -89.333 45 -184z" />
    <glyph glyph-name="sterling" unicode="&#x408;" 
d="M639 525l-80.001 0.00292969v18c0 55.333 -8 91.666 -24 108.999c-10.667 11.333 -25.334 19 -44.001 23c-2.66699 0.666992 -13.167 2 -31.5 4s-36.833 3 -55.5 3l-56 -1c-19.333 0 -36.666 -2 -51.999 -6c-14 -2 -26.667 -7.66699 -38 -17
c-19.333 -14 -29 -58.333 -29 -133v-162h212v-70h-212v-80v-22c0 -59.333 -21 -101 -63 -125l2 -3l484 9v-72h-582v64c29.333 2.66699 48.833 17.167 58.5 43.5s14.5 58.166 14.5 95.499v90h-92v70h92v174c0 83.333 16.667 140.666 50 171.999
c19.333 18 40.333 29.5 63 34.5s42.5 8.33301 59.5 10s37.5 2.5 61.5 2.5c54.667 0 99.334 -3.66699 134.001 -11c37.333 -6 65 -18 83 -36c30 -28 45 -89.333 45 -184z" />
    <glyph glyph-name="currency" unicode="&#xa4;" 
d="M338 453c-34 0 -61.668 -11.501 -83.001 -34.501s-32 -51.167 -32 -84.5c0 -32 10.667 -59.5 32 -82.5s48.333 -34.5 81 -34.5c34.667 0 63.834 11.833 87.501 35.5s35.5 52.834 35.5 87.501c0 30 -12.333 56.333 -37 79s-52.667 34 -84 34zM185.999 233.999
c-20 28 -29.999 62.001 -29.999 102.001c0 47.333 11.667 80.666 35 99.999l-58 60l55 59l58 -61c27.333 14 58.666 22.667 93.999 26c33.333 0 67 -8.66699 101 -26l55 55l61 -61l-59 -54c16.667 -24 25 -56 25 -96c0 -34.667 -9.66699 -66.667 -29 -96l57 -58l-59 -55
l-53 55c-36 -22.667 -71 -34 -105 -34c-28.667 0 -58 8.66699 -88 26l-53 -51l-56 59z" />
    <glyph glyph-name="yen" unicode="&#xa5;" 
d="M37 750h100l209 -352l209 352h97l-148 -238h103v-71h-146l-68 -111h214v-70h-224l2 -260h-86v260h-217v70h207l-68 111h-139v71h100z" />
    <glyph glyph-name="yen" unicode="&#x490;" 
d="M37 750h100l209 -352l209 352h97l-148 -238h103v-71h-146l-68 -111h214v-70h-224l2 -260h-86v260h-217v70h207l-68 111h-139v71h100z" />
    <glyph glyph-name="brokenbar" unicode="&#xa6;" horiz-adv-x="176" 
d="M92 350h76v-350h-76v350zM168 420h-76v330h76v-330z" />
    <glyph glyph-name="section" unicode="&#xa7;" 
d="M158 303c0 -32 7.99902 -54.999 23.999 -68.999c6.66699 -5.33301 23.334 -13 50.001 -23l161 -45c28 -8 48.667 -12 62 -12c48 0 72 35.333 72 106c0 25.333 -7 44.666 -21 57.999c-13.333 11.333 -35 22 -65 32l-173 50c-20 4 -35.667 6 -47 6
c-42 0 -63 -34.333 -63 -103zM587.999 557.001h-74.0059v13c0 46 -8 76.667 -24 92c-10 10.667 -24.333 17 -43 19l-99 5h-41c-43.333 0 -73.833 -6 -91.5 -18s-26.5 -41.333 -26.5 -88c0 -44 8.66699 -71.333 26 -82c15.333 -11.333 33 -18.333 53 -21l105 -30l136 -40
c22 -6 40.333 -15.333 55 -28c26.667 -20.667 40 -56 40 -106c0 -38 -5 -69.5 -15 -94.5s-30.667 -42.833 -62 -53.5c52 -18 78 -66.667 78 -146c0 -84 -18 -139 -54 -165c-18.667 -11.333 -41 -19.666 -67 -24.999c-24 -4 -53.333 -6 -88 -6l-52 -2h-35
c-75.333 0 -130 11 -164 33c-38 27.333 -57 86 -57 176h74l2 -40c0 -19.333 1.66699 -33.666 5 -42.999c2.66699 -10.667 8.33398 -19.334 17.001 -26.001c22.667 -19.333 76 -29 160 -29h47c45.333 0 77.666 5 96.999 15c12 7.33301 21.833 18.833 29.5 34.5
s11.5 35.5 11.5 59.5c0 50 -10.333 82 -31 96c-15.333 9.33301 -53.166 21.333 -113.499 36s-96.166 24 -107.499 28l-61 16c-15.333 4 -27 7.16699 -35 9.5s-17.667 5.83301 -29 10.5c-17.333 6.66699 -31.5 15.667 -42.5 27s-18.333 26.833 -22 46.5
s-5.5 43.167 -5.5 70.5c0 44 7 76.667 21 98c14.667 20 36.334 32.333 65.001 37c-38 18 -57 61.333 -57 130c0 38 3.83301 70 11.5 96s18.834 45.667 33.501 59c10 9.33301 22.333 16.333 37 21s31.334 8 50.001 10l49 3l60 1c32.667 0 57.334 -0.666992 74.001 -2
s37 -3.83301 61 -7.5s44.667 -14.167 62 -31.5c24.667 -24.667 37 -77.334 37 -158.001z" />
    <glyph glyph-name="dieresis" unicode="&#xa8;" horiz-adv-x="561" 
d="M41 0v750h482v-74h-398v-256h381v-70h-381v-276h398v-74h-482zM336 879h88v-74h-88v74zM135 879h88v-74h-88v74z" />
    <glyph glyph-name="dieresis" unicode="&#x401;" horiz-adv-x="561" 
d="M41 0v750h482v-74h-398v-256h381v-70h-381v-276h398v-74h-482zM336 879h88v-74h-88v74zM135 879h88v-74h-88v74z" />
    <glyph glyph-name="copyright" unicode="&#xa9;" horiz-adv-x="779" 
d="M525 305l59.002 -0.00195312c-6 -44.667 -26 -80.667 -60 -108s-74 -41 -120 -41c-16.667 0 -33.167 2 -49.5 6s-32.833 10.667 -49.5 20c-30.667 16.667 -57.334 41.667 -80.001 75c-10 16.667 -17.833 35.334 -23.5 56.001s-8.5 42 -8.5 64l2 16
c0 20 2.83301 39.167 8.5 57.5s13.834 35.833 24.501 52.5c20 30 45.167 53 75.5 69s63.166 24 98.499 24c47.333 0 87.5 -12 120.5 -36s53.5 -59.667 61.5 -107h-59c-12.667 61.333 -56 92 -130 92c-42.667 0 -76.5 -15.833 -101.5 -47.5s-37.5 -72.5 -37.5 -122.5
c0 -45.333 14 -84.666 42 -117.999s63.333 -50 106 -50c27.333 0 53.666 8 78.999 24s39.333 40.667 42 74zM393.002 694.998c-53.333 0 -105.502 -14.002 -156.502 -42.002s-91.833 -66.5 -122.5 -115.5s-46 -100.5 -46 -154.5c0 -58 13.833 -111.833 41.5 -161.5
s66.334 -90.167 116.001 -121.5s103.5 -47 161.5 -47c54.667 0 107.334 15 158.001 45s90.667 69.833 120 119.5s44 102.834 44 159.501s-14.5 109.334 -43.5 158.001s-68.167 87.5 -117.5 116.5s-101 43.5 -155 43.5zM393 755.996c69.333 0 133.167 -17.666 191.5 -52.999
s104.333 -82.833 138 -142.5s50.5 -123.5 50.5 -191.5c0 -66.667 -17.667 -129 -53 -187s-82.333 -103.833 -141 -137.5s-120.667 -50.5 -186 -50.5c-70.667 0 -135.667 17 -195 51s-105.833 80.167 -139.5 138.5s-50.5 121.5 -50.5 189.5
c0 67.333 16.667 130.666 50 189.999s79.333 106.333 138 141c30 17.333 60.833 30.333 92.5 39s66.5 13 104.5 13z" />
    <glyph glyph-name="ordfeminine" unicode="&#xaa;" horiz-adv-x="664" 
d="M30 230c0 -38 5.66602 -72.1689 16.999 -102.502s25.666 -54.166 42.999 -71.499c29.333 -23.333 55.333 -38.666 78 -45.999s51 -11 85 -11h138c96 0 159.5 16.667 190.5 50s46.5 89 46.5 167v43h-84l-2 -86c-2.66699 -32 -11.167 -54.5 -25.5 -67.5
s-33.5 -21.667 -57.5 -26s-69.333 -6.5 -136 -6.5c-64 0 -103.667 1.33301 -119 4s-31 12 -47 28c-28.667 26 -43 86.333 -43 181v65h276v75h-276v106c0 44.667 9.83301 81.667 29.5 111s45.834 44 78.501 44h146h17c56.667 0 95.334 -8.83301 116.001 -26.5
s31 -54.5 31 -110.5v-29h86v19c0 89.333 -19.667 150 -59 182c-20 16 -41.833 26.5 -65.5 31.5s-68.167 7.5 -133.5 7.5c-25.333 0 -52.5 -0.166992 -81.5 -0.5s-60.167 -0.833008 -93.5 -1.5c-46 0 -83.333 -21.5 -112 -64.5s-43 -99.5 -43 -169.5v-295z" />
    <glyph glyph-name="ordfeminine" unicode="&#x404;" horiz-adv-x="664" 
d="M30 230c0 -38 5.66602 -72.1689 16.999 -102.502s25.666 -54.166 42.999 -71.499c29.333 -23.333 55.333 -38.666 78 -45.999s51 -11 85 -11h138c96 0 159.5 16.667 190.5 50s46.5 89 46.5 167v43h-84l-2 -86c-2.66699 -32 -11.167 -54.5 -25.5 -67.5
s-33.5 -21.667 -57.5 -26s-69.333 -6.5 -136 -6.5c-64 0 -103.667 1.33301 -119 4s-31 12 -47 28c-28.667 26 -43 86.333 -43 181v65h276v75h-276v106c0 44.667 9.83301 81.667 29.5 111s45.834 44 78.501 44h146h17c56.667 0 95.334 -8.83301 116.001 -26.5
s31 -54.5 31 -110.5v-29h86v19c0 89.333 -19.667 150 -59 182c-20 16 -41.833 26.5 -65.5 31.5s-68.167 7.5 -133.5 7.5c-25.333 0 -52.5 -0.166992 -81.5 -0.5s-60.167 -0.833008 -93.5 -1.5c-46 0 -83.333 -21.5 -112 -64.5s-43 -99.5 -43 -169.5v-295z" />
    <glyph glyph-name="guillemotleft" unicode="&#xab;" horiz-adv-x="504" 
d="M393 0l-153 289l135 285l59 -35l-118 -250l131 -254zM207 0l-152 289l136 285l57 -35l-117 -250l131 -254z" />
    <glyph glyph-name="logicalnot" unicode="&#xac;" horiz-adv-x="584" 
d="M49 398h484v-269h-74v195h-410v74z" />
    <glyph glyph-name="registered" unicode="&#xae;" horiz-adv-x="779" 
d="M422 537h-113v-139h117c67.333 0 101 25.667 101 77c0 41.333 -35 62 -105 62zM436 588c58.667 0 98.667 -10.667 120 -32c21.333 -20 32 -47.667 32 -83c0 -42 -13 -72 -39 -90c-26 -19.333 -58 -29 -96 -29l127 -194h-66l-121 188h-84v-188h-61v428h188zM389 695
c-57.333 0 -110.5 -14.1699 -159.5 -42.5029s-88.167 -67.666 -117.5 -117.999s-44 -104.166 -44 -161.499c0 -43.333 8.16699 -83.833 24.5 -121.5s39.833 -72 70.5 -103s64.334 -54.333 101.001 -70s77.667 -23.5 123 -23.5c32 0 60.167 2.5 84.5 7.5
s49.166 14.833 74.499 29.5c49.333 28.667 88.833 68.834 118.5 120.501s44.5 107.167 44.5 166.5c0 43.333 -8 84.5 -24 123.5s-39 73 -69 102s-64.333 51.333 -103 67s-80 23.5 -124 23.5zM396 755.997c52.667 0 101.665 -9.66602 146.998 -28.999
s85.166 -46.333 119.499 -81s61 -76.167 80 -124.5s28.5 -97.833 28.5 -148.5c0 -70 -16.167 -133.333 -48.5 -190s-77.666 -101.5 -135.999 -134.5s-122.833 -52.5 -193.5 -58.5c-70.667 0 -135.667 17.333 -195 52s-106.666 82.667 -141.999 144
c-32 56.667 -48 123 -48 199c0 67.333 18 129.666 54 186.999s83.333 102 142 134c30 16.667 60.833 29.167 92.5 37.5s64.834 12.5 99.501 12.5z" />
    <glyph glyph-name="macron" unicode="&#xaf;" horiz-adv-x="229" 
d="M72 750h84v-750h-84v750zM170 879h88v-74h-88v74zM-31 879h88v-74h-88v74z" />
    <glyph glyph-name="macron" unicode="&#x407;" horiz-adv-x="229" 
d="M72 750h84v-750h-84v750zM170 879h88v-74h-88v74zM-31 879h88v-74h-88v74z" />
    <glyph glyph-name="plusminus" unicode="&#xb1;" horiz-adv-x="584" 
d="M49 373h205v152h76v-152h203v-76h-203v-152h-76v152h-205v76zM49 84h484v-74h-484v74z" />
    <glyph glyph-name="twosuperior" unicode="&#xb2;" horiz-adv-x="414" 
d="M72 482c11.333 9.33301 24.666 16.333 39.999 21l54 11l45 6l38 3c6.66699 0 13.5 0.666992 20.5 2s14 2.83301 21 4.5s13.167 5.5 18.5 11.5c11.333 12.667 17 35.334 17 68.001c0 39.333 -5.66699 63.666 -17 72.999c-13.333 8.66699 -44 13 -92 13h-49
c-30.667 0 -50.334 -7.66699 -59.001 -23c-0.666992 -2.66699 -1.66699 -8.5 -3 -17.5s-2 -18.833 -2 -29.5v-27h-65v21c0 52.667 8.33301 87.334 25 104.001c24 22 75.667 33 155 33c44 0 80 -5 108 -15c28 -8.66699 47.333 -29 58 -61c4 -16 6 -33.667 6 -53
c0 -33.333 -2.16699 -60.833 -6.5 -82.5s-15.166 -39.167 -32.499 -52.5c-22 -16 -62.667 -27 -122 -33c-11.333 0 -22.666 -0.666992 -33.999 -2s-22.833 -2.83301 -34.5 -4.5s-23.667 -7.33398 -36 -17.001s-19.5 -25.167 -21.5 -46.5v-28h287v-60h-352v84
c0 46 11 78.333 33 97z" />
    <glyph glyph-name="twosuperior" unicode="&#x406;" horiz-adv-x="414" 
d="M72 482c11.333 9.33301 24.666 16.333 39.999 21l54 11l45 6l38 3c6.66699 0 13.5 0.666992 20.5 2s14 2.83301 21 4.5s13.167 5.5 18.5 11.5c11.333 12.667 17 35.334 17 68.001c0 39.333 -5.66699 63.666 -17 72.999c-13.333 8.66699 -44 13 -92 13h-49
c-30.667 0 -50.334 -7.66699 -59.001 -23c-0.666992 -2.66699 -1.66699 -8.5 -3 -17.5s-2 -18.833 -2 -29.5v-27h-65v21c0 52.667 8.33301 87.334 25 104.001c24 22 75.667 33 155 33c44 0 80 -5 108 -15c28 -8.66699 47.333 -29 58 -61c4 -16 6 -33.667 6 -53
c0 -33.333 -2.16699 -60.833 -6.5 -82.5s-15.166 -39.167 -32.499 -52.5c-22 -16 -62.667 -27 -122 -33c-11.333 0 -22.666 -0.666992 -33.999 -2s-22.833 -2.83301 -34.5 -4.5s-23.667 -7.33398 -36 -17.001s-19.5 -25.167 -21.5 -46.5v-28h287v-60h-352v84
c0 46 11 78.333 33 97z" />
    <glyph glyph-name="threesuperior" unicode="&#xb3;" horiz-adv-x="414" 
d="M37 447l65.002 0.00390625c0 -37.333 3.16699 -62.166 9.5 -74.499s27.166 -18.5 62.499 -18.5h56c48 0 76.667 3.66699 86 11c12 9.33301 18 31.666 18 66.999v9c0 27.333 -7.83301 45.333 -23.5 54s-38.5 13 -68.5 13h-64v55h56c40.667 0 65.667 3.66699 75 11
c10 9.33301 15 27.666 15 54.999s-3.66699 45.666 -11 54.999c-10 11.333 -48 17 -114 17c-42.667 0 -68.667 -5.66699 -78 -17c-4 -6 -7.33301 -14.667 -10 -26s-4 -26.333 -4 -45h-64c0 29.333 1.33301 50.666 4 63.999c2 15.333 8.66699 30 20 44s28 23.333 50 28
c11.333 2 24.5 3.66699 39.5 5s32.5 2 52.5 2c78.667 0 128.667 -8.66699 150 -26s32 -47 32 -89c0 -36 -6 -62.333 -18 -79s-33.333 -26.334 -64 -29.001c35.333 -2 60.666 -12.333 75.999 -31c10 -16 15 -40.667 15 -74c0 -54.667 -13.667 -90.667 -41 -108
c-23.333 -15.333 -68 -23 -134 -23c-28 0 -53.5 1.5 -76.5 4.5s-42.5 6.83301 -58.5 11.5c-27.333 8 -44.333 31.333 -51 70c0 6 -0.666992 10.667 -2 14l-2 17z" />
    <glyph glyph-name="threesuperior" unicode="&#x456;" horiz-adv-x="414" 
d="M37 447l65.002 0.00390625c0 -37.333 3.16699 -62.166 9.5 -74.499s27.166 -18.5 62.499 -18.5h56c48 0 76.667 3.66699 86 11c12 9.33301 18 31.666 18 66.999v9c0 27.333 -7.83301 45.333 -23.5 54s-38.5 13 -68.5 13h-64v55h56c40.667 0 65.667 3.66699 75 11
c10 9.33301 15 27.666 15 54.999s-3.66699 45.666 -11 54.999c-10 11.333 -48 17 -114 17c-42.667 0 -68.667 -5.66699 -78 -17c-4 -6 -7.33301 -14.667 -10 -26s-4 -26.333 -4 -45h-64c0 29.333 1.33301 50.666 4 63.999c2 15.333 8.66699 30 20 44s28 23.333 50 28
c11.333 2 24.5 3.66699 39.5 5s32.5 2 52.5 2c78.667 0 128.667 -8.66699 150 -26s32 -47 32 -89c0 -36 -6 -62.333 -18 -79s-33.333 -26.334 -64 -29.001c35.333 -2 60.666 -12.333 75.999 -31c10 -16 15 -40.667 15 -74c0 -54.667 -13.667 -90.667 -41 -108
c-23.333 -15.333 -68 -23 -134 -23c-28 0 -53.5 1.5 -76.5 4.5s-42.5 6.83301 -58.5 11.5c-27.333 8 -44.333 31.333 -51 70c0 6 -0.666992 10.667 -2 14l-2 17z" />
    <glyph glyph-name="acute" unicode="&#xb4;" horiz-adv-x="338" 
d="M74 629l149 113l39 -53l-160 -101z" />
    <glyph glyph-name="acute" unicode="&#x491;" horiz-adv-x="338" 
d="M74 629l149 113l39 -53l-160 -101z" />
    <glyph glyph-name="mu" unicode="&#xb5;" horiz-adv-x="570" 
d="M422 213l0.00195312 311.999h80v-525h-80v68c-22.667 -49.333 -78 -74 -166 -74c-48.667 0 -85.334 6.66699 -110.001 20v-243h-80v754h80v-349c0 -26 2 -46.667 6 -62s10.667 -26.666 20 -33.999c15.333 -15.333 42.666 -23 81.999 -23c68 0 114.333 12.333 139 37
c19.333 19.333 29 53 29 101v18z" />
    <glyph glyph-name="paragraph" unicode="&#xb6;" 
d="M244 680c-52 0 -86.333 -9.33203 -103 -27.999c-9.33301 -10 -15.333 -24.333 -18 -43l-4 -70c0 -16.667 0.333008 -32.167 1 -46.5s2.33398 -29.833 5.00098 -46.5s9.66699 -33.334 21 -50.001c8 -10 20.333 -18.333 37 -25c17.333 -5.33301 33.666 -8 48.999 -8h184
v317h-172zM240 750.001l416 0.000976562v-959h-76v889h-88v-889h-76v502h-187c-68 0 -117.667 17.667 -149 53s-47 93.666 -47 174.999c0 86 15.667 144.667 47 176c34 35.333 87.333 53 160 53z" />
    <glyph glyph-name="cedilla" unicode="&#xb8;" horiz-adv-x="564" 
d="M430 309c0 68.667 -8.66699 112.667 -26 132c-14 17.333 -50.333 26 -109 26h-16c-30.667 0 -55.667 -2.66699 -75 -8c-18 -2.66699 -32.667 -10.334 -44 -23.001c-8 -10.667 -14.5 -26.667 -19.5 -48s-7.5 -47.666 -7.5 -78.999h297zM512 336v-41.0029v-51h-379v-31v-8
c0 -38.667 2.66699 -67.667 8 -87c4 -18 15.667 -33.333 35 -46c12 -5.33301 24.667 -9 38 -11l81 -4h11c27.333 0 49.666 1.33301 66.999 4s31.5 9.5 42.5 20.5s16.5 36.5 16.5 76.5h80c0 -60.667 -13.667 -103 -41 -127c-19.333 -15.333 -43.666 -25.666 -72.999 -30.999
c-28 -4 -63.667 -6 -107 -6c-100.667 0 -165.834 18.333 -195.501 55s-44.5 109.667 -44.5 219c0 55.333 4.33301 100.333 13 135s21.834 60.834 39.501 78.501s42.667 30.334 75 38.001s68.5 11.5 108.5 11.5c81.333 0 138 -13 170 -39c36.667 -31.333 55 -83.333 55 -156z
M339 651.997h88v-74h-88v74zM138 651.997h88v-74h-88v74z" />
    <glyph glyph-name="cedilla" unicode="&#x451;" horiz-adv-x="564" 
d="M430 309c0 68.667 -8.66699 112.667 -26 132c-14 17.333 -50.333 26 -109 26h-16c-30.667 0 -55.667 -2.66699 -75 -8c-18 -2.66699 -32.667 -10.334 -44 -23.001c-8 -10.667 -14.5 -26.667 -19.5 -48s-7.5 -47.666 -7.5 -78.999h297zM512 336v-41.0029v-51h-379v-31v-8
c0 -38.667 2.66699 -67.667 8 -87c4 -18 15.667 -33.333 35 -46c12 -5.33301 24.667 -9 38 -11l81 -4h11c27.333 0 49.666 1.33301 66.999 4s31.5 9.5 42.5 20.5s16.5 36.5 16.5 76.5h80c0 -60.667 -13.667 -103 -41 -127c-19.333 -15.333 -43.666 -25.666 -72.999 -30.999
c-28 -4 -63.667 -6 -107 -6c-100.667 0 -165.834 18.333 -195.501 55s-44.5 109.667 -44.5 219c0 55.333 4.33301 100.333 13 135s21.834 60.834 39.501 78.501s42.667 30.334 75 38.001s68.5 11.5 108.5 11.5c81.333 0 138 -13 170 -39c36.667 -31.333 55 -83.333 55 -156z
M339 651.997h88v-74h-88v74zM138 651.997h88v-74h-88v74z" />
    <glyph glyph-name="onesuperior" unicode="&#xb9;" horiz-adv-x="414" 
d="M268 301h-65v406l-125 -127l-33 41l133 135h90v-455z" />
    <glyph glyph-name="onesuperior" unicode="&#x2116;" horiz-adv-x="414" 
d="M268 301h-65v406l-125 -127l-33 41l133 135h90v-455z" />
    <glyph glyph-name="ordmasculine" unicode="&#xba;" horiz-adv-x="547" 
d="M46 256c0 -67.333 3 -114.668 9 -142.001s19.333 -51.666 40 -72.999c20.667 -20 43.5 -33.167 68.5 -39.5s61.833 -9.5 110.5 -9.5c84 0 142.833 13.5 176.5 40.5s50.5 71.5 50.5 133.5v23h-78v-17c0 -49.333 -8 -81.333 -24 -96c-12.667 -11.333 -39 -17 -79 -17h-38
c-62.667 0 -103.667 9 -123 27c-10.667 10.667 -19.5 26.167 -26.5 46.5s-10.5 45.5 -10.5 75.5v41h195v56h-196c0 7.33301 0.166992 16 0.5 26s2 22.333 5 37s5.16699 24 6.5 28c4.66699 16 12 29.333 22 40c13.333 13.333 27.166 21.833 41.499 25.5s36.5 5.5 66.5 5.5h19
c52 0 87.333 -6.66699 106 -20c16.667 -14.667 25 -42 25 -82v-11h80c0 68.667 -17 116 -51 142c-31.333 23.333 -83.333 35 -156 35c-71.333 0 -125.166 -9.5 -161.499 -28.5s-59.5 -53.833 -69.5 -104.5c-6 -30 -9 -77.333 -9 -142z" />
    <glyph glyph-name="ordmasculine" unicode="&#x454;" horiz-adv-x="547" 
d="M46 256c0 -67.333 3 -114.668 9 -142.001s19.333 -51.666 40 -72.999c20.667 -20 43.5 -33.167 68.5 -39.5s61.833 -9.5 110.5 -9.5c84 0 142.833 13.5 176.5 40.5s50.5 71.5 50.5 133.5v23h-78v-17c0 -49.333 -8 -81.333 -24 -96c-12.667 -11.333 -39 -17 -79 -17h-38
c-62.667 0 -103.667 9 -123 27c-10.667 10.667 -19.5 26.167 -26.5 46.5s-10.5 45.5 -10.5 75.5v41h195v56h-196c0 7.33301 0.166992 16 0.5 26s2 22.333 5 37s5.16699 24 6.5 28c4.66699 16 12 29.333 22 40c13.333 13.333 27.166 21.833 41.499 25.5s36.5 5.5 66.5 5.5h19
c52 0 87.333 -6.66699 106 -20c16.667 -14.667 25 -42 25 -82v-11h80c0 68.667 -17 116 -51 142c-31.333 23.333 -83.333 35 -156 35c-71.333 0 -125.166 -9.5 -161.499 -28.5s-59.5 -53.833 -69.5 -104.5c-6 -30 -9 -77.333 -9 -142z" />
    <glyph glyph-name="guillemotright" unicode="&#xbb;" horiz-adv-x="504" 
d="M55 35l131 254l-118 250l59 35l135 -285l-153 -289zM240 35l131 254l-117 250l57 35l136 -285l-152 -289z" />
    <glyph glyph-name="onequarter" unicode="&#xbc;" horiz-adv-x="1035" 
d="M279 299h-66v402l-125 -127l-33 41l133 135h91v-451zM732 750h71l-510 -750h-66zM916 90v-90h-66v90h-270v72l242 287h94v-299h64v-60h-64zM631 150h219v256z" />
    <glyph glyph-name="onequarter" unicode="&#x458;" horiz-adv-x="1035" 
d="M279 299h-66v402l-125 -127l-33 41l133 135h91v-451zM732 750h71l-510 -750h-66zM916 90v-90h-66v90h-270v72l242 287h94v-299h64v-60h-64zM631 150h219v256z" />
    <glyph glyph-name="onehalf" unicode="&#xbd;" horiz-adv-x="1035" 
d="M670 182c8.66699 8 20.834 14.332 36.501 18.999s30.834 8 45.501 10l55 6c14 0 24.833 0.5 32.5 1.5s18.167 3.16699 31.5 6.5c15.333 2 27 7 35 15c10.667 10.667 16 33 16 67v13c0 29.333 -6 49 -18 59c-6 5.33301 -16 9.33301 -30 12s-34.333 4 -61 4h-25.5
c-7.66699 0 -14.834 -0.666992 -21.501 -2c-31.333 0 -51 -8 -59 -24c-1.33301 -4.66699 -2.83301 -12.167 -4.5 -22.5s-2.83398 -18.5 -3.50098 -24.5l2 -27h-64v21c0 28 1.16699 49.667 3.5 65s8.83301 29 19.5 41c12 12 27.833 19.5 47.5 22.5s37.667 5.16699 54 6.5
s34.5 2 54.5 2c70 0 116.167 -10.167 138.5 -30.5s33.5 -58.166 33.5 -113.499c0 -58.667 -13.5 -98.5 -40.5 -119.5s-67.5 -31.5 -121.5 -31.5c-20 0 -37.667 -1.5 -53 -4.5s-29 -7.16699 -41 -12.5c-20.667 -7.33301 -31 -25 -31 -53v-27l285 -2v-59h-349v82
c0 46.667 11 80 33 100zM270 298.999h-65v404l-125 -129l-33 41l133 135h90v-451zM715 749.999h68l-508 -750h-68z" />
    <glyph glyph-name="onehalf" unicode="&#x405;" horiz-adv-x="1035" 
d="M670 182c8.66699 8 20.834 14.332 36.501 18.999s30.834 8 45.501 10l55 6c14 0 24.833 0.5 32.5 1.5s18.167 3.16699 31.5 6.5c15.333 2 27 7 35 15c10.667 10.667 16 33 16 67v13c0 29.333 -6 49 -18 59c-6 5.33301 -16 9.33301 -30 12s-34.333 4 -61 4h-25.5
c-7.66699 0 -14.834 -0.666992 -21.501 -2c-31.333 0 -51 -8 -59 -24c-1.33301 -4.66699 -2.83301 -12.167 -4.5 -22.5s-2.83398 -18.5 -3.50098 -24.5l2 -27h-64v21c0 28 1.16699 49.667 3.5 65s8.83301 29 19.5 41c12 12 27.833 19.5 47.5 22.5s37.667 5.16699 54 6.5
s34.5 2 54.5 2c70 0 116.167 -10.167 138.5 -30.5s33.5 -58.166 33.5 -113.499c0 -58.667 -13.5 -98.5 -40.5 -119.5s-67.5 -31.5 -121.5 -31.5c-20 0 -37.667 -1.5 -53 -4.5s-29 -7.16699 -41 -12.5c-20.667 -7.33301 -31 -25 -31 -53v-27l285 -2v-59h-349v82
c0 46.667 11 80 33 100zM270 298.999h-65v404l-125 -129l-33 41l133 135h90v-451zM715 749.999h68l-508 -750h-68z" />
    <glyph glyph-name="threequarters" unicode="&#xbe;" horiz-adv-x="1035" 
d="M641 150h218v256zM926 90v-90h-67v90h-267v72l240 287h94v-299h64v-60h-64zM779 750h71l-510 -750h-67zM45 447h64.001c0 -28.667 0.666992 -46.667 2 -54s4 -14 8 -20c6.66699 -12.667 27.667 -19 63 -19h56c48.667 0 76.667 3.66699 84 11c13.333 8 20 30.333 20 67
c0 43.333 -15.667 68 -47 74l-45 2h-64v55h56c39.333 0 64.166 4 74.499 12s15.5 26 15.5 54c0 28.667 -4.66699 47 -14 55c-8 11.333 -45 17 -111 17c-42 0 -68.667 -5.66699 -80 -17c-8 -11.333 -12 -35 -12 -71h-64c0 50.667 7 86 21 106c12 15.333 29.333 25.333 52 30
c11.333 2 24.5 3.66699 39.5 5s32.833 2 53.5 2c78 0 128 -8.66699 150 -26c19.333 -18 29 -47.667 29 -89c0 -37.333 -5 -64 -15 -80c-12 -16 -33.667 -25.333 -65 -28c36.667 -2 61.667 -12.333 75 -31c10 -14 15 -38.667 15 -74c0 -52.667 -13 -88.667 -39 -108
c-23.333 -15.333 -68.333 -23 -135 -23l-49 2c-21.333 0 -41 1.66699 -59 5s-32.833 9.83301 -44.5 19.5s-19.167 18.5 -22.5 26.5l-8 27l-6 37z" />
    <glyph glyph-name="threequarters" unicode="&#x455;" horiz-adv-x="1035" 
d="M641 150h218v256zM926 90v-90h-67v90h-267v72l240 287h94v-299h64v-60h-64zM779 750h71l-510 -750h-67zM45 447h64.001c0 -28.667 0.666992 -46.667 2 -54s4 -14 8 -20c6.66699 -12.667 27.667 -19 63 -19h56c48.667 0 76.667 3.66699 84 11c13.333 8 20 30.333 20 67
c0 43.333 -15.667 68 -47 74l-45 2h-64v55h56c39.333 0 64.166 4 74.499 12s15.5 26 15.5 54c0 28.667 -4.66699 47 -14 55c-8 11.333 -45 17 -111 17c-42 0 -68.667 -5.66699 -80 -17c-8 -11.333 -12 -35 -12 -71h-64c0 50.667 7 86 21 106c12 15.333 29.333 25.333 52 30
c11.333 2 24.5 3.66699 39.5 5s32.833 2 53.5 2c78 0 128 -8.66699 150 -26c19.333 -18 29 -47.667 29 -89c0 -37.333 -5 -64 -15 -80c-12 -16 -33.667 -25.333 -65 -28c36.667 -2 61.667 -12.333 75 -31c10 -14 15 -38.667 15 -74c0 -52.667 -13 -88.667 -39 -108
c-23.333 -15.333 -68.333 -23 -135 -23l-49 2c-21.333 0 -41 1.66699 -59 5s-32.833 9.83301 -44.5 19.5s-19.167 18.5 -22.5 26.5l-8 27l-6 37z" />
    <glyph glyph-name="questiondown" unicode="&#xbf;" horiz-adv-x="215" 
d="M66 525h80v-525h-80v525zM164 652h88v-74h-88v74zM-37 652h88v-74h-88v74z" />
    <glyph glyph-name="questiondown" unicode="&#x457;" horiz-adv-x="215" 
d="M66 525h80v-525h-80v525zM164 652h88v-74h-88v74zM-37 652h88v-74h-88v74z" />
    <glyph glyph-name="Agrave" unicode="&#xc0;" horiz-adv-x="686" 
d="M680 0h-88l-61 158h-379l-58 -158h-88l273 750h119zM508 229l-168 451l-164 -451h332z" />
    <glyph glyph-name="Agrave" unicode="&#x410;" horiz-adv-x="686" 
d="M680 0h-88l-61 158h-379l-58 -158h-88l273 750h119zM508 229l-168 451l-164 -451h332z" />
    <glyph glyph-name="Aacute" unicode="&#xc1;" horiz-adv-x="693" 
d="M637 189c0 -56 -14.332 -102.001 -42.999 -138.001c-26 -34 -69 -51 -129 -51h-404v750h506v-74h-422v-254h257c16.667 0 36.167 -0.166992 58.5 -0.5s43.166 -3.5 62.499 -9.5c26.667 -12.667 48.667 -27 66 -43c14 -13.333 23.667 -26.666 29 -39.999
c12.667 -34 19 -80.667 19 -140zM551.001 206.999c0 94 -36 141 -108 141h-298v-274h287c38 0 65.833 6.5 83.5 19.5s28 28.167 31 45.5s4.5 40 4.5 68z" />
    <glyph glyph-name="Aacute" unicode="&#x411;" horiz-adv-x="693" 
d="M637 189c0 -56 -14.332 -102.001 -42.999 -138.001c-26 -34 -69 -51 -129 -51h-404v750h506v-74h-422v-254h257c16.667 0 36.167 -0.166992 58.5 -0.5s43.166 -3.5 62.499 -9.5c26.667 -12.667 48.667 -27 66 -43c14 -13.333 23.667 -26.666 29 -39.999
c12.667 -34 19 -80.667 19 -140zM551.001 206.999c0 94 -36 141 -108 141h-298v-274h287c38 0 65.833 6.5 83.5 19.5s28 28.167 31 45.5s4.5 40 4.5 68z" />
    <glyph glyph-name="Acircumflex" unicode="&#xc2;" horiz-adv-x="693" 
d="M637 189c0 -56 -14.333 -102.001 -43 -138.001c-26 -34 -69 -51 -129 -51h-404v750h394c57.333 0 98 -15.333 122 -46c12.667 -15.333 22.167 -34 28.5 -56s9.5 -48 9.5 -78s-1.5 -54.167 -4.5 -72.5s-8.5 -34.5 -16.5 -48.5c-14.667 -24 -39 -42.667 -73 -56
c52 -10 84.333 -31.667 97 -65s19 -79.666 19 -138.999zM529 569.999c0 36 -7 62 -21 78c-10 10.667 -23 18 -39 22s-39.667 6 -71 6h-253v-254h257c48 0 81.167 9.66699 99.5 29s27.5 59 27.5 119zM551 206.999c0 94 -36 141 -108 141h-298v-274h287
c38 0 65.833 6.5 83.5 19.5s28 28.167 31 45.5s4.5 40 4.5 68z" />
    <glyph glyph-name="Acircumflex" unicode="&#x412;" horiz-adv-x="693" 
d="M637 189c0 -56 -14.333 -102.001 -43 -138.001c-26 -34 -69 -51 -129 -51h-404v750h394c57.333 0 98 -15.333 122 -46c12.667 -15.333 22.167 -34 28.5 -56s9.5 -48 9.5 -78s-1.5 -54.167 -4.5 -72.5s-8.5 -34.5 -16.5 -48.5c-14.667 -24 -39 -42.667 -73 -56
c52 -10 84.333 -31.667 97 -65s19 -79.666 19 -138.999zM529 569.999c0 36 -7 62 -21 78c-10 10.667 -23 18 -39 22s-39.667 6 -71 6h-253v-254h257c48 0 81.167 9.66699 99.5 29s27.5 59 27.5 119zM551 206.999c0 94 -36 141 -108 141h-298v-274h287
c38 0 65.833 6.5 83.5 19.5s28 28.167 31 45.5s4.5 40 4.5 68z" />
    <glyph glyph-name="Atilde" unicode="&#xc3;" horiz-adv-x="549" 
d="M525 676h-377v-676h-84v750h461v-74z" />
    <glyph glyph-name="Atilde" unicode="&#x413;" horiz-adv-x="549" 
d="M525 676h-377v-676h-84v750h461v-74z" />
    <glyph glyph-name="Adieresis" unicode="&#xc4;" horiz-adv-x="801" 
d="M772 -75h-68v74h-613v-78h-74v134h66l249 697h121l246 -697h73v-130zM611 55l-217 633h-4l-218 -633h439z" />
    <glyph glyph-name="Adieresis" unicode="&#x414;" horiz-adv-x="801" 
d="M772 -75h-68v74h-613v-78h-74v134h66l249 697h121l246 -697h73v-130zM611 55l-217 633h-4l-218 -633h439z" />
    <glyph glyph-name="Aring" unicode="&#xc5;" horiz-adv-x="561" 
d="M523 0h-482v750h482v-74h-398v-256h381v-70h-381v-276h398v-74z" />
    <glyph glyph-name="Aring" unicode="&#x415;" horiz-adv-x="561" 
d="M523 0h-482v750h482v-74h-398v-256h381v-70h-381v-276h398v-74z" />
    <glyph glyph-name="AE" unicode="&#xc6;" horiz-adv-x="678" 
d="M1164 0h-115l-344 348h-74v-348h-84v348h-75l-344 -348h-115l384 387l-343 363h111l307 -328h75v328h84v-328h74l307 328h111l-343 -363z" />
    <glyph glyph-name="AE" unicode="&#x416;" horiz-adv-x="678" 
d="M1164 0h-115l-344 348h-74v-348h-84v348h-75l-344 -348h-115l384 387l-343 363h111l307 -328h75v328h84v-328h74l307 328h111l-343 -363z" />
    <glyph glyph-name="Ccedilla" unicode="&#xc7;" horiz-adv-x="629" 
d="M598 213c0 -92 -21.666 -153.335 -64.999 -184.002c-24 -15.333 -55.333 -25 -94 -29c-11.333 -1.33301 -34.833 -2.33301 -70.5 -3s-69.167 -1.66699 -100.5 -3c-86 0 -146.667 14.333 -182 43c-17.333 13.333 -30.833 32.833 -40.5 58.5s-14.5 56.834 -14.5 93.501
l2 45h86c0 -7.33301 -0.666992 -13 -2 -17c0 -14.667 0.666992 -28.834 2 -42.501s3 -26.167 5 -37.5c6.66699 -28 16.667 -45.667 30 -53c20.667 -10.667 67.667 -16 141 -16c66 0 109.333 1.33301 130 4s38 9.33398 52 20.001c23.333 16 35 54.333 35 115v12
c0 46 -8.66699 77.667 -26 95c-12.667 12.667 -27.834 20.834 -45.501 24.501s-46.167 5.5 -85.5 5.5h-71v76h58h71c30 0 51 10.833 63 32.5s18 55.834 18 102.501c0 51.333 -8.33301 83.666 -25 96.999c-24 20 -73 30 -147 30h-21c-56.667 0 -95 -1.83301 -115 -5.5
s-35.333 -12.5 -46 -26.5c-6.66699 -7.33301 -12.167 -20 -16.5 -38s-6.5 -40.333 -6.5 -67h-84v21c0 70 17.667 119.167 53 147.5s107 42.5 215 42.5c56.667 0 103 -2.66699 139 -8c48 -8 83.333 -30 106 -66s34 -85 34 -147c0 -64 -17.667 -112 -53 -144
c25.333 -19.333 43.5 -42.5 54.5 -69.5s16.5 -63.167 16.5 -108.5z" />
    <glyph glyph-name="Ccedilla" unicode="&#x417;" horiz-adv-x="629" 
d="M598 213c0 -92 -21.666 -153.335 -64.999 -184.002c-24 -15.333 -55.333 -25 -94 -29c-11.333 -1.33301 -34.833 -2.33301 -70.5 -3s-69.167 -1.66699 -100.5 -3c-86 0 -146.667 14.333 -182 43c-17.333 13.333 -30.833 32.833 -40.5 58.5s-14.5 56.834 -14.5 93.501
l2 45h86c0 -7.33301 -0.666992 -13 -2 -17c0 -14.667 0.666992 -28.834 2 -42.501s3 -26.167 5 -37.5c6.66699 -28 16.667 -45.667 30 -53c20.667 -10.667 67.667 -16 141 -16c66 0 109.333 1.33301 130 4s38 9.33398 52 20.001c23.333 16 35 54.333 35 115v12
c0 46 -8.66699 77.667 -26 95c-12.667 12.667 -27.834 20.834 -45.501 24.501s-46.167 5.5 -85.5 5.5h-71v76h58h71c30 0 51 10.833 63 32.5s18 55.834 18 102.501c0 51.333 -8.33301 83.666 -25 96.999c-24 20 -73 30 -147 30h-21c-56.667 0 -95 -1.83301 -115 -5.5
s-35.333 -12.5 -46 -26.5c-6.66699 -7.33301 -12.167 -20 -16.5 -38s-6.5 -40.333 -6.5 -67h-84v21c0 70 17.667 119.167 53 147.5s107 42.5 215 42.5c56.667 0 103 -2.66699 139 -8c48 -8 83.333 -30 106 -66s34 -85 34 -147c0 -64 -17.667 -112 -53 -144
c25.333 -19.333 43.5 -42.5 54.5 -69.5s16.5 -63.167 16.5 -108.5z" />
    <glyph glyph-name="Egrave" unicode="&#xc8;" horiz-adv-x="783" 
d="M714 0h-86v680l-424 -680h-139v750h86v-686l422 686h141v-750z" />
    <glyph glyph-name="Egrave" unicode="&#x418;" horiz-adv-x="783" 
d="M714 0h-86v680l-424 -680h-139v750h86v-686l422 686h141v-750z" />
    <glyph glyph-name="Eacute" unicode="&#xc9;" horiz-adv-x="783" 
d="M497 889l-160 -101l-28 41l149 113zM714 0h-86v680l-424 -680h-139v750h86v-686l422 686h141v-750z" />
    <glyph glyph-name="Eacute" unicode="&#x419;" horiz-adv-x="783" 
d="M497 889l-160 -101l-28 41l149 113zM714 0h-86v680l-424 -680h-139v750h86v-686l422 686h141v-750z" />
    <glyph glyph-name="Ecircumflex" unicode="&#xca;" horiz-adv-x="678" 
d="M689 0h-115l-344 348h-74v-348h-84v750h84v-328h74l307 328h111l-343 -363z" />
    <glyph glyph-name="Ecircumflex" unicode="&#x41a;" horiz-adv-x="678" 
d="M689 0h-115l-344 348h-74v-348h-84v750h84v-328h74l307 328h111l-343 -363z" />
    <glyph glyph-name="Edieresis" unicode="&#xcb;" horiz-adv-x="643" 
d="M648 0h-89l-235 686h-4l-236 -686h-90l268 750h121z" />
    <glyph glyph-name="Edieresis" unicode="&#x41b;" horiz-adv-x="643" 
d="M648 0h-89l-235 686h-4l-236 -686h-90l268 750h121z" />
    <glyph glyph-name="Igrave" unicode="&#xcc;" horiz-adv-x="965" 
d="M895 0h-84v686l-286 -686h-84l-285 686l-2 -686h-86v750h149l265 -643l266 643h147v-750z" />
    <glyph glyph-name="Igrave" unicode="&#x41c;" horiz-adv-x="965" 
d="M895 0h-84v686l-286 -686h-84l-285 686l-2 -686h-86v750h149l265 -643l266 643h147v-750z" />
    <glyph glyph-name="Iacute" unicode="&#xcd;" horiz-adv-x="750" 
d="M680 0h-84v346h-440v-346h-86v750h86v-330h440v330h84v-750z" />
    <glyph glyph-name="Iacute" unicode="&#x41d;" horiz-adv-x="750" 
d="M680 0h-84v346h-440v-346h-86v750h86v-330h440v330h84v-750z" />
    <glyph glyph-name="Icircumflex" unicode="&#xce;" horiz-adv-x="672" 
d="M629 230c0 -40.667 -2.83008 -72.834 -8.49707 -96.501s-15.834 -46.167 -30.501 -67.5c-17.333 -29.333 -45.833 -48.666 -85.5 -57.999s-82.834 -14 -129.501 -14h-86c-44.667 0 -83 4 -115 12s-60 23.667 -84 47c-32.667 36.667 -49 96.334 -49 179.001v266
c0 86.667 12.333 148.667 37 186c23.333 32 54.666 52 93.999 60s93.333 12 162 12c62.667 0 115.5 -3.66699 158.5 -11s75.5 -27 97.5 -59c9.33301 -8 17.333 -25.333 24 -52c10 -38.667 15 -87.334 15 -146.001v-258zM545.003 230l0.000976562 287.999
c0 54.667 -7.33301 93.5 -22 116.5s-42.667 37.5 -84 43.5c-10.667 1.33301 -25.5 2.33301 -44.5 3s-36.167 1 -51.5 1h-11h-31c-46 0 -80.333 -3.16699 -103 -9.5s-40.334 -20.166 -53.001 -41.499c-7.33301 -14.667 -12.5 -31 -15.5 -49s-4.5 -42 -4.5 -72v-274
c0 -52.667 8.33301 -93.667 25 -123c9.33301 -17.333 24.333 -29.166 45 -35.499s51.334 -9.5 92.001 -9.5h49c58 0 99.167 2.16699 123.5 6.5s43.166 15.166 56.499 32.499c19.333 26.667 29 67.667 29 123z" />
    <glyph glyph-name="Icircumflex" unicode="&#x41e;" horiz-adv-x="672" 
d="M629 230c0 -40.667 -2.83008 -72.834 -8.49707 -96.501s-15.834 -46.167 -30.501 -67.5c-17.333 -29.333 -45.833 -48.666 -85.5 -57.999s-82.834 -14 -129.501 -14h-86c-44.667 0 -83 4 -115 12s-60 23.667 -84 47c-32.667 36.667 -49 96.334 -49 179.001v266
c0 86.667 12.333 148.667 37 186c23.333 32 54.666 52 93.999 60s93.333 12 162 12c62.667 0 115.5 -3.66699 158.5 -11s75.5 -27 97.5 -59c9.33301 -8 17.333 -25.333 24 -52c10 -38.667 15 -87.334 15 -146.001v-258zM545.003 230l0.000976562 287.999
c0 54.667 -7.33301 93.5 -22 116.5s-42.667 37.5 -84 43.5c-10.667 1.33301 -25.5 2.33301 -44.5 3s-36.167 1 -51.5 1h-11h-31c-46 0 -80.333 -3.16699 -103 -9.5s-40.334 -20.166 -53.001 -41.499c-7.33301 -14.667 -12.5 -31 -15.5 -49s-4.5 -42 -4.5 -72v-274
c0 -52.667 8.33301 -93.667 25 -123c9.33301 -17.333 24.333 -29.166 45 -35.499s51.334 -9.5 92.001 -9.5h49c58 0 99.167 2.16699 123.5 6.5s43.166 15.166 56.499 32.499c19.333 26.667 29 67.667 29 123z" />
    <glyph glyph-name="Idieresis" unicode="&#xcf;" horiz-adv-x="750" 
d="M680 0h-84v676h-440v-676h-86v750h610v-750z" />
    <glyph glyph-name="Idieresis" unicode="&#x41f;" horiz-adv-x="750" 
d="M680 0h-84v676h-440v-676h-86v750h610v-750z" />
    <glyph glyph-name="Eth" unicode="&#xd0;" horiz-adv-x="660" 
d="M619 520c0 -79.333 -15 -136.667 -45 -172c-29.333 -38 -78 -57 -146 -57h-285v-291h-84v750h380c36.667 0 67.667 -6 93 -18s44 -29.333 56 -52c20.667 -36 31 -89.333 31 -160zM535 511.999c0 58.667 -5.66699 99 -17 121c-16.667 28.667 -52.667 43 -108 43h-267v-309
h240c64 0 104.333 9.33301 121 28c12 14 20 30 24 48c2 9.33301 3.66699 19.5 5 30.5s2 23.833 2 38.5z" />
    <glyph glyph-name="Eth" unicode="&#x420;" horiz-adv-x="660" 
d="M619 520c0 -79.333 -15 -136.667 -45 -172c-29.333 -38 -78 -57 -146 -57h-285v-291h-84v750h380c36.667 0 67.667 -6 93 -18s44 -29.333 56 -52c20.667 -36 31 -89.333 31 -160zM535 511.999c0 58.667 -5.66699 99 -17 121c-16.667 28.667 -52.667 43 -108 43h-267v-309
h240c64 0 104.333 9.33301 121 28c12 14 20 30 24 48c2 9.33301 3.66699 19.5 5 30.5s2 23.833 2 38.5z" />
    <glyph glyph-name="Ntilde" unicode="&#xd1;" horiz-adv-x="664" 
d="M643 211c0 -78 -15 -132.668 -45 -164.001c-32 -35.333 -96 -53 -192 -53h-54h-84c-35.333 0 -63.833 3.5 -85.5 10.5s-47.5 22.5 -77.5 46.5c-16 16 -30 39.833 -42 71.5s-18 65.834 -18 102.501v295c0 72 14.833 125.5 44.5 160.5s67 56.333 112 64
s102.833 11.5 173.5 11.5h54c16.667 0 31.334 -0.666992 44.001 -2c42 -4 75.667 -16.333 101 -37c39.333 -32 59 -92.667 59 -182v-19h-86v29c0 56 -10.333 92.833 -31 110.5s-59.334 26.5 -116.001 26.5h-17c-28 0 -53.833 -0.833008 -77.5 -2.5
s-48.5 -4.16699 -74.5 -7.5s-49 -15 -69 -35c-22 -26 -33 -62.667 -33 -110v-246c0 -94.667 14.333 -155 43 -181c9.33301 -9.33301 19.666 -16.333 30.999 -21l37 -9l47 -4l51 2h50h32c12 1.33301 20.333 2 25 2c39.333 4 68 14 86 30c14.667 13.333 23.334 36 26.001 68
l2 86h84v-43z" />
    <glyph glyph-name="Ntilde" unicode="&#x421;" horiz-adv-x="664" 
d="M643 211c0 -78 -15 -132.668 -45 -164.001c-32 -35.333 -96 -53 -192 -53h-54h-84c-35.333 0 -63.833 3.5 -85.5 10.5s-47.5 22.5 -77.5 46.5c-16 16 -30 39.833 -42 71.5s-18 65.834 -18 102.501v295c0 72 14.833 125.5 44.5 160.5s67 56.333 112 64
s102.833 11.5 173.5 11.5h54c16.667 0 31.334 -0.666992 44.001 -2c42 -4 75.667 -16.333 101 -37c39.333 -32 59 -92.667 59 -182v-19h-86v29c0 56 -10.333 92.833 -31 110.5s-59.334 26.5 -116.001 26.5h-17c-28 0 -53.833 -0.833008 -77.5 -2.5
s-48.5 -4.16699 -74.5 -7.5s-49 -15 -69 -35c-22 -26 -33 -62.667 -33 -110v-246c0 -94.667 14.333 -155 43 -181c9.33301 -9.33301 19.666 -16.333 30.999 -21l37 -9l47 -4l51 2h50h32c12 1.33301 20.333 2 25 2c39.333 4 68 14 86 30c14.667 13.333 23.334 36 26.001 68
l2 86h84v-43z" />
    <glyph glyph-name="Ograve" unicode="&#xd2;" horiz-adv-x="578" 
d="M574 676h-242v-676h-86v676h-242v74h570v-74z" />
    <glyph glyph-name="Ograve" unicode="&#x422;" horiz-adv-x="578" 
d="M574 676h-242v-676h-86v676h-242v74h570v-74z" />
    <glyph glyph-name="Oacute" unicode="&#xd3;" horiz-adv-x="643" 
d="M648 750l-369 -750h-92l97 199l-290 551h90l236 -479h4l235 479h89z" />
    <glyph glyph-name="Oacute" unicode="&#x423;" horiz-adv-x="643" 
d="M648 750l-369 -750h-92l97 199l-290 551h90l236 -479h4l235 479h89z" />
    <glyph glyph-name="Ocircumflex" unicode="&#xd4;" horiz-adv-x="660" 
d="M541 520c0 -79.333 -15 -136.666 -45 -171.999c-29.333 -38 -78 -57 -146 -57h-207v-291h-84v291h-187c-68 0 -116.667 19 -146 57c-30 35.333 -45 92.666 -45 171.999c0 70.667 10.333 124 31 160c12 22.667 30.667 40 56 52s56.333 18 93 18h500
c36.667 0 67.667 -6 93 -18s44 -29.333 56 -52c20.667 -36 31 -89.333 31 -160zM457 512c0 58.667 -5.66699 99 -17 121c-16.667 28.667 -52.667 43 -108 43h-189v-309h162c64 0 104.333 9.33301 121 28c12 14 20 30 24 48c2 9.33301 3.66699 19.5 5 30.5s2 23.833 2 38.5z
M59 367v309.001h-169c-55.333 0 -91.333 -14.333 -108 -43c-11.333 -22 -17 -62.333 -17 -121c0 -24.667 2.16699 -46.834 6.5 -66.501s12.5 -36.5 24.5 -50.5c16.667 -18.667 57 -28 121 -28h142z" />
    <glyph glyph-name="Ocircumflex" unicode="&#x424;" horiz-adv-x="660" 
d="M541 520c0 -79.333 -15 -136.666 -45 -171.999c-29.333 -38 -78 -57 -146 -57h-207v-291h-84v291h-187c-68 0 -116.667 19 -146 57c-30 35.333 -45 92.666 -45 171.999c0 70.667 10.333 124 31 160c12 22.667 30.667 40 56 52s56.333 18 93 18h500
c36.667 0 67.667 -6 93 -18s44 -29.333 56 -52c20.667 -36 31 -89.333 31 -160zM457 512c0 58.667 -5.66699 99 -17 121c-16.667 28.667 -52.667 43 -108 43h-189v-309h162c64 0 104.333 9.33301 121 28c12 14 20 30 24 48c2 9.33301 3.66699 19.5 5 30.5s2 23.833 2 38.5z
M59 367v309.001h-169c-55.333 0 -91.333 -14.333 -108 -43c-11.333 -22 -17 -62.333 -17 -121c0 -24.667 2.16699 -46.834 6.5 -66.501s12.5 -36.5 24.5 -50.5c16.667 -18.667 57 -28 121 -28h142z" />
    <glyph glyph-name="Otilde" unicode="&#xd5;" horiz-adv-x="652" 
d="M658 0h-99l-229 344l-232 -344h-104l268 387l-246 363h101l213 -322l211 322h100l-241 -363z" />
    <glyph glyph-name="Otilde" unicode="&#x425;" horiz-adv-x="652" 
d="M658 0h-99l-229 344l-232 -344h-104l268 387l-246 363h101l213 -322l211 322h100l-241 -363z" />
    <glyph glyph-name="Odieresis" unicode="&#xd6;" horiz-adv-x="750" 
d="M732 -70h-82v70h-580v750h86v-676h440v676h84v-676h52v-144z" />
    <glyph glyph-name="Odieresis" unicode="&#x426;" horiz-adv-x="750" 
d="M732 -70h-82v70h-580v750h86v-676h440v676h84v-676h52v-144z" />
    <glyph glyph-name="multiply" unicode="&#xd7;" horiz-adv-x="736" 
d="M666 0l-85.999 0.000976562v327c-10 -30 -26.333 -50.333 -49 -61c-18.667 -8.66699 -47.334 -13 -86.001 -13c-8 0 -22.333 0.333008 -43 1s-37.334 1 -50.001 1c-48 0 -77.333 0.333008 -88 1c-42 2.66699 -80.667 13.334 -116 32.001
c-24.667 13.333 -43.5 35.666 -56.5 66.999s-19.5 67.666 -19.5 108.999v286h84v-284c0 -58.667 11.667 -95.667 35 -111c25.333 -18.667 77.666 -28 156.999 -28c6.66699 1.33301 15.334 2 26.001 2c4.66699 0 10.334 -0.666992 17.001 -2c44.667 0 79 2.16699 103 6.5
s42.333 13.5 55 27.5c12 11.333 20.167 26.833 24.5 46.5s6.5 48.167 6.5 85.5v257h86v-750z" />
    <glyph glyph-name="multiply" unicode="&#x427;" horiz-adv-x="736" 
d="M666 0l-85.999 0.000976562v327c-10 -30 -26.333 -50.333 -49 -61c-18.667 -8.66699 -47.334 -13 -86.001 -13c-8 0 -22.333 0.333008 -43 1s-37.334 1 -50.001 1c-48 0 -77.333 0.333008 -88 1c-42 2.66699 -80.667 13.334 -116 32.001
c-24.667 13.333 -43.5 35.666 -56.5 66.999s-19.5 67.666 -19.5 108.999v286h84v-284c0 -58.667 11.667 -95.667 35 -111c25.333 -18.667 77.666 -28 156.999 -28c6.66699 1.33301 15.334 2 26.001 2c4.66699 0 10.334 -0.666992 17.001 -2c44.667 0 79 2.16699 103 6.5
s42.333 13.5 55 27.5c12 11.333 20.167 26.833 24.5 46.5s6.5 48.167 6.5 85.5v257h86v-750z" />
    <glyph glyph-name="Oslash" unicode="&#xd8;" horiz-adv-x="750" 
d="M850 1h-827v750h86l2 -686h285v686h84v-686h286l-2 686h86v-750z" />
    <glyph glyph-name="Oslash" unicode="&#x428;" horiz-adv-x="750" 
d="M850 1h-827v750h86l2 -686h285v686h84v-686h286l-2 686h86v-750z" />
    <glyph glyph-name="Ugrave" unicode="&#xd9;" horiz-adv-x="750" 
d="M902 -69h-82v70h-797v750h86l2 -686h285v686h84v-686h286l-2 686h86v-676h52v-144z" />
    <glyph glyph-name="Ugrave" unicode="&#x429;" horiz-adv-x="750" 
d="M902 -69h-82v70h-797v750h86l2 -686h285v686h84v-686h286l-2 686h86v-676h52v-144z" />
    <glyph glyph-name="Uacute" unicode="&#xda;" horiz-adv-x="693" 
d="M637 189c0 -56 -14.334 -102 -43.001 -138c-26 -34 -69 -51 -129 -51h-404v675h-81v75h165v-328h257c74.667 0 130.334 -11.333 167.001 -34c22.667 -14 39 -33.667 49 -59c12.667 -34 19 -80.667 19 -140zM550.999 207c0 94 -36 141 -108 141h-298v-274h287
c52 0 85.667 10 101 30c12 16 18 50.333 18 103z" />
    <glyph glyph-name="Uacute" unicode="&#x42a;" horiz-adv-x="693" 
d="M637 189c0 -56 -14.334 -102 -43.001 -138c-26 -34 -69 -51 -129 -51h-404v675h-81v75h165v-328h257c74.667 0 130.334 -11.333 167.001 -34c22.667 -14 39 -33.667 49 -59c12.667 -34 19 -80.667 19 -140zM550.999 207c0 94 -36 141 -108 141h-298v-274h287
c52 0 85.667 10 101 30c12 16 18 50.333 18 103z" />
    <glyph glyph-name="Ucircumflex" unicode="&#xdb;" horiz-adv-x="693" 
d="M786 0h-84v750h84v-750zM637 189c0 -56 -14.334 -102 -43.001 -138c-26 -34 -69 -51 -129 -51h-404v750h84v-328h257c74.667 0 130.334 -11.333 167.001 -34c22.667 -14 39 -33.667 49 -59c12.667 -34 19 -80.667 19 -140zM550.999 207c0 94 -36 141 -108 141h-298v-274
h287c52 0 85.667 10 101 30c12 16 18 50.333 18 103z" />
    <glyph glyph-name="Ucircumflex" unicode="&#x42b;" horiz-adv-x="693" 
d="M786 0h-84v750h84v-750zM637 189c0 -56 -14.334 -102 -43.001 -138c-26 -34 -69 -51 -129 -51h-404v750h84v-328h257c74.667 0 130.334 -11.333 167.001 -34c22.667 -14 39 -33.667 49 -59c12.667 -34 19 -80.667 19 -140zM550.999 207c0 94 -36 141 -108 141h-298v-274
h287c52 0 85.667 10 101 30c12 16 18 50.333 18 103z" />
    <glyph glyph-name="Udieresis" unicode="&#xdc;" horiz-adv-x="693" 
d="M786 0h-84v750h84v-750zM637 189c0 -56 -14.334 -102 -43.001 -138c-26 -34 -69 -51 -129 -51h-404v750h84v-328h257c74.667 0 130.334 -11.333 167.001 -34c22.667 -14 39 -33.667 49 -59c12.667 -34 19 -80.667 19 -140zM550.999 207c0 94 -36 141 -108 141h-298v-274
h287c52 0 85.667 10 101 30c12 16 18 50.333 18 103z" />
    <glyph glyph-name="Udieresis" unicode="&#x42c;" horiz-adv-x="693" 
d="M786 0h-84v750h84v-750zM637 189c0 -56 -14.334 -102 -43.001 -138c-26 -34 -69 -51 -129 -51h-404v750h84v-328h257c74.667 0 130.334 -11.333 167.001 -34c22.667 -14 39 -33.667 49 -59c12.667 -34 19 -80.667 19 -140zM550.999 207c0 94 -36 141 -108 141h-298v-274
h287c52 0 85.667 10 101 30c12 16 18 50.333 18 103z" />
    <glyph glyph-name="Yacute" unicode="&#xdd;" horiz-adv-x="664" 
d="M628 230c0 -38 -5.66602 -72.1689 -16.999 -102.502s-25.666 -54.166 -42.999 -71.499c-29.333 -23.333 -55.333 -38.666 -78 -45.999s-51 -11 -85 -11h-138c-96 0 -159.5 16.667 -190.5 50s-46.5 89 -46.5 167v43h84l2 -86c2.66699 -32 11.167 -54.5 25.5 -67.5
s33.5 -21.667 57.5 -26s69.333 -6.5 136 -6.5c64 0 103.667 1.33301 119 4s31 12 47 28c28.667 26 43 86.333 43 181v65h-276v75h276v106c0 44.667 -9.83301 81.667 -29.5 111s-45.834 44 -78.501 44h-146h-17c-56.667 0 -95.334 -8.83301 -116.001 -26.5
s-31 -54.5 -31 -110.5v-29h-86v19c0 89.333 19.667 150 59 182c20 16 41.833 26.5 65.5 31.5s68.167 7.5 133.5 7.5c25.333 0 52.5 -0.166992 81.5 -0.5s60.167 -0.833008 93.5 -1.5c46 0 83.333 -21.5 112 -64.5s43 -99.5 43 -169.5v-295z" />
    <glyph glyph-name="Yacute" unicode="&#x42d;" horiz-adv-x="664" 
d="M628 230c0 -38 -5.66602 -72.1689 -16.999 -102.502s-25.666 -54.166 -42.999 -71.499c-29.333 -23.333 -55.333 -38.666 -78 -45.999s-51 -11 -85 -11h-138c-96 0 -159.5 16.667 -190.5 50s-46.5 89 -46.5 167v43h84l2 -86c2.66699 -32 11.167 -54.5 25.5 -67.5
s33.5 -21.667 57.5 -26s69.333 -6.5 136 -6.5c64 0 103.667 1.33301 119 4s31 12 47 28c28.667 26 43 86.333 43 181v65h-276v75h276v106c0 44.667 -9.83301 81.667 -29.5 111s-45.834 44 -78.501 44h-146h-17c-56.667 0 -95.334 -8.83301 -116.001 -26.5
s-31 -54.5 -31 -110.5v-29h-86v19c0 89.333 19.667 150 59 182c20 16 41.833 26.5 65.5 31.5s68.167 7.5 133.5 7.5c25.333 0 52.5 -0.166992 81.5 -0.5s60.167 -0.833008 93.5 -1.5c46 0 83.333 -21.5 112 -64.5s43 -99.5 43 -169.5v-295z" />
    <glyph glyph-name="Thorn" unicode="&#xde;" horiz-adv-x="672" 
d="M844 230c0 -40.667 -2.83008 -72.834 -8.49707 -96.501s-15.834 -46.167 -30.501 -67.5c-17.333 -29.333 -45.833 -48.666 -85.5 -57.999s-82.834 -14 -129.501 -14h-86c-44.667 0 -83 4 -115 12s-60 23.667 -84 47c-32.667 36.667 -49 96.334 -49 179.001v109h-150v-341
h-84v750h84v-334h150v82c0 86.667 12.333 148.667 37 186c23.333 32 54.666 52 93.999 60s93.333 12 162 12c62.667 0 115.5 -3.66699 158.5 -11s75.5 -27 97.5 -59c9.33301 -8 17.333 -25.333 24 -52c10 -38.667 15 -87.334 15 -146.001v-258zM760.003 230
l0.000976562 287.999c0 54.667 -7.33301 93.5 -22 116.5s-42.667 37.5 -84 43.5c-10.667 1.33301 -25.5 2.33301 -44.5 3s-36.167 1 -51.5 1h-11h-31c-46 0 -80.333 -3.16699 -103 -9.5s-40.334 -20.166 -53.001 -41.499c-7.33301 -14.667 -12.5 -31 -15.5 -49
s-4.5 -42 -4.5 -72v-274c0 -52.667 8.33301 -93.667 25 -123c9.33301 -17.333 24.333 -29.166 45 -35.499s51.334 -9.5 92.001 -9.5h49c58 0 99.167 2.16699 123.5 6.5s43.166 15.166 56.499 32.499c19.333 26.667 29 67.667 29 123z" />
    <glyph glyph-name="Thorn" unicode="&#x42e;" horiz-adv-x="672" 
d="M844 230c0 -40.667 -2.83008 -72.834 -8.49707 -96.501s-15.834 -46.167 -30.501 -67.5c-17.333 -29.333 -45.833 -48.666 -85.5 -57.999s-82.834 -14 -129.501 -14h-86c-44.667 0 -83 4 -115 12s-60 23.667 -84 47c-32.667 36.667 -49 96.334 -49 179.001v109h-150v-341
h-84v750h84v-334h150v82c0 86.667 12.333 148.667 37 186c23.333 32 54.666 52 93.999 60s93.333 12 162 12c62.667 0 115.5 -3.66699 158.5 -11s75.5 -27 97.5 -59c9.33301 -8 17.333 -25.333 24 -52c10 -38.667 15 -87.334 15 -146.001v-258zM760.003 230
l0.000976562 287.999c0 54.667 -7.33301 93.5 -22 116.5s-42.667 37.5 -84 43.5c-10.667 1.33301 -25.5 2.33301 -44.5 3s-36.167 1 -51.5 1h-11h-31c-46 0 -80.333 -3.16699 -103 -9.5s-40.334 -20.166 -53.001 -41.499c-7.33301 -14.667 -12.5 -31 -15.5 -49
s-4.5 -42 -4.5 -72v-274c0 -52.667 8.33301 -93.667 25 -123c9.33301 -17.333 24.333 -29.166 45 -35.499s51.334 -9.5 92.001 -9.5h49c58 0 99.167 2.16699 123.5 6.5s43.166 15.166 56.499 32.499c19.333 26.667 29 67.667 29 123z" />
    <glyph glyph-name="germandbls" unicode="&#xdf;" horiz-adv-x="701" 
d="M648 0h-84.001v299h-270c-51.333 0 -86 -10.5 -104 -31.5s-27 -55.5 -27 -103.5v-164h-86v201c0 36 11.167 66.167 33.5 90.5s51.5 38.5 87.5 42.5c-46.667 8 -80 25.667 -100 53s-30 74 -30 140c0 80.667 14.667 136.667 44 168c34.667 36.667 93.334 55 176.001 55h360
v-750zM561.999 375v301h-276c-55.333 0 -93 -11.667 -113 -35c-13.333 -16 -20 -48.667 -20 -98v-25c0 -51.333 9.33301 -87.333 28 -108c22.667 -23.333 61 -35 115 -35h266z" />
    <glyph glyph-name="germandbls" unicode="&#x42f;" horiz-adv-x="701" 
d="M648 0h-84.001v299h-270c-51.333 0 -86 -10.5 -104 -31.5s-27 -55.5 -27 -103.5v-164h-86v201c0 36 11.167 66.167 33.5 90.5s51.5 38.5 87.5 42.5c-46.667 8 -80 25.667 -100 53s-30 74 -30 140c0 80.667 14.667 136.667 44 168c34.667 36.667 93.334 55 176.001 55h360
v-750zM561.999 375v301h-276c-55.333 0 -93 -11.667 -113 -35c-13.333 -16 -20 -48.667 -20 -98v-25c0 -51.333 9.33301 -87.333 28 -108c22.667 -23.333 61 -35 115 -35h266z" />
    <glyph glyph-name="agrave" unicode="&#xe0;" horiz-adv-x="570" 
d="M502 0h-78.002v53l-2 2c-12 -22.667 -30.667 -38.5 -56 -47.5s-60.666 -13.5 -105.999 -13.5c-78 0 -132.333 10.667 -163 32c-33.333 23.333 -50 65.333 -50 126l2 14c0 61.333 16.667 102.333 50 123c29.333 18 84.333 27 165 27h13c35.333 0 66.833 -4.33301 94.5 -13
s43.167 -21.667 46.5 -39h6v93c0 44.667 -9.66699 74.167 -29 88.5s-56.666 21.5 -111.999 21.5h-17c-38 0 -67 -5.16699 -87 -15.5s-31.333 -30.5 -34 -60.5l1 -14h-82c0 58.667 16.333 101 49 127c28 18 84 27 168 27c90.667 0 150.167 -14 178.5 -42s42.5 -73 42.5 -135
v-354zM421.998 164c0 38 -13.998 62.668 -41.998 74.001c-15.333 5.33301 -31.833 9.33301 -49.5 12s-39.834 4 -66.501 4c-48.667 0 -82.334 -4.16699 -101.001 -12.5s-28 -26.833 -28 -55.5c0 -16.667 -2 -30 -6 -40c4.66699 -38.667 13 -62.334 25 -71.001
c16 -12 53.333 -18 112 -18c73.333 0 120 13 140 39c10.667 17.333 16 40 16 68z" />
    <glyph glyph-name="agrave" unicode="&#x430;" horiz-adv-x="570" 
d="M502 0h-78.002v53l-2 2c-12 -22.667 -30.667 -38.5 -56 -47.5s-60.666 -13.5 -105.999 -13.5c-78 0 -132.333 10.667 -163 32c-33.333 23.333 -50 65.333 -50 126l2 14c0 61.333 16.667 102.333 50 123c29.333 18 84.333 27 165 27h13c35.333 0 66.833 -4.33301 94.5 -13
s43.167 -21.667 46.5 -39h6v93c0 44.667 -9.66699 74.167 -29 88.5s-56.666 21.5 -111.999 21.5h-17c-38 0 -67 -5.16699 -87 -15.5s-31.333 -30.5 -34 -60.5l1 -14h-82c0 58.667 16.333 101 49 127c28 18 84 27 168 27c90.667 0 150.167 -14 178.5 -42s42.5 -73 42.5 -135
v-354zM421.998 164c0 38 -13.998 62.668 -41.998 74.001c-15.333 5.33301 -31.833 9.33301 -49.5 12s-39.834 4 -66.501 4c-48.667 0 -82.334 -4.16699 -101.001 -12.5s-28 -26.833 -28 -55.5c0 -16.667 -2 -30 -6 -40c4.66699 -38.667 13 -62.334 25 -71.001
c16 -12 53.333 -18 112 -18c73.333 0 120 13 140 39c10.667 17.333 16 40 16 68z" />
    <glyph glyph-name="aacute" unicode="&#xe1;" horiz-adv-x="570" 
d="M455 146c-4 10 -6.00098 23.333 -6.00098 40c0 28 -9.5 46.333 -28.5 55s-52.5 13 -100.5 13c-47.333 0 -86 -5.33301 -116 -16c-28 -11.333 -42 -36 -42 -74c0 -28 5.33301 -50.667 16 -68c20 -26 66.667 -39 140 -39c58 0 95 6 111 18
c12.667 9.33301 21.334 33 26.001 71zM159.999 264h6.00195c3.33301 16 19.166 28.667 47.499 38s59.5 14 93.5 14h13c81.333 0 136 -8.66699 164 -26c34 -20.667 51 -62 51 -124l2 -14c0 -60 -16 -101.333 -48 -124s-87 -34 -165 -34
c-46.667 0 -82.334 4.33301 -107.001 13s-43 24.667 -55 48l-2 -2v-53h-78v531h373v-64h-295v-203z" />
    <glyph glyph-name="aacute" unicode="&#x431;" horiz-adv-x="570" 
d="M455 146c-4 10 -6.00098 23.333 -6.00098 40c0 28 -9.5 46.333 -28.5 55s-52.5 13 -100.5 13c-47.333 0 -86 -5.33301 -116 -16c-28 -11.333 -42 -36 -42 -74c0 -28 5.33301 -50.667 16 -68c20 -26 66.667 -39 140 -39c58 0 95 6 111 18
c12.667 9.33301 21.334 33 26.001 71zM159.999 264h6.00195c3.33301 16 19.166 28.667 47.499 38s59.5 14 93.5 14h13c81.333 0 136 -8.66699 164 -26c34 -20.667 51 -62 51 -124l2 -14c0 -60 -16 -101.333 -48 -124s-87 -34 -165 -34
c-46.667 0 -82.334 4.33301 -107.001 13s-43 24.667 -55 48l-2 -2v-53h-78v531h373v-64h-295v-203z" />
    <glyph glyph-name="acircumflex" unicode="&#xe2;" horiz-adv-x="570" 
d="M455 146c0 39.333 -8 66.333 -24 81c-19.333 18 -56.333 27 -111 27h-160v-197h158c58.667 0 96.167 6.33301 112.5 19s24.5 36 24.5 70zM332 316c16 10.667 28.667 21.667 38 33c12 14.667 18 29.667 18 45c0 5.33301 -0.333008 9.33301 -1 12
c-3.33301 18.667 -11 33.5 -23 44.5s-27.333 16.5 -46 16.5h-158v-151h6h166zM82 531h226c39.333 0 73.666 -11.667 102.999 -35s44 -53.333 44 -90c0 -48.667 -18.667 -82 -56 -100c38.667 0 71.334 -15.333 98.001 -46s40 -66.667 40 -108c0 -52 -17.333 -90.333 -52 -115
s-89.667 -37 -165 -37h-238v531z" />
    <glyph glyph-name="acircumflex" unicode="&#x432;" horiz-adv-x="570" 
d="M455 146c0 39.333 -8 66.333 -24 81c-19.333 18 -56.333 27 -111 27h-160v-197h158c58.667 0 96.167 6.33301 112.5 19s24.5 36 24.5 70zM332 316c16 10.667 28.667 21.667 38 33c12 14.667 18 29.667 18 45c0 5.33301 -0.333008 9.33301 -1 12
c-3.33301 18.667 -11 33.5 -23 44.5s-27.333 16.5 -46 16.5h-158v-151h6h166zM82 531h226c39.333 0 73.666 -11.667 102.999 -35s44 -53.333 44 -90c0 -48.667 -18.667 -82 -56 -100c38.667 0 71.334 -15.333 98.001 -46s40 -66.667 40 -108c0 -52 -17.333 -90.333 -52 -115
s-89.667 -37 -165 -37h-238v531z" />
    <glyph glyph-name="atilde" unicode="&#xe3;" horiz-adv-x="441" 
d="M428 458h-291v-458h-80v525h371v-67z" />
    <glyph glyph-name="atilde" unicode="&#x433;" horiz-adv-x="441" 
d="M428 458h-291v-458h-80v525h371v-67z" />
    <glyph glyph-name="adieresis" unicode="&#xe4;" horiz-adv-x="453" 
d="M523 31l-61 -107h-24v54h-384v-54h-24l-71 107h71l158 491h111l153 -491h71zM380 31l-135 432l-142 -432h277z" />
    <glyph glyph-name="adieresis" unicode="&#x434;" horiz-adv-x="453" 
d="M523 31l-61 -107h-24v54h-384v-54h-24l-71 107h71l158 491h111l153 -491h71zM380 31l-135 432l-142 -432h277z" />
    <glyph glyph-name="aring" unicode="&#xe5;" horiz-adv-x="564" 
d="M512 158c0 -60.667 -13.667 -103.003 -41 -127.003c-19.333 -15.333 -43.666 -25.666 -72.999 -30.999c-28 -4 -63.667 -6 -107 -6c-100.667 0 -165.834 18.333 -195.501 55s-44.5 109.667 -44.5 219c0 55.333 4.33301 100.333 13 135s21.834 60.834 39.501 78.501
s42.667 30.334 75 38.001s68.5 11.5 108.5 11.5c81.333 0 138 -13 170 -39c36.667 -31.333 55 -83.333 55 -156v-41v-51h-379v-31v-8c0 -38.667 2.66699 -67.667 8 -87c4 -18 15.667 -33.333 35 -46c12 -5.33301 24.667 -9 38 -11l81 -4h11
c27.333 0 49.666 1.33301 66.999 4s31.5 9.5 42.5 20.5s16.5 36.5 16.5 76.5h80zM430 308.997c0 68.667 -8.66699 112.667 -26 132c-14 17.333 -50.333 26 -109 26h-16c-30.667 0 -55.667 -2.66699 -75 -8c-18 -2.66699 -32.667 -10.334 -44 -23.001
c-8 -10.667 -14.5 -26.667 -19.5 -48s-7.5 -47.666 -7.5 -78.999h297z" />
    <glyph glyph-name="aring" unicode="&#x435;" horiz-adv-x="564" 
d="M512 158c0 -60.667 -13.667 -103.003 -41 -127.003c-19.333 -15.333 -43.666 -25.666 -72.999 -30.999c-28 -4 -63.667 -6 -107 -6c-100.667 0 -165.834 18.333 -195.501 55s-44.5 109.667 -44.5 219c0 55.333 4.33301 100.333 13 135s21.834 60.834 39.501 78.501
s42.667 30.334 75 38.001s68.5 11.5 108.5 11.5c81.333 0 138 -13 170 -39c36.667 -31.333 55 -83.333 55 -156v-41v-51h-379v-31v-8c0 -38.667 2.66699 -67.667 8 -87c4 -18 15.667 -33.333 35 -46c12 -5.33301 24.667 -9 38 -11l81 -4h11
c27.333 0 49.666 1.33301 66.999 4s31.5 9.5 42.5 20.5s16.5 36.5 16.5 76.5h80zM430 308.997c0 68.667 -8.66699 112.667 -26 132c-14 17.333 -50.333 26 -109 26h-16c-30.667 0 -55.667 -2.66699 -75 -8c-18 -2.66699 -32.667 -10.334 -44 -23.001
c-8 -10.667 -14.5 -26.667 -19.5 -48s-7.5 -47.666 -7.5 -78.999h297z" />
    <glyph glyph-name="ae" unicode="&#xe6;" horiz-adv-x="486" 
d="M506 0h-104l-224 252h-32v-252h-80v252h-32l-224 -252h-104l266 283l-225 242h98l189 -209h32v209h80v-209h32l189 209h98l-225 -242z" />
    <glyph glyph-name="ae" unicode="&#x436;" horiz-adv-x="486" 
d="M506 0h-104l-224 252h-32v-252h-80v252h-32l-224 -252h-104l266 283l-225 242h98l189 -209h32v209h80v-209h32l189 209h98l-225 -242z" />
    <glyph glyph-name="ccedilla" unicode="&#xe7;" horiz-adv-x="537" 
d="M498 148c0 -64 -18.334 -106.671 -55.001 -128.004c-30 -17.333 -86.667 -26 -170 -26c-66 0 -120.5 7.5 -163.5 22.5s-64.5 48.5 -64.5 100.5v49h82v-20c3.33301 -35.333 14.666 -58 33.999 -68c8 -4 35.667 -9 83 -15h28c44 0 76.333 4 97 12
c31.333 12 47 35.333 47 70v26c0 26 -6.16699 42.333 -18.5 49s-46.166 10 -101.499 10h-4v73c4.66699 0.666992 20 1.33398 46 2.00098s42 2.33398 48 5.00098s11 6.83398 15 12.501s6 14.167 6 25.5c0 3.33301 -0.333008 9 -1 17s-1 14 -1 18c0 34.667 -7 57 -21 67
c-10 7.33301 -33 11 -69 11h-39h-33c-41.333 0 -65.333 -0.666992 -72 -2c-24.667 -4.66699 -37 -28 -37 -70h-82c0 82.667 39 128.334 117 137.001c13.333 2 28.333 3.33301 45 4s37.334 1 62.001 1c90.667 0 148.167 -7.83301 172.5 -23.5s36.5 -56.5 36.5 -122.5
c0 -37.333 -2.33301 -62 -7 -74c-8 -20 -26.333 -33.667 -55 -41c33.333 -3.33301 55 -17.333 65 -42c6.66699 -16 10 -42.667 10 -80z" />
    <glyph glyph-name="ccedilla" unicode="&#x437;" horiz-adv-x="537" 
d="M498 148c0 -64 -18.334 -106.671 -55.001 -128.004c-30 -17.333 -86.667 -26 -170 -26c-66 0 -120.5 7.5 -163.5 22.5s-64.5 48.5 -64.5 100.5v49h82v-20c3.33301 -35.333 14.666 -58 33.999 -68c8 -4 35.667 -9 83 -15h28c44 0 76.333 4 97 12
c31.333 12 47 35.333 47 70v26c0 26 -6.16699 42.333 -18.5 49s-46.166 10 -101.499 10h-4v73c4.66699 0.666992 20 1.33398 46 2.00098s42 2.33398 48 5.00098s11 6.83398 15 12.501s6 14.167 6 25.5c0 3.33301 -0.333008 9 -1 17s-1 14 -1 18c0 34.667 -7 57 -21 67
c-10 7.33301 -33 11 -69 11h-39h-33c-41.333 0 -65.333 -0.666992 -72 -2c-24.667 -4.66699 -37 -28 -37 -70h-82c0 82.667 39 128.334 117 137.001c13.333 2 28.333 3.33301 45 4s37.334 1 62.001 1c90.667 0 148.167 -7.83301 172.5 -23.5s36.5 -56.5 36.5 -122.5
c0 -37.333 -2.33301 -62 -7 -74c-8 -20 -26.333 -33.667 -55 -41c33.333 -3.33301 55 -17.333 65 -42c6.66699 -16 10 -42.667 10 -80z" />
    <glyph glyph-name="egrave" unicode="&#xe8;" horiz-adv-x="570" 
d="M500 0h-79.999v70l-2 -2c-12 -27.333 -33.333 -47 -64 -59c-30 -10 -65.333 -15 -106 -15c-63.333 0 -109.833 14.667 -139.5 44s-44.5 74 -44.5 134v353h81v-345c0 -50 8 -83 24 -99s48.333 -24 97 -24c29.333 0 54.666 2.66699 75.999 8c20 4 37 14.333 51 31
c18 20 27 56.333 27 109v320h80v-525z" />
    <glyph glyph-name="egrave" unicode="&#x438;" horiz-adv-x="570" 
d="M500 0h-79.999v70l-2 -2c-12 -27.333 -33.333 -47 -64 -59c-30 -10 -65.333 -15 -106 -15c-63.333 0 -109.833 14.667 -139.5 44s-44.5 74 -44.5 134v353h81v-345c0 -50 8 -83 24 -99s48.333 -24 97 -24c29.333 0 54.666 2.66699 75.999 8c20 4 37 14.333 51 31
c18 20 27 56.333 27 109v320h80v-525z" />
    <glyph glyph-name="eacute" unicode="&#xe9;" horiz-adv-x="570" 
d="M500 0h-79.999v70l-2 -2c-12 -27.333 -33.333 -47 -64 -59c-30 -10 -65.333 -15 -106 -15c-63.333 0 -109.833 14.667 -139.5 44s-44.5 74 -44.5 134v353h81v-345c0 -50 8 -83 24 -99s48.333 -24 97 -24c29.333 0 54.666 2.66699 75.999 8c20 4 37 14.333 51 31
c18 20 27 56.333 27 109v320h80v-525zM219.001 629l149 113l39 -53l-160 -101z" />
    <glyph glyph-name="eacute" unicode="&#x439;" horiz-adv-x="570" 
d="M500 0h-79.999v70l-2 -2c-12 -27.333 -33.333 -47 -64 -59c-30 -10 -65.333 -15 -106 -15c-63.333 0 -109.833 14.667 -139.5 44s-44.5 74 -44.5 134v353h81v-345c0 -50 8 -83 24 -99s48.333 -24 97 -24c29.333 0 54.666 2.66699 75.999 8c20 4 37 14.333 51 31
c18 20 27 56.333 27 109v320h80v-525zM219.001 629l149 113l39 -53l-160 -101z" />
    <glyph glyph-name="ecircumflex" unicode="&#xea;" horiz-adv-x="486" 
d="M506 0h-104l-224 252h-32v-252h-80v525h80v-209h32l189 209h98l-225 -242z" />
    <glyph glyph-name="ecircumflex" unicode="&#x43a;" horiz-adv-x="486" 
d="M506 0h-104l-224 252h-32v-252h-80v525h80v-209h32l189 209h98l-225 -242z" />
    <glyph glyph-name="edieresis" unicode="&#xeb;" horiz-adv-x="453" 
d="M475 -3h-86l-144 466l-151 -466h-80l174 525h111z" />
    <glyph glyph-name="edieresis" unicode="&#x43b;" horiz-adv-x="453" 
d="M475 -3h-86l-144 466l-151 -466h-80l174 525h111z" />
    <glyph glyph-name="igrave" unicode="&#xec;" horiz-adv-x="754" 
d="M656 13h-82l-1 470h-4l-135 -470h-114l-146 470v-470h-80v527l137 -2l144 -469l135 469l146 2v-527z" />
    <glyph glyph-name="igrave" unicode="&#x43c;" horiz-adv-x="754" 
d="M656 13h-82l-1 470h-4l-135 -470h-114l-146 470v-470h-80v527l137 -2l144 -469l135 469l146 2v-527z" />
    <glyph glyph-name="iacute" unicode="&#xed;" horiz-adv-x="580" 
d="M432 316v209h78v-525h-78v238h-286v-238h-78v525h78v-209h286z" />
    <glyph glyph-name="iacute" unicode="&#x43d;" horiz-adv-x="580" 
d="M432 316v209h78v-525h-78v238h-286v-238h-78v525h78v-209h286z" />
    <glyph glyph-name="icircumflex" unicode="&#xee;" horiz-adv-x="570" 
d="M518 256c0 -55.333 -3.16895 -100.834 -9.50195 -136.501s-21.5 -64.5 -45.5 -86.5c-19.333 -17.333 -44.833 -28.166 -76.5 -32.499s-69.5 -6.5 -113.5 -6.5s-81.667 4 -113 12s-56 25 -74 51c-23.333 34.667 -35 97 -35 187c0 56.667 2 103 6 139s14.333 65.333 31 88
c18.667 23.333 42.334 39 71.001 47c14.667 3.33301 31.334 6.33301 50.001 9s39 4 61 4c56.667 0 98.667 -2.66699 126 -8c30.667 -4.66699 55 -17 73 -37c21.333 -21.333 34.833 -51 40.5 -89s8.5 -85 8.5 -141zM435.998 224.999l0.000976562 38.999v16v13v11v44
c-2 10.667 -3.33301 18.334 -4 23.001c0 13.333 -1.83301 25.333 -5.5 36s-9.16699 20.334 -16.5 29.001c-10 12.667 -26 21 -48 25s-48.333 6 -79 6h-25c-48 0 -80.667 -9.66699 -98 -29c-8 -8.66699 -14.833 -26.334 -20.5 -53.001s-8.5 -59.334 -8.5 -98.001l2 -23v-12
c0 -5.33301 -0.666992 -10.666 -2 -15.999c0 -16 0.666992 -32 2 -48s2.83301 -32.167 4.5 -48.5s7.16699 -31.5 16.5 -45.5c16.667 -24.667 61 -37 133 -37c65.333 0 105.666 9.66699 120.999 29c18.667 22 28 68.333 28 139z" />
    <glyph glyph-name="icircumflex" unicode="&#x43e;" horiz-adv-x="570" 
d="M518 256c0 -55.333 -3.16895 -100.834 -9.50195 -136.501s-21.5 -64.5 -45.5 -86.5c-19.333 -17.333 -44.833 -28.166 -76.5 -32.499s-69.5 -6.5 -113.5 -6.5s-81.667 4 -113 12s-56 25 -74 51c-23.333 34.667 -35 97 -35 187c0 56.667 2 103 6 139s14.333 65.333 31 88
c18.667 23.333 42.334 39 71.001 47c14.667 3.33301 31.334 6.33301 50.001 9s39 4 61 4c56.667 0 98.667 -2.66699 126 -8c30.667 -4.66699 55 -17 73 -37c21.333 -21.333 34.833 -51 40.5 -89s8.5 -85 8.5 -141zM435.998 224.999l0.000976562 38.999v16v13v11v44
c-2 10.667 -3.33301 18.334 -4 23.001c0 13.333 -1.83301 25.333 -5.5 36s-9.16699 20.334 -16.5 29.001c-10 12.667 -26 21 -48 25s-48.333 6 -79 6h-25c-48 0 -80.667 -9.66699 -98 -29c-8 -8.66699 -14.833 -26.334 -20.5 -53.001s-8.5 -59.334 -8.5 -98.001l2 -23v-12
c0 -5.33301 -0.666992 -10.666 -2 -15.999c0 -16 0.666992 -32 2 -48s2.83301 -32.167 4.5 -48.5s7.16699 -31.5 16.5 -45.5c16.667 -24.667 61 -37 133 -37c65.333 0 105.666 9.66699 120.999 29c18.667 22 28 68.333 28 139z" />
    <glyph glyph-name="idieresis" unicode="&#xef;" horiz-adv-x="580" 
d="M510 525v-525h-78v448h-286v-448h-78v525h442z" />
    <glyph glyph-name="idieresis" unicode="&#x43f;" horiz-adv-x="580" 
d="M510 525v-525h-78v448h-286v-448h-78v525h442z" />
    <glyph glyph-name="eth" unicode="&#xf0;" horiz-adv-x="572" 
d="M513 388c7.33301 -24 10.9971 -50.667 10.9971 -80c0 -40.667 -5.5 -78.667 -16.5 -114s-23.833 -61.333 -38.5 -78c-28 -31.333 -81.333 -47 -160 -47c-42.667 0 -75.667 4 -99 12c-30 10 -51.333 28.333 -64 55l-1 -135h-81v524h81v-64l1 -4
c9.33301 22.667 28 40.667 56 54s62.333 20 103 20c18.667 0 35.834 -0.666992 51.501 -2s30.834 -4.33301 45.501 -9c36 -10 62.333 -27 79 -51c10.667 -15.333 21.334 -42.333 32.001 -81zM409.997 169c12.667 19.333 21.833 40.335 27.5 63.002s8.5 46.667 8.5 72
c0 58 -12 100.667 -36 128c-20 23.333 -57.667 35 -113 35c-65.333 0 -107.666 -13 -126.999 -39c-6.66699 -10.667 -11.334 -19.334 -14.001 -26.001c-6.66699 -16 -10 -32 -10 -48v-14v-12c0 -14.667 -0.166992 -29 -0.5 -43s-0.5 -27.667 -0.5 -41
c0 -12.667 3.33301 -25.667 10 -39c2.66699 -4.66699 7.66699 -12.334 15 -23.001c22 -33.333 63 -50 123 -50c58 0 97 12.333 117 37z" />
    <glyph glyph-name="eth" unicode="&#x440;" horiz-adv-x="572" 
d="M513 388c7.33301 -24 10.9971 -50.667 10.9971 -80c0 -40.667 -5.5 -78.667 -16.5 -114s-23.833 -61.333 -38.5 -78c-28 -31.333 -81.333 -47 -160 -47c-42.667 0 -75.667 4 -99 12c-30 10 -51.333 28.333 -64 55l-1 -135h-81v524h81v-64l1 -4
c9.33301 22.667 28 40.667 56 54s62.333 20 103 20c18.667 0 35.834 -0.666992 51.501 -2s30.834 -4.33301 45.501 -9c36 -10 62.333 -27 79 -51c10.667 -15.333 21.334 -42.333 32.001 -81zM409.997 169c12.667 19.333 21.833 40.335 27.5 63.002s8.5 46.667 8.5 72
c0 58 -12 100.667 -36 128c-20 23.333 -57.667 35 -113 35c-65.333 0 -107.666 -13 -126.999 -39c-6.66699 -10.667 -11.334 -19.334 -14.001 -26.001c-6.66699 -16 -10 -32 -10 -48v-14v-12c0 -14.667 -0.166992 -29 -0.5 -43s-0.5 -27.667 -0.5 -41
c0 -12.667 3.33301 -25.667 10 -39c2.66699 -4.66699 7.66699 -12.334 15 -23.001c22 -33.333 63 -50 123 -50c58 0 97 12.333 117 37z" />
    <glyph glyph-name="ntilde" unicode="&#xf1;" horiz-adv-x="547" 
d="M504 166c0 -58 -14.333 -100.996 -43 -128.996c-33.333 -30 -94.666 -45 -183.999 -45c-44.667 0 -81 3.66699 -109 11c-26.667 6 -50 18.667 -70 38c-20.667 22 -34 47.667 -40 77c-2.66699 17.333 -4.83398 37.166 -6.50098 59.499s-2.5 48.5 -2.5 78.5
c0 64.667 3 112.167 9 142.5s16.667 54.666 32 72.999s33.833 31.833 55.5 40.5s43.5 14 65.5 16l78 3c72.667 0 124.667 -11.667 156 -35c34 -26 51 -73.333 51 -142h-80v11c0 40 -8.33301 67.333 -25 82c-18.667 13.333 -54 20 -106 20h-19
c-28.667 0 -50.5 -1.83301 -65.5 -5.5s-29.167 -12.167 -42.5 -25.5c-8 -8.66699 -14.833 -23.834 -20.5 -45.501s-8.5 -48.167 -8.5 -79.5l2 -41v-27v-18c-1.33301 -8 -2 -13.333 -2 -16c0 -60 11 -101 33 -123c19.333 -18 60.333 -27 123 -27h12h35
c14 2 23.667 3.33301 29 4c18 3.33301 32.333 9.66602 43 18.999c14.667 13.333 22 43.333 22 90v17h78v-23z" />
    <glyph glyph-name="ntilde" unicode="&#x441;" horiz-adv-x="547" 
d="M504 166c0 -58 -14.333 -100.996 -43 -128.996c-33.333 -30 -94.666 -45 -183.999 -45c-44.667 0 -81 3.66699 -109 11c-26.667 6 -50 18.667 -70 38c-20.667 22 -34 47.667 -40 77c-2.66699 17.333 -4.83398 37.166 -6.50098 59.499s-2.5 48.5 -2.5 78.5
c0 64.667 3 112.167 9 142.5s16.667 54.666 32 72.999s33.833 31.833 55.5 40.5s43.5 14 65.5 16l78 3c72.667 0 124.667 -11.667 156 -35c34 -26 51 -73.333 51 -142h-80v11c0 40 -8.33301 67.333 -25 82c-18.667 13.333 -54 20 -106 20h-19
c-28.667 0 -50.5 -1.83301 -65.5 -5.5s-29.167 -12.167 -42.5 -25.5c-8 -8.66699 -14.833 -23.834 -20.5 -45.501s-8.5 -48.167 -8.5 -79.5l2 -41v-27v-18c-1.33301 -8 -2 -13.333 -2 -16c0 -60 11 -101 33 -123c19.333 -18 60.333 -27 123 -27h12h35
c14 2 23.667 3.33301 29 4c18 3.33301 32.333 9.66602 43 18.999c14.667 13.333 22 43.333 22 90v17h78v-23z" />
    <glyph glyph-name="ograve" unicode="&#xf2;" horiz-adv-x="215" 
d="M288 458h-142v-458h-80v458h-149v67h371v-67z" />
    <glyph glyph-name="ograve" unicode="&#x442;" horiz-adv-x="215" 
d="M288 458h-142v-458h-80v458h-149v67h371v-67z" />
    <glyph glyph-name="oacute" unicode="&#xf3;" horiz-adv-x="438" 
d="M441 525l-32.998 -83.001l-70 -183c-30.667 -82 -52.167 -143.667 -64.5 -185s-31.833 -74.333 -58.5 -99s-59.334 -37 -98.001 -37l-22 2l-19 1v61c10 -2 19 -3 27 -3c17.333 0 33 5.33301 47 16c12 10.667 20.333 18.667 25 24
c7.33301 8.66699 15.333 28.334 24 59.001h-27c-20 54 -40.333 105.167 -61 153.5l-60.5 140c-19.667 45 -37.834 89.5 -54.501 133.5h80l148 -370l135 370h82z" />
    <glyph glyph-name="oacute" unicode="&#x443;" horiz-adv-x="438" 
d="M441 525l-32.998 -83.001l-70 -183c-30.667 -82 -52.167 -143.667 -64.5 -185s-31.833 -74.333 -58.5 -99s-59.334 -37 -98.001 -37l-22 2l-19 1v61c10 -2 19 -3 27 -3c17.333 0 33 5.33301 47 16c12 10.667 20.333 18.667 25 24
c7.33301 8.66699 15.333 28.334 24 59.001h-27c-20 54 -40.333 105.167 -61 153.5l-60.5 140c-19.667 45 -37.834 89.5 -54.501 133.5h80l148 -370l135 370h82z" />
    <glyph glyph-name="ocircumflex" unicode="&#xf4;" horiz-adv-x="572" 
d="M326 388c4 -12 7.00195 -25.667 9.00195 -41s3 -30 3 -44c0 -36.667 -4.83301 -72.667 -14.5 -108s-20.5 -61.666 -32.5 -78.999c-22 -31.333 -64.667 -47 -128 -47c-32 0 -56 4 -72 12c-20 10 -36.667 28.333 -50 55l-1 -135h-80v135
c-13.333 -26 -29.333 -43.667 -48 -53s-43.667 -14 -75 -14c-63.333 0 -106 15.667 -128 47c-11.333 15.333 -21.5 41.166 -30.5 77.499s-13.5 74.5 -13.5 114.5c0 27.333 3 54 9 80c10 48 21.333 80 34 96s30.667 28 54 36c11.333 4 23 6.83301 35 8.5s26.333 2.5 43 2.5
c30.667 0 55.667 -6.5 75 -19.5s34 -31.167 44 -54.5l1 4v64h80v-64l1 -4c10 24 24.5 42.333 43.5 55s44.167 19 75.5 19c15.333 0 29.166 -0.666992 41.499 -2s24.5 -4.33301 36.5 -9c27.333 -9.33301 47.333 -26.333 60 -51c5.33301 -9.33301 14.666 -36.333 27.999 -81z
M244.002 169c9.33301 18 16.501 39.0029 21.501 63.0029s7.5 47.667 7.5 71c0 27.333 -2.66699 52.333 -8 75s-12.333 40.667 -21 54c-16 23.333 -46 35 -90 35c-26 0 -44.667 -2.83301 -56 -8.5s-22.333 -15.834 -33 -30.501
c-6.66699 -10.667 -11.334 -19.334 -14.001 -26.001c-6.66699 -16 -10 -32 -10 -48v-14v-12c0 -14.667 -0.166992 -29 -0.5 -43s-0.5 -27.667 -0.5 -41c0 -12.667 3.33301 -25.667 10 -39c2.66699 -4.66699 7.66699 -12.334 15 -23.001c12 -18 23.667 -30.833 35 -38.5
s28 -11.5 50 -11.5c46.667 0 78 12.333 94 37zM-39.9971 244.003v12.999v12v36.5c0 12.333 -0.333008 24.833 -1 37.5v11c0 12 -1.83301 24 -5.5 36s-9.83398 24.667 -18.501 38c-10.667 14 -21.834 24 -33.501 30s-30.167 9 -55.5 9c-44 0 -74 -11.667 -90 -35
c-8 -11.333 -14.833 -29.333 -20.5 -54s-8.5 -50 -8.5 -76c0 -25.333 2.16699 -48.666 6.5 -69.999s11.833 -42.333 22.5 -63c16 -24.667 47.333 -37 94 -37c22.667 0 39.334 3.5 50.001 10.5s22.334 20.167 35.001 39.5c5.33301 7.33301 10 15 14 23
c7.33301 14.667 11 27.667 11 39z" />
    <glyph glyph-name="ocircumflex" unicode="&#x444;" horiz-adv-x="572" 
d="M326 388c4 -12 7.00195 -25.667 9.00195 -41s3 -30 3 -44c0 -36.667 -4.83301 -72.667 -14.5 -108s-20.5 -61.666 -32.5 -78.999c-22 -31.333 -64.667 -47 -128 -47c-32 0 -56 4 -72 12c-20 10 -36.667 28.333 -50 55l-1 -135h-80v135
c-13.333 -26 -29.333 -43.667 -48 -53s-43.667 -14 -75 -14c-63.333 0 -106 15.667 -128 47c-11.333 15.333 -21.5 41.166 -30.5 77.499s-13.5 74.5 -13.5 114.5c0 27.333 3 54 9 80c10 48 21.333 80 34 96s30.667 28 54 36c11.333 4 23 6.83301 35 8.5s26.333 2.5 43 2.5
c30.667 0 55.667 -6.5 75 -19.5s34 -31.167 44 -54.5l1 4v64h80v-64l1 -4c10 24 24.5 42.333 43.5 55s44.167 19 75.5 19c15.333 0 29.166 -0.666992 41.499 -2s24.5 -4.33301 36.5 -9c27.333 -9.33301 47.333 -26.333 60 -51c5.33301 -9.33301 14.666 -36.333 27.999 -81z
M244.002 169c9.33301 18 16.501 39.0029 21.501 63.0029s7.5 47.667 7.5 71c0 27.333 -2.66699 52.333 -8 75s-12.333 40.667 -21 54c-16 23.333 -46 35 -90 35c-26 0 -44.667 -2.83301 -56 -8.5s-22.333 -15.834 -33 -30.501
c-6.66699 -10.667 -11.334 -19.334 -14.001 -26.001c-6.66699 -16 -10 -32 -10 -48v-14v-12c0 -14.667 -0.166992 -29 -0.5 -43s-0.5 -27.667 -0.5 -41c0 -12.667 3.33301 -25.667 10 -39c2.66699 -4.66699 7.66699 -12.334 15 -23.001c12 -18 23.667 -30.833 35 -38.5
s28 -11.5 50 -11.5c46.667 0 78 12.333 94 37zM-39.9971 244.003v12.999v12v36.5c0 12.333 -0.333008 24.833 -1 37.5v11c0 12 -1.83301 24 -5.5 36s-9.83398 24.667 -18.501 38c-10.667 14 -21.834 24 -33.501 30s-30.167 9 -55.5 9c-44 0 -74 -11.667 -90 -35
c-8 -11.333 -14.833 -29.333 -20.5 -54s-8.5 -50 -8.5 -76c0 -25.333 2.16699 -48.666 6.5 -69.999s11.833 -42.333 22.5 -63c16 -24.667 47.333 -37 94 -37c22.667 0 39.334 3.5 50.001 10.5s22.334 20.167 35.001 39.5c5.33301 7.33301 10 15 14 23
c7.33301 14.667 11 27.667 11 39z" />
    <glyph glyph-name="otilde" unicode="&#xf5;" horiz-adv-x="453" 
d="M457 0h-94l-136 211l-137 -211h-94l190 273l-170 252h88l123 -193l119 193h92l-168 -252z" />
    <glyph glyph-name="otilde" unicode="&#x445;" horiz-adv-x="453" 
d="M457 0h-94l-136 211l-137 -211h-94l190 273l-170 252h88l123 -193l119 193h92l-168 -252z" />
    <glyph glyph-name="glyph201" unicode="&#xf6;" horiz-adv-x="580" 
d="M471 1h-373v525h78v-462h231v462h78v-462h71l-71 -162h-24z" />
    <glyph glyph-name="glyph201" unicode="&#x446;" horiz-adv-x="580" 
d="M471 1h-373v525h78v-462h231v462h78v-462h71l-71 -162h-24z" />
    <glyph glyph-name="divide" unicode="&#xf7;" horiz-adv-x="570" 
d="M500 0h-79.999v230l-2 -2c-12 -27.333 -33.333 -47 -64 -59c-30 -10 -65.333 -15 -106 -15c-63.333 0 -109.833 14.667 -139.5 44s-44.5 74 -44.5 134v193h81v-185c0 -50 8 -83 24 -99s48.333 -24 97 -24c29.333 0 54.666 2.66699 75.999 8c20 4 37 14.333 51 31
c18 20 27 56.333 27 109v160h80v-525z" />
    <glyph glyph-name="divide" unicode="&#x447;" horiz-adv-x="570" 
d="M500 0h-79.999v230l-2 -2c-12 -27.333 -33.333 -47 -64 -59c-30 -10 -65.333 -15 -106 -15c-63.333 0 -109.833 14.667 -139.5 44s-44.5 74 -44.5 134v193h81v-185c0 -50 8 -83 24 -99s48.333 -24 97 -24c29.333 0 54.666 2.66699 75.999 8c20 4 37 14.333 51 31
c18 20 27 56.333 27 109v160h80v-525z" />
    <glyph glyph-name="oslash" unicode="&#xf8;" horiz-adv-x="580" 
d="M360 78h151v448h78v-525h-536v525h78v-448h151v448h78v-448z" />
    <glyph glyph-name="oslash" unicode="&#x448;" horiz-adv-x="580" 
d="M360 78h151v448h78v-525h-536v525h78v-448h151v448h78v-448z" />
    <glyph glyph-name="ugrave" unicode="&#xf9;" horiz-adv-x="580" 
d="M569 1h-516v525h78v-448h151v448h78v-448h151v448h78v-458h65l-71 -162h-24z" />
    <glyph glyph-name="ugrave" unicode="&#x449;" horiz-adv-x="580" 
d="M569 1h-516v525h78v-448h151v448h78v-448h151v448h78v-458h65l-71 -162h-24z" />
    <glyph glyph-name="uacute" unicode="&#xfa;" horiz-adv-x="570" 
d="M455 146c-4 10 -6.00098 23.333 -6.00098 40c0 28 -9.5 46.333 -28.5 55s-52.5 13 -100.5 13c-47.333 0 -86 -5.33301 -116 -16c-28 -11.333 -42 -36 -42 -74c0 -28 5.33301 -50.667 16 -68c20 -26 66.667 -39 140 -39c58 0 95 6 111 18
c12.667 9.33301 21.334 33 26.001 71zM81.999 450h-111.998v78h145h45v-264h6c3.33301 16 19.166 28.667 47.499 38s59.5 14 93.5 14h13c81.333 0 136 -8.66699 164 -26c34 -20.667 51 -62 51 -124l2 -14c0 -60 -16 -101.333 -48 -124s-87 -34 -165 -34
c-46.667 0 -82.334 4.33301 -107.001 13s-43 24.667 -55 48l-2 -2v-53h-78v450z" />
    <glyph glyph-name="uacute" unicode="&#x44a;" horiz-adv-x="570" 
d="M455 146c-4 10 -6.00098 23.333 -6.00098 40c0 28 -9.5 46.333 -28.5 55s-52.5 13 -100.5 13c-47.333 0 -86 -5.33301 -116 -16c-28 -11.333 -42 -36 -42 -74c0 -28 5.33301 -50.667 16 -68c20 -26 66.667 -39 140 -39c58 0 95 6 111 18
c12.667 9.33301 21.334 33 26.001 71zM81.999 450h-111.998v78h145h45v-264h6c3.33301 16 19.166 28.667 47.499 38s59.5 14 93.5 14h13c81.333 0 136 -8.66699 164 -26c34 -20.667 51 -62 51 -124l2 -14c0 -60 -16 -101.333 -48 -124s-87 -34 -165 -34
c-46.667 0 -82.334 4.33301 -107.001 13s-43 24.667 -55 48l-2 -2v-53h-78v450z" />
    <glyph glyph-name="ucircumflex" unicode="&#xfb;" horiz-adv-x="570" 
d="M651 -10h-80v525h80v-525zM537 152c0 -60 -15.998 -101.333 -47.998 -124s-87 -34 -165 -34c-46.667 0 -82.334 4.33301 -107.001 13s-43 24.667 -55 48l-2 -2v-53h-78v528h78v-264h6c3.33301 16 19.166 28.667 47.499 38s59.5 14 93.5 14h13
c81.333 0 136 -8.66699 164 -26c34 -20.667 51 -62 51 -124zM455.002 146c-4 10 -6.00098 23.333 -6.00098 40c0 28 -9.5 46.333 -28.5 55s-52.5 13 -100.5 13c-47.333 0 -86 -5.33301 -116 -16c-28 -11.333 -42 -36 -42 -74c0 -28 5.33301 -50.667 16 -68
c20 -26 66.667 -39 140 -39c58 0 95 6 111 18c12.667 9.33301 21.334 33 26.001 71z" />
    <glyph glyph-name="ucircumflex" unicode="&#x44b;" horiz-adv-x="570" 
d="M651 -10h-80v525h80v-525zM537 152c0 -60 -15.998 -101.333 -47.998 -124s-87 -34 -165 -34c-46.667 0 -82.334 4.33301 -107.001 13s-43 24.667 -55 48l-2 -2v-53h-78v528h78v-264h6c3.33301 16 19.166 28.667 47.499 38s59.5 14 93.5 14h13
c81.333 0 136 -8.66699 164 -26c34 -20.667 51 -62 51 -124zM455.002 146c-4 10 -6.00098 23.333 -6.00098 40c0 28 -9.5 46.333 -28.5 55s-52.5 13 -100.5 13c-47.333 0 -86 -5.33301 -116 -16c-28 -11.333 -42 -36 -42 -74c0 -28 5.33301 -50.667 16 -68
c20 -26 66.667 -39 140 -39c58 0 95 6 111 18c12.667 9.33301 21.334 33 26.001 71z" />
    <glyph glyph-name="udieresis" unicode="&#xfc;" horiz-adv-x="570" 
d="M537 152c0 -60 -15.998 -101.333 -47.998 -124s-87 -34 -165 -34c-46.667 0 -82.334 4.33301 -107.001 13s-43 24.667 -55 48l-2 -2v-53h-78v528h78v-264h6c3.33301 16 19.166 28.667 47.499 38s59.5 14 93.5 14h13c81.333 0 136 -8.66699 164 -26
c34 -20.667 51 -62 51 -124zM455.002 146c-4 10 -6.00098 23.333 -6.00098 40c0 28 -9.5 46.333 -28.5 55s-52.5 13 -100.5 13c-47.333 0 -86 -5.33301 -116 -16c-28 -11.333 -42 -36 -42 -74c0 -28 5.33301 -50.667 16 -68c20 -26 66.667 -39 140 -39c58 0 95 6 111 18
c12.667 9.33301 21.334 33 26.001 71z" />
    <glyph glyph-name="udieresis" unicode="&#x44c;" horiz-adv-x="570" 
d="M537 152c0 -60 -15.998 -101.333 -47.998 -124s-87 -34 -165 -34c-46.667 0 -82.334 4.33301 -107.001 13s-43 24.667 -55 48l-2 -2v-53h-78v528h78v-264h6c3.33301 16 19.166 28.667 47.499 38s59.5 14 93.5 14h13c81.333 0 136 -8.66699 164 -26
c34 -20.667 51 -62 51 -124zM455.002 146c-4 10 -6.00098 23.333 -6.00098 40c0 28 -9.5 46.333 -28.5 55s-52.5 13 -100.5 13c-47.333 0 -86 -5.33301 -116 -16c-28 -11.333 -42 -36 -42 -74c0 -28 5.33301 -50.667 16 -68c20 -26 66.667 -39 140 -39c58 0 95 6 111 18
c12.667 9.33301 21.334 33 26.001 71z" />
    <glyph glyph-name="yacute" unicode="&#xfd;" horiz-adv-x="547" 
d="M517 256c0 -67.333 -3 -114.668 -9 -142.001s-19.333 -51.666 -40 -72.999c-20.667 -20 -43.5 -33.167 -68.5 -39.5s-61.833 -9.5 -110.5 -9.5c-84 0 -142.833 13.5 -176.5 40.5s-50.5 71.5 -50.5 133.5v23h78v-17c0 -49.333 8 -81.333 24 -96
c12.667 -11.333 39 -17 79 -17h38c62.667 0 103.667 9 123 27c10.667 10.667 19.5 26.167 26.5 46.5s10.5 45.5 10.5 75.5v41h-195v56h196c0 7.33301 -0.166992 16 -0.5 26s-2 22.333 -5 37s-5.16699 24 -6.5 28c-4.66699 16 -12 29.333 -22 40
c-13.333 13.333 -27.166 21.833 -41.499 25.5s-36.5 5.5 -66.5 5.5h-19c-52 0 -87.333 -6.66699 -106 -20c-16.667 -14.667 -25 -42 -25 -82v-11h-80c0 68.667 17 116 51 142c31.333 23.333 83.333 35 156 35c71.333 0 125.166 -9.5 161.499 -28.5s59.5 -53.833 69.5 -104.5
c6 -30 9 -77.333 9 -142z" />
    <glyph glyph-name="yacute" unicode="&#x44d;" horiz-adv-x="547" 
d="M517 256c0 -67.333 -3 -114.668 -9 -142.001s-19.333 -51.666 -40 -72.999c-20.667 -20 -43.5 -33.167 -68.5 -39.5s-61.833 -9.5 -110.5 -9.5c-84 0 -142.833 13.5 -176.5 40.5s-50.5 71.5 -50.5 133.5v23h78v-17c0 -49.333 8 -81.333 24 -96
c12.667 -11.333 39 -17 79 -17h38c62.667 0 103.667 9 123 27c10.667 10.667 19.5 26.167 26.5 46.5s10.5 45.5 10.5 75.5v41h-195v56h196c0 7.33301 -0.166992 16 -0.5 26s-2 22.333 -5 37s-5.16699 24 -6.5 28c-4.66699 16 -12 29.333 -22 40
c-13.333 13.333 -27.166 21.833 -41.499 25.5s-36.5 5.5 -66.5 5.5h-19c-52 0 -87.333 -6.66699 -106 -20c-16.667 -14.667 -25 -42 -25 -82v-11h-80c0 68.667 17 116 51 142c31.333 23.333 83.333 35 156 35c71.333 0 125.166 -9.5 161.499 -28.5s59.5 -53.833 69.5 -104.5
c6 -30 9 -77.333 9 -142z" />
    <glyph glyph-name="thorn" unicode="&#xfe;" horiz-adv-x="570" 
d="M626 225c0 27.333 -0.166992 53.3301 -0.5 77.9971s-1.5 47.334 -3.5 68.001c0 13.333 -1.83301 25.333 -5.5 36s-9.16699 20.334 -16.5 29.001c-10 12.667 -26 21 -48 25s-48.333 6 -79 6h-25c-48 0 -80.667 -9.66699 -98 -29c-7.33301 -8.66699 -14 -28.5 -20 -59.5
s-9 -61.5 -9 -91.5v-51c0 -14.667 0.666992 -30.5 2 -47.5s3 -35.667 5 -56s12.333 -37.166 31 -50.499c22.667 -16.667 62 -25 118 -25c66 0 107.333 10 124 30s25 66 25 138zM241 237.997l-94.999 -0.00195312v-238h-78v525h78v-209h96l5 67c4 36 14.5 65.333 31.5 88
s39.5 38.334 67.5 47.001s66 13 114 13c83.333 0 142.166 -9.5 176.499 -28.5s55.5 -53.833 63.5 -104.5c5.33301 -38.667 8 -86 8 -142c0 -55.333 -3.5 -103.166 -10.5 -143.499s-28.5 -70.166 -64.5 -89.499s-92.667 -29 -170 -29c-81.333 0 -136 12 -164 36
c-38.667 33.333 -58 102.666 -58 207.999z" />
    <glyph glyph-name="thorn" unicode="&#x44e;" horiz-adv-x="570" 
d="M626 225c0 27.333 -0.166992 53.3301 -0.5 77.9971s-1.5 47.334 -3.5 68.001c0 13.333 -1.83301 25.333 -5.5 36s-9.16699 20.334 -16.5 29.001c-10 12.667 -26 21 -48 25s-48.333 6 -79 6h-25c-48 0 -80.667 -9.66699 -98 -29c-7.33301 -8.66699 -14 -28.5 -20 -59.5
s-9 -61.5 -9 -91.5v-51c0 -14.667 0.666992 -30.5 2 -47.5s3 -35.667 5 -56s12.333 -37.166 31 -50.499c22.667 -16.667 62 -25 118 -25c66 0 107.333 10 124 30s25 66 25 138zM241 237.997l-94.999 -0.00195312v-238h-78v525h78v-209h96l5 67c4 36 14.5 65.333 31.5 88
s39.5 38.334 67.5 47.001s66 13 114 13c83.333 0 142.166 -9.5 176.499 -28.5s55.5 -53.833 63.5 -104.5c5.33301 -38.667 8 -86 8 -142c0 -55.333 -3.5 -103.166 -10.5 -143.499s-28.5 -70.166 -64.5 -89.499s-92.667 -29 -170 -29c-81.333 0 -136 12 -164 36
c-38.667 33.333 -58 102.666 -58 207.999z" />
    <glyph glyph-name="ydieresis" unicode="&#xff;" horiz-adv-x="574" 
d="M388 275l-0.000976562 138c-15.333 22.667 -30.333 37.334 -45 44.001s-38.667 10 -72 10c-43.333 0 -76.166 -9.83301 -98.499 -29.5s-33.5 -46.834 -33.5 -81.501c0 -44 7 -74 21 -90c20 -22.667 61 -34 123 -34c32 0 55 2.83301 69 8.5s26 17.167 36 34.5z
M337.999 171l-142.001 -139.001c-26.667 -24.667 -59.334 -37 -98.001 -37l-22 2l-19 1v61c10 -2 19 -3 27 -3c17.333 0 33 5.33301 47 16l52 47c26.667 24.667 45 42 55 52c-72.667 0 -122.667 22 -150 66c-18 28.667 -27 68.334 -27 119.001
c0 54.667 18.833 97.5 56.5 128.5s88.834 46.5 153.501 46.5c38.667 0 63.834 -1.83301 75.501 -5.5s25.5 -13.167 41.5 -28.5v27h80v-526h-80v173h-50z" />
    <glyph glyph-name="ydieresis" unicode="&#x44f;" horiz-adv-x="574" 
d="M388 275l-0.000976562 138c-15.333 22.667 -30.333 37.334 -45 44.001s-38.667 10 -72 10c-43.333 0 -76.166 -9.83301 -98.499 -29.5s-33.5 -46.834 -33.5 -81.501c0 -44 7 -74 21 -90c20 -22.667 61 -34 123 -34c32 0 55 2.83301 69 8.5s26 17.167 36 34.5z
M337.999 171l-142.001 -139.001c-26.667 -24.667 -59.334 -37 -98.001 -37l-22 2l-19 1v61c10 -2 19 -3 27 -3c17.333 0 33 5.33301 47 16l52 47c26.667 24.667 45 42 55 52c-72.667 0 -122.667 22 -150 66c-18 28.667 -27 68.334 -27 119.001
c0 54.667 18.833 97.5 56.5 128.5s88.834 46.5 153.501 46.5c38.667 0 63.834 -1.83301 75.501 -5.5s25.5 -13.167 41.5 -28.5v27h80v-526h-80v173h-50z" />
    <glyph glyph-name="dotlessi" unicode="&#x131;" horiz-adv-x="215" 
d="M66 525h80v-525h-80v525z" />
    <glyph glyph-name="OE" unicode="&#x152;" horiz-adv-x="1109" 
d="M354 682c-29.333 0 -55.165 -0.833008 -77.498 -2.5s-45.333 -4.33398 -69 -8.00098s-42.834 -17.834 -57.501 -42.501c-15.333 -29.333 -23 -77 -23 -143l-2 -236c0 -67.333 11 -113.666 33 -138.999c9.33301 -10 20.666 -18 33.999 -24
c7.33301 -3.33301 13.833 -5.66602 19.5 -6.99902s16.167 -3.66602 31.5 -6.99902l63 -4l49 -1c56 0 99.167 2 129.5 6s54.5 15.667 72.5 35c8 9.33301 15.667 27.666 23 54.999c2.66699 12 5 25.667 7 41s3 30.333 3 45v223c0 89.333 -12.333 146.5 -37 171.5
s-91 37.5 -199 37.5zM592.001 78c-20 -34 -48.999 -56.5 -86.999 -67.5s-83.333 -16.5 -136 -16.5h-33c-61.333 0 -110.5 3.5 -147.5 10.5s-68.5 24.5 -94.5 52.5c-16 18 -28.833 44.5 -38.5 79.5s-14.5 72.167 -14.5 111.5v221c0 36 4 75 12 117s19 72 33 90
c25.333 31.333 61.333 52.666 108 63.999c24.667 5.33301 49.667 9.33301 75 12s54.666 4 87.999 4c40.667 0 76.167 -2.33301 106.5 -7s57.5 -13.167 81.5 -25.5s39 -30.166 45 -53.499v80h482v-74h-396v-256h379v-70h-379v-276h396v-74h-480v78z" />
    <glyph glyph-name="oe" unicode="&#x153;" horiz-adv-x="941" 
d="M811 309c0 68.667 -8.66699 112.667 -26 132c-14 17.333 -46 26 -96 26h-27c-60.667 0 -101 -10.333 -121 -31c-10 -12 -17 -28 -21 -48l-6 -79h297zM285 467l-26.998 -0.00195312c-49.333 0 -83.333 -9.33301 -102 -28c-8 -9.33301 -14.167 -24.666 -18.5 -45.999
s-6.5 -49.333 -6.5 -84l2 -45v-12c0 -5.33301 -0.666992 -10.666 -2 -15.999c0 -36.667 2 -66.5 6 -89.5s9.66699 -39.167 17 -48.5c11.333 -17.333 27.666 -28.166 48.999 -32.499s48 -6.5 80 -6.5c66.667 0 108.167 10.5 124.5 31.5s24.5 64.5 24.5 130.5v84
c0 67.333 -7.83301 111.166 -23.5 131.499s-52.834 30.5 -111.501 30.5h-12zM473.002 65.998c-12 -30.667 -33.6719 -50.334 -65.0049 -59.001c-31.333 -7.33301 -71 -11 -119 -11l-18 -2c-42 0 -78.333 4.33301 -109 13s-56 26 -76 52
c-23.333 35.333 -35 97.666 -35 186.999c0 64.667 2 112.834 6 144.501s14.333 59.167 31 82.5c20.667 25.333 47.334 41.333 80.001 48s76.334 10 131.001 10c105.333 0 163.333 -24.667 174 -74c12 32 33.333 52 64 60c16.667 4.66699 35.834 8.16699 57.501 10.5
s46.834 3.5 75.501 3.5c38.667 0 72.334 -3.5 101.001 -10.5s50.334 -16.5 65.001 -28.5c19.333 -16 33.666 -42.167 42.999 -78.5s14 -71.833 14 -106.5v-63h-379l2 -78c0 -36 5.66699 -61 17 -75s26 -23 44 -27c3.33301 -0.666992 15 -2 35 -4s41.333 -3 64 -3
c29.333 0 52.666 1.33301 69.999 4s30.333 6.33398 39 11.001c17.333 12 26 40.667 26 86h82c0 -60 -13.667 -101.667 -41 -125c-16.667 -14.667 -39.667 -25 -69 -31c-14 -2.66699 -29.5 -4.66699 -46.5 -6s-37.833 -2 -62.5 -2c-51.333 0 -94.166 4 -128.499 12
s-58.5 28 -72.5 60z" />
    <glyph glyph-name="florin" unicode="&#x192;" 
d="M90 -162l34.002 -4l26 -2c44 0 72.667 17 86 51l49 269l47 268h-102l10 64h104l15 92c5.33301 31.333 11.666 58.833 18.999 82.5s16.666 41.834 27.999 54.501c26.667 28.667 69.667 43 129 43l42 -1l32 -1l-9 -66h-28l-33 1c-35.333 0 -60 -7 -74 -21
c-4 -4.66699 -8.66699 -16 -14 -34l-13 -66l-6 -40c-2 -12.667 -4.66699 -27.334 -8 -44.001h139l-12 -64h-139l-90 -508c-9.33301 -54 -25 -90.333 -47 -109c-24.667 -23.333 -68.667 -35 -132 -35c-9.33301 0 -19.5 0.333008 -30.5 1s-21.833 2 -32.5 4z" />
    <glyph glyph-name="circumflex" unicode="&#x2c6;" horiz-adv-x="498" 
d="M424 627l-24 -41l-150 76l-154 -76l-22 41l176 109z" />
    <glyph glyph-name="breve" unicode="&#x2d8;" horiz-adv-x="486" 
d="M74 736h53c6 -28 19.667 -50.5 41 -67.5s46 -25.5 74 -25.5c30 0 55.5 9 76.5 27s33.833 40 38.5 66h55c-5.33301 -39.333 -24 -74.5 -56 -105.5s-70.667 -46.5 -116 -46.5c-42 0 -78.833 15.667 -110.5 47s-50.167 66.333 -55.5 105z" />
    <glyph glyph-name="ring" unicode="&#x2da;" horiz-adv-x="322" 
d="M160 736c22.667 0 42.667 -8.66699 60 -26c18.667 -16.667 28 -36.667 28 -60c0 -24 -8.33301 -44.5 -25 -61.5s-37 -25.5 -61 -25.5s-45 8 -63 24c-16.667 16.667 -25 37.667 -25 63c0 23.333 9 43.5 27 60.5s37.667 25.5 59 25.5zM158 697
c-12.667 0 -23.668 -5 -33.001 -15c-8 -10 -12 -22 -12 -36c0 -12 4.66699 -22.667 14 -32s20.333 -14 33 -14s24 4.66699 34 14s15 21.333 15 36c0 11.333 -4.66699 22 -14 32s-21.666 15 -36.999 15z" />
    <glyph glyph-name="tilde" unicode="&#x2dc;" horiz-adv-x="488" 
d="M311 586c-14.667 0 -37.998 7 -69.998 21c-14 6.66699 -27.5 12 -40.5 16s-23.167 6 -30.5 6c-12 0 -21.167 -3.16699 -27.5 -9.5s-14.166 -16.833 -23.499 -31.5l-45 25c27.333 50 59.333 75 96 75c17.333 0 41.666 -7.16699 72.999 -21.5s54.666 -21.5 69.999 -21.5
c19.333 0 38.666 14.667 57.999 44l43 -29c-12 -20 -27.333 -37.333 -46 -52s-37.667 -22 -57 -22z" />
    <glyph glyph-name="endash" unicode="&#x2013;" horiz-adv-x="500" 
d="M0 311h500v-75h-500v75z" />
    <glyph glyph-name="emdash" unicode="&#x2014;" horiz-adv-x="1000" 
d="M0 311h998l2 -77h-998l-2 2v75z" />
    <glyph glyph-name="quoteleft" unicode="&#x2018;" horiz-adv-x="201" 
d="M102 670v-25h37v-104h-88v123c0 33.333 5 56 15 68c10 16 31 24 63 24h21v-45c-32 0 -48 -13.667 -48 -41z" />
    <glyph glyph-name="quoteright" unicode="&#x2019;" horiz-adv-x="201" 
d="M61 750h89.001v-127c0 -38 -7.33301 -62.167 -22 -72.5s-40.334 -15.5 -77.001 -15.5v45c18.667 0 31.5 4.16699 38.5 12.5s10.5 26.833 10.5 55.5h-39v102z" />
    <glyph glyph-name="quotedblleft" unicode="&#x201c;" horiz-adv-x="359" 
d="M51 541l0.000976562 121.001c0 39.333 7.16699 64.833 21.5 76.5s35.166 17.5 62.499 17.5h15v-45c-20 0 -33.333 -5.33301 -40 -16c-5.33301 -10.667 -8 -27.334 -8 -50.001h37v-104h-88zM207.001 541.001l0.000976562 121c0 42.667 8 69 24 79s41.333 15 76 15v-45
c-18.667 0 -32.334 -4.66699 -41.001 -14c-1.33301 -2 -4 -19.333 -8 -52h39v-104h-90z" />
    <glyph glyph-name="quotedblright" unicode="&#x201d;" horiz-adv-x="359" 
d="M61 750h89v-127c0 -57.333 -21.333 -86 -64 -86l-35 -2v45c20 2 33.167 8.5 39.5 19.5s9.5 27.167 9.5 48.5h-39v102zM219 750h88v-121c0 -55.333 -19 -86 -57 -92l-43 -2v45c22 2 37 8 45 18l4 27v23h-37v102z" />
    <glyph glyph-name="quotedblbase" unicode="&#x201e;" horiz-adv-x="359" 
d="M219 102l88.001 -0.000976562v-118c0 -43.333 -8 -70.666 -24 -81.999c-16 -10 -41.333 -15 -76 -15v45c12 0 21.667 1.66699 29 5s12.666 8 15.999 14c1.33301 3.33301 2.33301 8.33301 3 15s1 18 1 34h-37v102zM61.001 101.999h89v-118
c0 -39.333 -6.5 -65.333 -19.5 -78s-39.5 -19 -79.5 -19v45c21.333 0 34.833 5 40.5 15s8.5 27.667 8.5 53h-39v102z" />
    <glyph glyph-name="dagger" unicode="&#x2020;" 
d="M301 750h86v-207h174v-68h-174v-684h-86v684h-172v68h172v207z" />
    <glyph glyph-name="daggerdbl" unicode="&#x2021;" 
d="M301 750h86v-236h174v-71h-174v-328h174v-70h-174v-254h-86v254h-172v70h172v328h-172v71h172v236z" />
    <glyph glyph-name="bullet" unicode="&#x2022;" horiz-adv-x="520" 
d="M258 563c54 0 98.999 -18.167 134.999 -54.5s54 -80.833 54 -133.5c0 -51.333 -17.667 -95 -53 -131c-17.333 -18 -36.833 -31.833 -58.5 -41.5s-45.5 -14.5 -71.5 -14.5c-25.333 0 -49 4.16699 -71 12.5s-42.667 21.333 -62 39s-34 37.667 -44 60s-15 47.5 -15 75.5
c0 52 17.833 96.333 53.5 133s79.834 55 132.501 55z" />
    <glyph glyph-name="ellipsis" unicode="&#x2026;" horiz-adv-x="1000" 
d="M123 102h88v-102h-88v102zM455 0v102h90v-102h-90zM789 102h90v-102h-90v102z" />
    <glyph glyph-name="perthousand" unicode="&#x2030;" horiz-adv-x="1281" 
d="M1096 375c66 0 109.666 -8.33496 130.999 -25.002c22 -19.333 33 -55.333 33 -108v-76v-41c0 -53.333 -13 -89.666 -39 -108.999c-12 -7.33301 -28.167 -13.166 -48.5 -17.499s-45.166 -6.5 -74.499 -6.5h-15h-13c-6.66699 1.33301 -11.667 2 -15 2
c-14.667 0 -29 2 -43 6c-11.333 2 -22 6 -32 12c-29.333 16 -44 55 -44 117v111c0 56 13 94 39 114c20 14 60.333 21 121 21zM1092 317.998l-30.999 0.000976562c-26 0 -43 -3.66699 -51 -11c-10.667 -10.667 -16 -30.334 -16 -59.001v-125c0 -30 5.33301 -50 16 -60
c8 -8 28.667 -13.333 62 -16l22 2c14 0 23 -0.666992 27 -2c14.667 0 27.167 1.33301 37.5 4s18.166 6 23.499 10c11.333 10 17 34 17 72v103c0 38 -4.33301 61.667 -13 71c-10.667 7.33301 -33 11 -67 11h-27zM697 374.999c30.667 0 57 -2 79 -6
c21.333 -2.66699 38 -9.66699 50 -21c24.667 -20.667 37 -56.667 37 -108v-119c0 -26 -3.66699 -47.667 -11 -65s-18 -30.666 -32 -39.999c-23.333 -14.667 -63 -22 -119 -22h-23c-44.667 0 -76.667 5.33301 -96 16c-30 18 -45 57.667 -45 119v111
c0 56 12.333 93.333 37 112c12.667 9.33301 29 15.666 49 18.999zM695 319.999l-29.999 -1.00195l-33 -3c-8 -0.666992 -15 -3.66699 -21 -9c-10 -9.33301 -15 -29.666 -15 -60.999v-127c0 -28 5 -46.667 15 -56c9.33301 -7.33301 30.333 -12.666 63 -15.999l21 2
c49.333 0 78.666 4 87.999 12c13.333 10 20 33.333 20 70v105c0 35.333 -5.33301 58.333 -16 69c-6 6 -15.5 10 -28.5 12s-34.167 3 -63.5 3zM182.001 755.997c66.667 0 109.667 -8.66699 129 -26c12 -10 21.167 -23.833 27.5 -41.5s9.5 -40.167 9.5 -67.5v-119
c0 -48.667 -14.333 -84 -43 -106c-8 -4.66699 -18.333 -8.66699 -31 -12s-26.667 -5 -42 -5c-31.333 0 -54 -2 -68 -6c-24 0 -43.5 1.66699 -58.5 5s-28.167 8.33301 -39.5 15c-30 16 -45 55 -45 117v111c0 56 12.667 93.667 38 113c20.667 14.667 61.667 22 123 22z
M180.001 700.997l-19.999 -0.00195312c-32 0 -53 -4.16699 -63 -12.5s-15 -28.166 -15 -59.499v-129c0 -28.667 4.33301 -47.167 13 -55.5s29.667 -13.833 63 -16.5l22 2c49.333 0 78.666 3.66699 87.999 11c12.667 12.667 19 36.334 19 71.001v105
c0 36 -5.33301 59.667 -16 71c-10.667 8.66699 -41 13 -91 13zM658.002 749.995h71l-510 -756h-67z" />
    <glyph glyph-name="guilsinglleft" unicode="&#x2039;" horiz-adv-x="318" 
d="M207 0l-152 289l136 285l57 -35l-117 -250l131 -254z" />
    <glyph glyph-name="guilsinglright" unicode="&#x203a;" horiz-adv-x="318" 
d="M55 35l131 254l-118 250l59 35l135 -285l-153 -289z" />
    <glyph glyph-name="trademark" unicode="&#x2122;" horiz-adv-x="1000" 
d="M63 750h341v-61h-134v-361h-75v361h-132v61zM475 750h111l121 -297l125 297h109v-422h-68v361l-146 -361h-39l-141 361l-2 -361h-70v422z" />
    <glyph glyph-name=".null" horiz-adv-x="0" 
 />
    <glyph glyph-name="nonmarkingreturn" horiz-adv-x="346" 
 />
    <glyph glyph-name="fi" horiz-adv-x="510" 
d="M361 750h80v-88h-80v88zM361 525h80v-525h-80v525zM305 754l0.000976562 -65l-24 1l-31 1c-24.667 0 -44.334 -3.66699 -59.001 -11c-16.667 -12.667 -25 -37 -25 -73v-82h139v-64h-139v-461h-78v461h-80v64h80v79c0 54 12.5 92.833 37.5 116.5s68.5 35.5 130.5 35.5
l27 -1z" />
    <glyph glyph-name="odieresis" horiz-adv-x="514" 
d="M365 750h80v-750h-80v750zM305 754v-65l-51 2c-29.333 0 -50.333 -3.66699 -63 -11c-16.667 -12.667 -25 -37 -25 -73v-82h141v-64h-141v-461h-78v461h-80v64h80v80c0 50.667 12 88.5 36 113.5s66.667 37.5 128 37.5h27.5c9 0 17.5 -0.666992 25.5 -2z" />
    </font>
</defs>
</svg>
